Jost-600-SemiItalic.ufo
<glyph name="exclam" format="1">
  <advance width="312"/>
  <unicode hex="0021"/>
  <outline>
    <contour>
      <point x="262" y="700" type="line"/>
      <point x="421" y="700" type="line"/>
      <point x="232" y="223" type="line"/>
      <point x="126" y="223" type="line"/>
    </contour>
    <contour>
      <point x="39" y="56" type="curve" smooth="yes"/>
      <point x="39" y="101"/>
      <point x="74" y="134"/>
      <point x="122" y="134" type="curve" smooth="yes"/>
      <point x="170" y="134"/>
      <point x="206" y="101"/>
      <point x="206" y="56" type="curve" smooth="yes"/>
      <point x="206" y="11"/>
      <point x="170" y="-22"/>
      <point x="122" y="-22" type="curve" smooth="yes"/>
      <point x="74" y="-22"/>
      <point x="39" y="11"/>
    </contour>
  </outline>
</glyph>
<glyph name="quotedbl" format="1">
  <advance width="473"/>
  <unicode hex="0022"/>
  <outline>
    <contour>
      <point x="283" y="699" type="line"/>
      <point x="427" y="699" type="line"/>
      <point x="233" y="388" type="line"/>
      <point x="144" y="387" type="line"/>
    </contour>
    <contour>
      <point x="474" y="699" type="line"/>
      <point x="618" y="699" type="line"/>
      <point x="423" y="388" type="line"/>
      <point x="335" y="387" type="line"/>
    </contour>
  </outline>
</glyph>
<glyph name="numbersign" format="1">
  <advance width="611"/>
  <unicode hex="0023"/>
  <outline>
    <contour>
      <point x="161" y="421" type="line"/>
      <point x="194" y="525" type="line"/>
      <point x="706" y="525" type="line"/>
      <point x="670" y="420" type="line"/>
      <point x="534" y="420" type="line"/>
      <point x="513" y="424" type="line"/>
      <point x="323" y="424" type="line"/>
      <point x="300" y="420" type="line"/>
    </contour>
    <contour>
      <point x="38" y="180" type="line"/>
      <point x="74" y="285" type="line"/>
      <point x="198" y="285" type="line"/>
      <point x="222" y="281" type="line"/>
      <point x="431" y="281" type="line"/>
      <point x="458" y="285" type="line"/>
      <point x="587" y="285" type="line"/>
      <point x="551" y="180" type="line"/>
    </contour>
    <contour>
      <point x="619" y="699" type="line"/>
      <point x="741" y="699" type="line"/>
      <point x="339" y="0" type="line"/>
      <point x="221" y="0" type="line"/>
      <point x="351" y="225" type="line"/>
      <point x="369" y="248" type="line"/>
      <point x="488" y="457" type="line"/>
      <point x="498" y="485" type="line"/>
    </contour>
    <contour>
      <point x="402" y="699" type="line"/>
      <point x="521" y="699" type="line"/>
      <point x="398" y="487" type="line"/>
      <point x="378" y="459" type="line"/>
      <point x="259" y="249" type="line"/>
      <point x="250" y="226" type="line"/>
      <point x="120" y="0" type="line"/>
      <point x="5" y="0" type="line"/>
    </contour>
  </outline>
</glyph>
<glyph name="dollar" format="1">
  <advance width="573"/>
  <unicode hex="0024"/>
  <outline>
    <contour>
      <point x="462" y="817" type="line"/>
      <point x="570" y="817" type="line"/>
      <point x="511" y="646" type="line"/>
      <point x="412" y="646" type="line"/>
    </contour>
    <contour>
      <point x="233" y="57" type="line"/>
      <point x="331" y="57" type="line"/>
      <point x="281" y="-111" type="line"/>
      <point x="174" y="-111" type="line"/>
    </contour>
    <contour>
      <point x="544" y="496" type="line"/>
      <point x="531" y="543"/>
      <point x="512" y="595"/>
      <point x="455" y="596" type="curve" smooth="yes"/>
      <point x="410" y="597"/>
      <point x="359" y="568"/>
      <point x="344" y="524" type="curve" smooth="yes"/>
      <point x="319" y="456"/>
      <point x="406" y="431"/>
      <point x="452" y="409" type="curve" smooth="yes"/>
      <point x="539" y="368"/>
      <point x="588" y="290"/>
      <point x="562" y="194" type="curve" smooth="yes"/>
      <point x="527" y="65"/>
      <point x="395" y="-10"/>
      <point x="266" y="-9" type="curve" smooth="yes"/>
      <point x="152" y="-8"/>
      <point x="82" y="71"/>
      <point x="54" y="174" type="curve"/>
      <point x="172" y="244" type="line"/>
      <point x="188" y="180"/>
      <point x="215" y="111"/>
      <point x="293" y="111" type="curve" smooth="yes"/>
      <point x="343" y="111"/>
      <point x="397" y="143"/>
      <point x="413" y="192" type="curve" smooth="yes"/>
      <point x="435" y="258"/>
      <point x="364" y="289"/>
      <point x="316" y="312" type="curve" smooth="yes"/>
      <point x="230" y="353"/>
      <point x="171" y="428"/>
      <point x="199" y="527" type="curve" smooth="yes"/>
      <point x="231" y="640"/>
      <point x="359" y="709"/>
      <point x="471" y="709" type="curve" smooth="yes"/>
      <point x="572" y="709"/>
      <point x="635" y="650"/>
      <point x="666" y="559" type="curve"/>
    </contour>
  </outline>
</glyph>
<glyph name="percent" format="1">
  <advance width="868"/>
  <unicode hex="0025"/>
  <outline>
    <contour>
      <point x="121" y="539" type="curve" smooth="yes"/>
      <point x="138" y="637"/>
      <point x="228" y="717"/>
      <point x="332" y="717" type="curve" smooth="yes"/>
      <point x="436" y="717"/>
      <point x="498" y="637"/>
      <point x="481" y="539" type="curve" smooth="yes"/>
      <point x="464" y="441"/>
      <point x="374" y="362"/>
      <point x="270" y="362" type="curve" smooth="yes"/>
      <point x="166" y="362"/>
      <point x="104" y="441"/>
    </contour>
    <contour>
      <point x="229" y="539" type="curve" smooth="yes"/>
      <point x="222" y="499"/>
      <point x="245" y="464"/>
      <point x="288" y="464" type="curve" smooth="yes"/>
      <point x="331" y="464"/>
      <point x="365" y="499"/>
      <point x="372" y="539" type="curve" smooth="yes"/>
      <point x="379" y="579"/>
      <point x="357" y="614"/>
      <point x="314" y="614" type="curve" smooth="yes"/>
      <point x="271" y="614"/>
      <point x="236" y="579"/>
    </contour>
    <contour>
      <point x="512" y="161" type="curve" smooth="yes"/>
      <point x="529" y="259"/>
      <point x="619" y="338"/>
      <point x="723" y="338" type="curve" smooth="yes"/>
      <point x="827" y="338"/>
      <point x="887" y="259"/>
      <point x="870" y="161" type="curve" smooth="yes"/>
      <point x="853" y="63"/>
      <point x="764" y="-16"/>
      <point x="660" y="-16" type="curve" smooth="yes"/>
      <point x="556" y="-16"/>
      <point x="495" y="63"/>
    </contour>
    <contour>
      <point x="620" y="161" type="curve" smooth="yes"/>
      <point x="613" y="121"/>
      <point x="635" y="86"/>
      <point x="678" y="86" type="curve" smooth="yes"/>
      <point x="721" y="86"/>
      <point x="755" y="121"/>
      <point x="762" y="161" type="curve" smooth="yes"/>
      <point x="769" y="201"/>
      <point x="748" y="236"/>
      <point x="705" y="236" type="curve" smooth="yes"/>
      <point x="662" y="236"/>
      <point x="627" y="201"/>
    </contour>
    <contour>
      <point x="747" y="700" type="line"/>
      <point x="879" y="700" type="line"/>
      <point x="244" y="0" type="line"/>
      <point x="113" y="0" type="line"/>
    </contour>
  </outline>
</glyph>
<glyph name="ampersand" format="1">
  <advance width="687"/>
  <unicode hex="0026"/>
  <outline>
    <contour>
      <point x="294" y="375" type="line" smooth="yes"/>
      <point x="264" y="429"/>
      <point x="231" y="483"/>
      <point x="248" y="548" type="curve" smooth="yes"/>
      <point x="274" y="648"/>
      <point x="386" y="716"/>
      <point x="486" y="715" type="curve" smooth="yes"/>
      <point x="579" y="714"/>
      <point x="651" y="643"/>
      <point x="626" y="548" type="curve" smooth="yes"/>
      <point x="601" y="451"/>
      <point x="497" y="394"/>
      <point x="415" y="351" type="curve" smooth="yes"/>
      <point x="342" y="313"/>
      <point x="223" y="286"/>
      <point x="196" y="197" type="curve" smooth="yes"/>
      <point x="179" y="142"/>
      <point x="214" y="105"/>
      <point x="268" y="102" type="curve" smooth="yes"/>
      <point x="412" y="92"/>
      <point x="541" y="242"/>
      <point x="633" y="333" type="curve"/>
      <point x="706" y="264" type="line"/>
      <point x="583" y="137"/>
      <point x="422" y="-15"/>
      <point x="233" y="-12" type="curve" smooth="yes"/>
      <point x="121" y="-10"/>
      <point x="26" y="68"/>
      <point x="58" y="187" type="curve" smooth="yes"/>
      <point x="95" y="323"/>
      <point x="238" y="367"/>
      <point x="352" y="419" type="curve" smooth="yes"/>
      <point x="403" y="443"/>
      <point x="490" y="479"/>
      <point x="506" y="540" type="curve" smooth="yes"/>
      <point x="514" y="572"/>
      <point x="500" y="606"/>
      <point x="460" y="607" type="curve" smooth="yes"/>
      <point x="422" y="608"/>
      <point x="383" y="579"/>
      <point x="371" y="540" type="curve" smooth="yes"/>
      <point x="355" y="492"/>
      <point x="390" y="446"/>
      <point x="411" y="407" type="curve" smooth="yes"/>
      <point x="634" y="0" type="line"/>
      <point x="499" y="0" type="line"/>
    </contour>
  </outline>
</glyph>
<glyph name="quotesingle" format="1">
  <advance width="283"/>
  <unicode hex="0027"/>
  <outline>
    <contour>
      <point x="283" y="699" type="line"/>
      <point x="427" y="699" type="line"/>
      <point x="233" y="388" type="line"/>
      <point x="144" y="387" type="line"/>
    </contour>
  </outline>
</glyph>
<glyph name="parenleft" format="1">
  <advance width="312"/>
  <unicode hex="0028"/>
  <outline>
    <contour>
      <point x="382" y="778" type="curve"/>
      <point x="502" y="778" type="line"/>
      <point x="397" y="627"/>
      <point x="307" y="466"/>
      <point x="252" y="290" type="curve" smooth="yes"/>
      <point x="202" y="131"/>
      <point x="180" y="-35"/>
      <point x="203" y="-201" type="curve"/>
      <point x="90" y="-201" type="line"/>
      <point x="60" y="-36"/>
      <point x="75" y="131"/>
      <point x="123" y="290" type="curve" smooth="yes"/>
      <point x="177" y="468"/>
      <point x="266" y="633"/>
    </contour>
  </outline>
</glyph>
<glyph name="parenright" format="1">
  <advance width="312"/>
  <unicode hex="0029"/>
  <outline>
    <contour>
      <point x="41" y="-198" type="curve"/>
      <point x="-78" y="-198" type="line"/>
      <point x="27" y="-47"/>
      <point x="116" y="114"/>
      <point x="171" y="290" type="curve" smooth="yes"/>
      <point x="221" y="449"/>
      <point x="243" y="615"/>
      <point x="220" y="781" type="curve"/>
      <point x="333" y="781" type="line"/>
      <point x="363" y="616"/>
      <point x="349" y="449"/>
      <point x="301" y="290" type="curve" smooth="yes"/>
      <point x="247" y="112"/>
      <point x="157" y="-53"/>
    </contour>
  </outline>
</glyph>
<glyph name="asterisk" format="1">
  <advance width="557"/>
  <unicode hex="002A"/>
  <outline>
    <contour>
      <point x="610" y="602" type="line"/>
      <point x="609" y="486" type="line"/>
      <point x="385" y="443" type="line"/>
      <point x="386" y="510" type="line"/>
    </contour>
    <contour>
      <point x="508" y="326" type="line"/>
      <point x="393" y="256" type="line"/>
      <point x="354" y="461" type="line"/>
      <point x="412" y="495" type="line"/>
    </contour>
    <contour>
      <point x="240" y="260" type="line"/>
      <point x="165" y="336" type="line"/>
      <point x="363" y="494" type="line"/>
      <point x="407" y="452" type="line"/>
    </contour>
    <contour>
      <point x="172" y="490" type="line"/>
      <point x="241" y="600" type="line"/>
      <point x="410" y="504" type="line"/>
      <point x="371" y="445" type="line"/>
    </contour>
    <contour>
      <point x="404" y="699" type="line"/>
      <point x="524" y="699" type="line"/>
      <point x="420" y="476" type="line"/>
      <point x="355" y="476" type="line"/>
    </contour>
  </outline>
</glyph>
<glyph name="plus" format="1">
  <advance width="618"/>
  <unicode hex="002B"/>
  <outline>
    <contour>
      <point x="74" y="202" type="line"/>
      <point x="118" y="329" type="line"/>
      <point x="620" y="329" type="line"/>
      <point x="575" y="201" type="line"/>
    </contour>
    <contour>
      <point x="369" y="529" type="line"/>
      <point x="505" y="530" type="line"/>
      <point x="321" y="1" type="line"/>
      <point x="189" y="1" type="line"/>
    </contour>
  </outline>
</glyph>
<glyph name="comma" format="1">
  <advance width="299"/>
  <unicode hex="002C"/>
  <outline>
    <contour>
      <point x="99" y="108" type="line"/>
      <point x="222" y="74" type="line"/>
      <point x="23" y="-170" type="line"/>
      <point x="-72" y="-146" type="line"/>
    </contour>
  </outline>
</glyph>
<glyph name="hyphen" format="1">
  <advance width="205"/>
  <unicode hex="002D"/>
  <outline>
    <contour>
      <point x="10" y="180" type="line"/>
      <point x="50" y="295" type="line"/>
      <point x="252" y="295" type="line"/>
      <point x="211" y="180" type="line"/>
    </contour>
  </outline>
</glyph>
<glyph name="period" format="1">
  <advance width="297"/>
  <unicode hex="002E"/>
  <outline>
    <contour>
      <point x="36" y="60" type="curve" smooth="yes"/>
      <point x="36" y="105"/>
      <point x="72" y="142"/>
      <point x="120" y="142" type="curve" smooth="yes"/>
      <point x="168" y="142"/>
      <point x="203" y="105"/>
      <point x="203" y="60" type="curve" smooth="yes"/>
      <point x="203" y="15"/>
      <point x="168" y="-21"/>
      <point x="120" y="-21" type="curve" smooth="yes"/>
      <point x="72" y="-21"/>
      <point x="36" y="15"/>
    </contour>
  </outline>
</glyph>
<glyph name="slash" format="1">
  <advance width="580"/>
  <unicode hex="002F"/>
  <outline>
    <contour>
      <point x="563" y="700" type="line"/>
      <point x="689" y="700" type="line"/>
      <point x="120" y="-150" type="line"/>
      <point x="-11" y="-150" type="line"/>
    </contour>
  </outline>
</glyph>
<glyph name="zero" format="1">
  <advance width="606"/>
  <unicode hex="0030"/>
  <outline>
    <contour>
      <point x="238" y="350" type="curve" smooth="yes"/>
      <point x="215" y="287"/>
      <point x="169" y="120"/>
      <point x="281" y="116" type="curve" smooth="yes"/>
      <point x="394" y="112"/>
      <point x="468" y="261"/>
      <point x="500" y="350" type="curve" smooth="yes"/>
      <point x="523" y="413"/>
      <point x="569" y="580"/>
      <point x="457" y="584" type="curve" smooth="yes"/>
      <point x="344" y="588"/>
      <point x="270" y="439"/>
    </contour>
    <contour>
      <point x="101" y="350" type="curve" smooth="yes"/>
      <point x="155" y="516"/>
      <point x="290" y="713"/>
      <point x="484" y="712" type="curve" smooth="yes"/>
      <point x="683" y="711"/>
      <point x="684" y="492"/>
      <point x="638" y="350" type="curve" smooth="yes"/>
      <point x="584" y="183"/>
      <point x="449" y="-13"/>
      <point x="254" y="-12" type="curve" smooth="yes"/>
      <point x="57" y="-11"/>
      <point x="55" y="209"/>
    </contour>
  </outline>
</glyph>
<glyph name="one" format="1">
  <advance width="463"/>
  <unicode hex="0031"/>
  <outline>
    <contour>
      <point x="184" y="513" type="line"/>
      <point x="232" y="648" type="line"/>
      <point x="552" y="714" type="line"/>
      <point x="306" y="0" type="line"/>
      <point x="168" y="0" type="line"/>
      <point x="359" y="555" type="line"/>
    </contour>
  </outline>
</glyph>
<glyph name="two" format="1">
  <advance width="595"/>
  <unicode hex="0032"/>
  <outline>
    <contour>
      <point x="-20" y="0" type="line"/>
      <point x="378" y="331" type="line" smooth="yes"/>
      <point x="428" y="372"/>
      <point x="494" y="422"/>
      <point x="513" y="488" type="curve" smooth="yes"/>
      <point x="527" y="537"/>
      <point x="505" y="582"/>
      <point x="451" y="584" type="curve" smooth="yes"/>
      <point x="372" y="587"/>
      <point x="323" y="509"/>
      <point x="295" y="447" type="curve"/>
      <point x="155" y="447" type="line"/>
      <point x="204" y="588"/>
      <point x="318" y="714"/>
      <point x="478" y="713" type="curve" smooth="yes"/>
      <point x="598" y="712"/>
      <point x="695" y="619"/>
      <point x="661" y="496" type="curve" smooth="yes"/>
      <point x="639" y="416"/>
      <point x="577" y="351"/>
      <point x="513" y="302" type="curve" smooth="yes"/>
      <point x="293" y="136" type="line"/>
      <point x="563" y="135" type="line"/>
      <point x="521" y="0" type="line"/>
    </contour>
  </outline>
</glyph>
<glyph name="three" format="1">
  <advance width="598"/>
  <unicode hex="0033"/>
  <outline>
    <contour>
      <point x="328" y="340" type="curve"/>
      <point x="340" y="410" type="line"/>
      <point x="422" y="410"/>
      <point x="481" y="457"/>
      <point x="491" y="512" type="curve" smooth="yes"/>
      <point x="499" y="560"/>
      <point x="477" y="594"/>
      <point x="419" y="594" type="curve" smooth="yes"/>
      <point x="363" y="594"/>
      <point x="313" y="556"/>
      <point x="304" y="504" type="curve"/>
      <point x="171" y="504" type="line"/>
      <point x="192" y="624"/>
      <point x="300" y="712"/>
      <point x="440" y="712" type="curve" smooth="yes"/>
      <point x="586" y="712"/>
      <point x="655" y="626"/>
      <point x="636" y="520" type="curve" smooth="yes"/>
      <point x="616" y="406"/>
      <point x="485" y="340"/>
    </contour>
    <contour>
      <point x="306" y="-14" type="curve" smooth="yes"/>
      <point x="146" y="-14"/>
      <point x="68" y="91"/>
      <point x="89" y="211" type="curve"/>
      <point x="231" y="211" type="line"/>
      <point x="219" y="143"/>
      <point x="267" y="105"/>
      <point x="331" y="105" type="curve" smooth="yes"/>
      <point x="395" y="105"/>
      <point x="446" y="139"/>
      <point x="457" y="204" type="curve" smooth="yes"/>
      <point x="469" y="270"/>
      <point x="421" y="312"/>
      <point x="323" y="312" type="curve"/>
      <point x="336" y="388" type="line"/>
      <point x="506" y="388"/>
      <point x="623" y="331"/>
      <point x="598" y="190" type="curve" smooth="yes"/>
      <point x="577" y="69"/>
      <point x="464" y="-14"/>
    </contour>
  </outline>
</glyph>
<glyph name="four" format="1">
  <advance width="627"/>
  <unicode hex="0034"/>
  <outline>
    <contour>
      <point x="0" y="130" type="line"/>
      <point x="571" y="698" type="line"/>
      <point x="674" y="699" type="line"/>
      <point x="435" y="0" type="line"/>
      <point x="288" y="0" type="line"/>
      <point x="348" y="176" type="line"/>
      <point x="365" y="187" type="line"/>
      <point x="459" y="455" type="line"/>
      <point x="238" y="239" type="line"/>
      <point x="459" y="238" type="line"/>
      <point x="480" y="254" type="line"/>
      <point x="627" y="254" type="line"/>
      <point x="583" y="129" type="line"/>
    </contour>
  </outline>
</glyph>
<glyph name="five" format="1">
  <advance width="585"/>
  <unicode hex="0035"/>
  <outline>
    <contour>
      <point x="586" y="225" type="curve" smooth="yes"/>
      <point x="547" y="84"/>
      <point x="407" y="-11"/>
      <point x="263" y="-12" type="curve" smooth="yes"/>
      <point x="165" y="-12"/>
      <point x="88" y="31"/>
      <point x="30" y="96" type="curve"/>
      <point x="125" y="208" type="line"/>
      <point x="157" y="161"/>
      <point x="199" y="124"/>
      <point x="263" y="123" type="curve" smooth="yes"/>
      <point x="336" y="122"/>
      <point x="415" y="168"/>
      <point x="438" y="240" type="curve" smooth="yes"/>
      <point x="458" y="306"/>
      <point x="412" y="350"/>
      <point x="348" y="353" type="curve" smooth="yes"/>
      <point x="278" y="356"/>
      <point x="210" y="330"/>
      <point x="146" y="306" type="curve"/>
      <point x="354" y="700" type="line"/>
      <point x="723" y="700" type="line"/>
      <point x="682" y="573" type="line"/>
      <point x="425" y="573" type="line"/>
      <point x="334" y="431" type="line"/>
      <point x="370" y="445"/>
      <point x="409" y="455"/>
      <point x="448" y="455" type="curve" smooth="yes"/>
      <point x="574" y="453"/>
      <point x="616" y="332"/>
    </contour>
  </outline>
</glyph>
<glyph name="six" format="1">
  <advance width="605"/>
  <unicode hex="0036"/>
  <outline>
    <contour>
      <point x="223" y="241" type="curve" smooth="yes"/>
      <point x="203" y="181"/>
      <point x="226" y="114"/>
      <point x="297" y="113" type="curve" smooth="yes"/>
      <point x="371" y="112"/>
      <point x="441" y="175"/>
      <point x="464" y="242" type="curve" smooth="yes"/>
      <point x="484" y="301"/>
      <point x="461" y="371"/>
      <point x="390" y="372" type="curve" smooth="yes"/>
      <point x="316" y="373"/>
      <point x="246" y="308"/>
    </contour>
    <contour>
      <point x="487" y="697" type="line"/>
      <point x="675" y="697" type="line"/>
      <point x="381" y="437" type="line"/>
      <point x="347" y="429" type="line"/>
      <point x="382" y="451"/>
      <point x="419" y="469"/>
      <point x="461" y="468" type="curve" smooth="yes"/>
      <point x="583" y="466"/>
      <point x="630" y="346"/>
      <point x="601" y="241" type="curve" smooth="yes"/>
      <point x="562" y="97"/>
      <point x="422" y="-14"/>
      <point x="272" y="-14" type="curve" smooth="yes"/>
      <point x="127" y="-14"/>
      <point x="46" y="103"/>
      <point x="85" y="241" type="curve" smooth="yes"/>
      <point x="105" y="312"/>
      <point x="153" y="372"/>
      <point x="204" y="423" type="curve" smooth="yes"/>
    </contour>
  </outline>
</glyph>
<glyph name="seven" format="1">
  <advance width="546"/>
  <unicode hex="0037"/>
  <outline>
    <contour>
      <point x="164" y="563" type="line"/>
      <point x="208" y="700" type="line"/>
      <point x="732" y="699" type="line"/>
      <point x="198" y="0" type="line"/>
      <point x="39" y="0" type="line"/>
      <point x="476" y="563" type="line"/>
    </contour>
  </outline>
</glyph>
<glyph name="eight" format="1">
  <advance width="568"/>
  <unicode hex="0038"/>
  <outline>
    <contour>
      <point x="198" y="532" type="curve" smooth="yes"/>
      <point x="232" y="643"/>
      <point x="353" y="715"/>
      <point x="465" y="714" type="curve" smooth="yes"/>
      <point x="569" y="713"/>
      <point x="657" y="640"/>
      <point x="625" y="530" type="curve" smooth="yes"/>
      <point x="592" y="417"/>
      <point x="470" y="346"/>
      <point x="357" y="346" type="curve" smooth="yes"/>
      <point x="251" y="346"/>
      <point x="165" y="421"/>
    </contour>
    <contour>
      <point x="325" y="516" type="curve" smooth="yes"/>
      <point x="312" y="478"/>
      <point x="324" y="430"/>
      <point x="370" y="429" type="curve" smooth="yes"/>
      <point x="422" y="428"/>
      <point x="473" y="474"/>
      <point x="489" y="517" type="curve" smooth="yes"/>
      <point x="503" y="556"/>
      <point x="490" y="603"/>
      <point x="443" y="604" type="curve" smooth="yes"/>
      <point x="389" y="605"/>
      <point x="341" y="560"/>
    </contour>
    <contour>
      <point x="58" y="191" type="curve" smooth="yes"/>
      <point x="95" y="315"/>
      <point x="230" y="395"/>
      <point x="356" y="394" type="curve" smooth="yes"/>
      <point x="472" y="394"/>
      <point x="570" y="312"/>
      <point x="533" y="189" type="curve" smooth="yes"/>
      <point x="496" y="66"/>
      <point x="358" y="-15"/>
      <point x="234" y="-14" type="curve" smooth="yes"/>
      <point x="119" y="-13"/>
      <point x="22" y="71"/>
    </contour>
    <contour>
      <point x="204" y="210" type="curve" smooth="yes"/>
      <point x="186" y="162"/>
      <point x="203" y="108"/>
      <point x="260" y="107" type="curve" smooth="yes"/>
      <point x="323" y="106"/>
      <point x="383" y="158"/>
      <point x="402" y="212" type="curve" smooth="yes"/>
      <point x="418" y="258"/>
      <point x="398" y="313"/>
      <point x="344" y="314" type="curve" smooth="yes"/>
      <point x="282" y="315"/>
      <point x="224" y="261"/>
    </contour>
  </outline>
</glyph>
<glyph name="nine" format="1">
  <advance width="605"/>
  <unicode hex="0039"/>
  <outline>
    <contour>
      <point x="530" y="459" type="curve" smooth="yes"/>
      <point x="550" y="519"/>
      <point x="528" y="586"/>
      <point x="457" y="587" type="curve" smooth="yes"/>
      <point x="383" y="588"/>
      <point x="313" y="525"/>
      <point x="290" y="458" type="curve" smooth="yes"/>
      <point x="270" y="399"/>
      <point x="292" y="329"/>
      <point x="363" y="328" type="curve" smooth="yes"/>
      <point x="437" y="327"/>
      <point x="507" y="392"/>
    </contour>
    <contour>
      <point x="266" y="3" type="line"/>
      <point x="78" y="3" type="line"/>
      <point x="373" y="263" type="line"/>
      <point x="406" y="271" type="line"/>
      <point x="371" y="249"/>
      <point x="334" y="231"/>
      <point x="292" y="232" type="curve" smooth="yes"/>
      <point x="170" y="234"/>
      <point x="123" y="354"/>
      <point x="152" y="459" type="curve" smooth="yes"/>
      <point x="191" y="603"/>
      <point x="331" y="714"/>
      <point x="481" y="714" type="curve" smooth="yes"/>
      <point x="626" y="714"/>
      <point x="707" y="597"/>
      <point x="668" y="459" type="curve" smooth="yes"/>
      <point x="648" y="388"/>
      <point x="600" y="328"/>
      <point x="549" y="277" type="curve" smooth="yes"/>
    </contour>
  </outline>
</glyph>
<glyph name="colon" format="1">
  <advance width="315"/>
  <unicode hex="003A"/>
  <outline>
    <contour>
      <point x="87" y="60" type="curve" smooth="yes"/>
      <point x="95" y="104"/>
      <point x="135" y="140"/>
      <point x="183" y="140" type="curve" smooth="yes"/>
      <point x="231" y="140"/>
      <point x="259" y="104"/>
      <point x="251" y="60" type="curve" smooth="yes"/>
      <point x="243" y="16"/>
      <point x="202" y="-22"/>
      <point x="154" y="-22" type="curve" smooth="yes"/>
      <point x="106" y="-22"/>
      <point x="79" y="16"/>
    </contour>
    <contour>
      <point x="153" y="436" type="curve" smooth="yes"/>
      <point x="161" y="480"/>
      <point x="201" y="516"/>
      <point x="249" y="516" type="curve" smooth="yes"/>
      <point x="297" y="516"/>
      <point x="325" y="480"/>
      <point x="317" y="436" type="curve" smooth="yes"/>
      <point x="309" y="392"/>
      <point x="268" y="354"/>
      <point x="220" y="354" type="curve" smooth="yes"/>
      <point x="172" y="354"/>
      <point x="145" y="392"/>
    </contour>
  </outline>
</glyph>
<glyph name="semicolon" format="1">
  <advance width="353"/>
  <unicode hex="003B"/>
  <outline>
    <contour>
      <point x="202" y="431" type="curve" smooth="yes"/>
      <point x="202" y="476"/>
      <point x="237" y="513"/>
      <point x="285" y="513" type="curve" smooth="yes"/>
      <point x="333" y="513"/>
      <point x="369" y="476"/>
      <point x="369" y="431" type="curve" smooth="yes"/>
      <point x="369" y="386"/>
      <point x="333" y="349"/>
      <point x="285" y="349" type="curve" smooth="yes"/>
      <point x="237" y="349"/>
      <point x="202" y="386"/>
    </contour>
    <contour>
      <point x="114" y="108" type="line"/>
      <point x="236" y="74" type="line"/>
      <point x="38" y="-170" type="line"/>
      <point x="-57" y="-146" type="line"/>
    </contour>
  </outline>
</glyph>
<glyph name="less" format="1">
  <advance width="602"/>
  <unicode hex="003C"/>
  <outline>
    <contour>
      <point x="279" y="258" type="line"/>
      <point x="535" y="125" type="line"/>
      <point x="491" y="6" type="line"/>
      <point x="80" y="222" type="line"/>
      <point x="110" y="307" type="line"/>
      <point x="670" y="524" type="line"/>
      <point x="622" y="384" type="line"/>
    </contour>
  </outline>
</glyph>
<glyph name="equal" format="1">
  <advance width="585"/>
  <unicode hex="003D"/>
  <outline>
    <contour>
      <point x="33" y="100" type="line"/>
      <point x="73" y="215" type="line"/>
      <point x="555" y="215" type="line"/>
      <point x="514" y="99" type="line"/>
    </contour>
    <contour>
      <point x="98" y="291" type="line"/>
      <point x="138" y="406" type="line"/>
      <point x="620" y="406" type="line"/>
      <point x="580" y="290" type="line"/>
    </contour>
  </outline>
</glyph>
<glyph name="greater" format="1">
  <advance width="602"/>
  <unicode hex="003E"/>
  <outline>
    <contour>
      <point x="393" y="266" type="line"/>
      <point x="139" y="399" type="line"/>
      <point x="182" y="518" type="line"/>
      <point x="592" y="302" type="line"/>
      <point x="563" y="217" type="line"/>
      <point x="3" y="-0" type="line"/>
      <point x="50" y="140" type="line"/>
    </contour>
  </outline>
</glyph>
<glyph name="question" format="1">
  <advance width="571"/>
  <unicode hex="003F"/>
  <outline>
    <contour>
      <point x="510" y="500" type="curve" smooth="yes"/>
      <point x="531" y="558"/>
      <point x="499" y="601"/>
      <point x="439" y="602" type="curve" smooth="yes"/>
      <point x="372" y="604"/>
      <point x="312" y="559"/>
      <point x="264" y="518" type="curve"/>
      <point x="193" y="594" type="line"/>
      <point x="271" y="661"/>
      <point x="364" y="718"/>
      <point x="471" y="716" type="curve" smooth="yes"/>
      <point x="592" y="714"/>
      <point x="676" y="619"/>
      <point x="639" y="499" type="curve" smooth="yes"/>
      <point x="602" y="379"/>
      <point x="486" y="312"/>
      <point x="370" y="286" type="curve"/>
      <point x="330" y="193" type="line"/>
      <point x="224" y="193" type="line"/>
      <point x="263" y="370" type="line"/>
      <point x="290" y="370" type="line"/>
      <point x="372" y="374"/>
      <point x="480" y="416"/>
    </contour>
    <contour>
      <point x="144" y="55" type="curve" smooth="yes"/>
      <point x="144" y="97"/>
      <point x="181" y="128"/>
      <point x="225" y="128" type="curve" smooth="yes"/>
      <point x="270" y="128"/>
      <point x="306" y="96"/>
      <point x="306" y="55" type="curve" smooth="yes"/>
      <point x="306" y="12"/>
      <point x="269" y="-21"/>
      <point x="225" y="-21" type="curve" smooth="yes"/>
      <point x="180" y="-21"/>
      <point x="144" y="12"/>
    </contour>
  </outline>
</glyph>
<glyph name="at" format="1">
  <advance width="724"/>
  <unicode hex="0040"/>
  <outline>
    <contour>
      <point x="339" y="320" type="curve" smooth="yes"/>
      <point x="330" y="294"/>
      <point x="327" y="253"/>
      <point x="361" y="247" type="curve" smooth="yes"/>
      <point x="414" y="237"/>
      <point x="473" y="323"/>
      <point x="488" y="366" type="curve" smooth="yes"/>
      <point x="497" y="392"/>
      <point x="499" y="434"/>
      <point x="464" y="439" type="curve" smooth="yes"/>
      <point x="411" y="448"/>
      <point x="354" y="362"/>
    </contour>
    <contour>
      <point x="234" y="315" type="curve" smooth="yes"/>
      <point x="261" y="408"/>
      <point x="353" y="534"/>
      <point x="462" y="529" type="curve" smooth="yes"/>
      <point x="547" y="526"/>
      <point x="552" y="432"/>
      <point x="533" y="369" type="curve" smooth="yes"/>
      <point x="506" y="276"/>
      <point x="424" y="155"/>
      <point x="315" y="156" type="curve" smooth="yes"/>
      <point x="226" y="157"/>
      <point x="213" y="245"/>
    </contour>
    <contour>
      <point x="75" y="320" type="curve" smooth="yes"/>
      <point x="141" y="527"/>
      <point x="345" y="720"/>
      <point x="572" y="719" type="curve" smooth="yes"/>
      <point x="759" y="718"/>
      <point x="836" y="552"/>
      <point x="784" y="390" type="curve" smooth="yes"/>
      <point x="750" y="284"/>
      <point x="657" y="138"/>
      <point x="529" y="145" type="curve" smooth="yes"/>
      <point x="454" y="149"/>
      <point x="453" y="208"/>
      <point x="462" y="266" type="curve"/>
      <point x="458" y="289" type="line"/>
      <point x="561" y="519" type="line"/>
      <point x="663" y="519" type="line"/>
      <point x="559" y="303" type="line" smooth="yes"/>
      <point x="555" y="294"/>
      <point x="550" y="285"/>
      <point x="547" y="276" type="curve" smooth="yes"/>
      <point x="543" y="262"/>
      <point x="539" y="241"/>
      <point x="557" y="235" type="curve" smooth="yes"/>
      <point x="613" y="215"/>
      <point x="672" y="352"/>
      <point x="686" y="390" type="curve" smooth="yes"/>
      <point x="727" y="501"/>
      <point x="699" y="626"/>
      <point x="559" y="628" type="curve" smooth="yes"/>
      <point x="382" y="630"/>
      <point x="229" y="476"/>
      <point x="173" y="320" type="curve" smooth="yes"/>
      <point x="128" y="195"/>
      <point x="165" y="74"/>
      <point x="313" y="70" type="curve" smooth="yes"/>
      <point x="382" y="68"/>
      <point x="448" y="91"/>
      <point x="511" y="115" type="curve"/>
      <point x="524" y="32" type="line"/>
      <point x="450" y="-1"/>
      <point x="372" y="-22"/>
      <point x="291" y="-21" type="curve" smooth="yes"/>
      <point x="94" y="-18"/>
      <point x="19" y="145"/>
    </contour>
  </outline>
</glyph>
<glyph name="B" format="1">
  <advance width="597"/>
  <unicode hex="0042"/>
  <outline>
    <contour>
      <point x="239" y="355" type="line"/>
      <point x="262" y="420" type="line"/>
      <point x="363" y="421" type="line" smooth="yes"/>
      <point x="415" y="422"/>
      <point x="473" y="451"/>
      <point x="492" y="504" type="curve" smooth="yes"/>
      <point x="509" y="553"/>
      <point x="479" y="583"/>
      <point x="433" y="584" type="curve" smooth="yes"/>
      <point x="358" y="584" type="line"/>
      <point x="195" y="115" type="line"/>
      <point x="272" y="116" type="line" smooth="yes"/>
      <point x="337" y="117"/>
      <point x="410" y="152"/>
      <point x="433" y="218" type="curve" smooth="yes"/>
      <point x="454" y="280"/>
      <point x="411" y="313"/>
      <point x="354" y="314" type="curve" smooth="yes"/>
      <point x="225" y="315" type="line"/>
      <point x="253" y="394" type="line"/>
      <point x="380" y="395" type="line" smooth="yes"/>
      <point x="495" y="393"/>
      <point x="609" y="330"/>
      <point x="571" y="198" type="curve" smooth="yes"/>
      <point x="531" y="62"/>
      <point x="393" y="0"/>
      <point x="262" y="0" type="curve" smooth="yes"/>
      <point x="14" y="0" type="line"/>
      <point x="254" y="700" type="line"/>
      <point x="469" y="700" type="line" smooth="yes"/>
      <point x="573" y="700"/>
      <point x="681" y="643"/>
      <point x="644" y="522" type="curve" smooth="yes"/>
      <point x="609" y="405"/>
      <point x="480" y="357"/>
      <point x="368" y="355" type="curve" smooth="yes"/>
    </contour>
  </outline>
</glyph>
<glyph name="D" format="1">
  <advance width="675"/>
  <unicode hex="0044"/>
  <outline>
    <contour>
      <point x="253" y="699" type="line"/>
      <point x="401" y="700" type="line"/>
      <point x="160" y="0" type="line"/>
      <point x="16" y="0" type="line"/>
    </contour>
    <contour>
      <point x="251" y="0" type="curve" smooth="yes"/>
      <point x="103" y="0" type="line"/>
      <point x="149" y="133" type="line"/>
      <point x="275" y="133" type="line" smooth="yes"/>
      <point x="408" y="133"/>
      <point x="518" y="226"/>
      <point x="564" y="350" type="curve" smooth="yes"/>
      <point x="606" y="462"/>
      <point x="566" y="568"/>
      <point x="439" y="568" type="curve" smooth="yes"/>
      <point x="296" y="568" type="line"/>
      <point x="343" y="700" type="line"/>
      <point x="472" y="700" type="line" smooth="yes"/>
      <point x="672" y="700"/>
      <point x="770" y="537"/>
      <point x="710" y="350" type="curve" smooth="yes"/>
      <point x="647" y="150"/>
      <point x="461" y="0"/>
    </contour>
  </outline>
</glyph>
<glyph name="F" format="1">
  <advance width="506"/>
  <unicode hex="0046"/>
  <outline>
    <contour>
      <point x="300" y="572" type="line"/>
      <point x="344" y="700" type="line"/>
      <point x="643" y="700" type="line"/>
      <point x="599" y="572" type="line"/>
    </contour>
    <contour>
      <point x="206" y="297" type="line"/>
      <point x="248" y="418" type="line"/>
      <point x="537" y="418" type="line"/>
      <point x="495" y="297" type="line"/>
    </contour>
    <contour>
      <point x="253" y="700" type="line"/>
      <point x="393" y="700" type="line"/>
      <point x="152" y="0" type="line"/>
      <point x="16" y="0" type="line"/>
    </contour>
  </outline>
</glyph>
<glyph name="G" format="1">
  <advance width="755"/>
  <unicode hex="0047"/>
  <outline>
    <contour>
      <point x="422" y="259" type="line"/>
      <point x="464" y="374" type="line"/>
      <point x="790" y="374" type="line"/>
      <point x="728" y="173"/>
      <point x="575" y="-19"/>
      <point x="340" y="-19" type="curve" smooth="yes"/>
      <point x="133" y="-19"/>
      <point x="37" y="167"/>
      <point x="96" y="350" type="curve" smooth="yes"/>
      <point x="160" y="550"/>
      <point x="357" y="714"/>
      <point x="572" y="715" type="curve" smooth="yes"/>
      <point x="688" y="716"/>
      <point x="772" y="655"/>
      <point x="819" y="551" type="curve"/>
      <point x="680" y="482" type="line"/>
      <point x="658" y="546"/>
      <point x="615" y="584"/>
      <point x="545" y="583" type="curve" smooth="yes"/>
      <point x="410" y="582"/>
      <point x="290" y="470"/>
      <point x="245" y="350" type="curve" smooth="yes"/>
      <point x="206" y="244"/>
      <point x="233" y="113"/>
      <point x="366" y="112" type="curve" smooth="yes"/>
      <point x="472" y="111"/>
      <point x="543" y="177"/>
      <point x="600" y="259" type="curve"/>
    </contour>
  </outline>
</glyph>
<glyph name="H" format="1">
  <advance width="721"/>
  <unicode hex="0048"/>
  <outline>
    <contour>
      <point x="164" y="306" type="line"/>
      <point x="209" y="438" type="line"/>
      <point x="700" y="438" type="line"/>
      <point x="654" y="306" type="line"/>
    </contour>
    <contour>
      <point x="695" y="699" type="line"/>
      <point x="840" y="700" type="line"/>
      <point x="598" y="0" type="line"/>
      <point x="458" y="0" type="line"/>
    </contour>
    <contour>
      <point x="253" y="699" type="line"/>
      <point x="397" y="700" type="line"/>
      <point x="156" y="0" type="line"/>
      <point x="16" y="0" type="line"/>
    </contour>
  </outline>
</glyph>
<glyph name="I" format="1">
  <advance width="281"/>
  <unicode hex="0049"/>
  <outline>
    <contour>
      <point x="253" y="700" type="line"/>
      <point x="399" y="700" type="line"/>
      <point x="158" y="0" type="line"/>
      <point x="16" y="0" type="line"/>
    </contour>
  </outline>
</glyph>
<glyph name="J" format="1">
  <advance width="303"/>
  <unicode hex="004A"/>
  <outline>
    <contour>
      <point x="-82" y="-68" type="line"/>
      <point x="-68" y="-88"/>
      <point x="-40" y="-102"/>
      <point x="-8" y="-102" type="curve" smooth="yes"/>
      <point x="22" y="-102"/>
      <point x="62" y="-80"/>
      <point x="73" y="-18" type="curve" smooth="yes"/>
      <point x="199" y="700" type="line"/>
      <point x="351" y="700" type="line"/>
      <point x="218" y="-56" type="line" smooth="yes"/>
      <point x="196" y="-182"/>
      <point x="95" y="-234"/>
      <point x="-21" y="-234" type="curve" smooth="yes"/>
      <point x="-91" y="-234"/>
      <point x="-151" y="-202"/>
      <point x="-179" y="-178" type="curve"/>
    </contour>
  </outline>
</glyph>
<glyph name="K" format="1">
  <advance width="623"/>
  <unicode hex="004B"/>
  <outline>
    <contour>
      <point x="253" y="700" type="line"/>
      <point x="401" y="700" type="line"/>
      <point x="160" y="0" type="line"/>
      <point x="16" y="0" type="line"/>
    </contour>
    <contour>
      <point x="624" y="699" type="line"/>
      <point x="802" y="699" type="line"/>
      <point x="409" y="366" type="line"/>
      <point x="566" y="0" type="line"/>
      <point x="406" y="0" type="line"/>
      <point x="244" y="375" type="line"/>
    </contour>
  </outline>
</glyph>
<glyph name="L" format="1">
  <advance width="476"/>
  <unicode hex="004C"/>
  <outline>
    <contour>
      <point x="254" y="700" type="line"/>
      <point x="397" y="700" type="line"/>
      <point x="201" y="128" type="line"/>
      <point x="464" y="128" type="line"/>
      <point x="419" y="0" type="line"/>
      <point x="14" y="0" type="line"/>
    </contour>
  </outline>
</glyph>
<glyph name="M" format="1">
  <advance width="817"/>
  <unicode hex="004D"/>
  <outline>
    <contour>
      <point x="302" y="387" type="line"/>
      <point x="126" y="0" type="line"/>
      <point x="-25" y="0" type="line"/>
      <point x="327" y="736" type="line"/>
      <point x="448" y="290" type="line"/>
      <point x="886" y="744" type="line"/>
      <point x="731" y="0" type="line"/>
      <point x="583" y="0" type="line"/>
      <point x="674" y="376" type="line"/>
      <point x="380" y="63" type="line"/>
    </contour>
  </outline>
</glyph>
<glyph name="N" format="1">
  <advance width="741"/>
  <unicode hex="004E"/>
  <outline>
    <contour>
      <point x="721" y="700" type="line"/>
      <point x="859" y="700" type="line"/>
      <point x="608" y="-32" type="line"/>
      <point x="300" y="430" type="line"/>
      <point x="152" y="0" type="line"/>
      <point x="13" y="0" type="line"/>
      <point x="265" y="732" type="line"/>
      <point x="572" y="270" type="line"/>
    </contour>
  </outline>
</glyph>
<glyph name="O" format="1">
  <advance width="811"/>
  <unicode hex="004F"/>
  <outline>
    <contour>
      <point x="250" y="350" type="curve" smooth="yes"/>
      <point x="226" y="216"/>
      <point x="299" y="120"/>
      <point x="427" y="120" type="curve" smooth="yes"/>
      <point x="555" y="120"/>
      <point x="662" y="216"/>
      <point x="686" y="350" type="curve" smooth="yes"/>
      <point x="710" y="484"/>
      <point x="639" y="580"/>
      <point x="508" y="580" type="curve" smooth="yes"/>
      <point x="380" y="580"/>
      <point x="274" y="484"/>
    </contour>
    <contour>
      <point x="98" y="350" type="curve" smooth="yes"/>
      <point x="135" y="562"/>
      <point x="321" y="714"/>
      <point x="532" y="714" type="curve" smooth="yes"/>
      <point x="744" y="714"/>
      <point x="875" y="562"/>
      <point x="838" y="350" type="curve" smooth="yes"/>
      <point x="801" y="138"/>
      <point x="618" y="-18"/>
      <point x="403" y="-18" type="curve" smooth="yes"/>
      <point x="188" y="-18"/>
      <point x="61" y="138"/>
    </contour>
  </outline>
</glyph>
<glyph name="P" format="1">
  <advance width="566"/>
  <unicode hex="0050"/>
  <outline>
    <contour>
      <point x="253" y="699" type="line"/>
      <point x="397" y="700" type="line"/>
      <point x="156" y="0" type="line"/>
      <point x="16" y="0" type="line"/>
    </contour>
    <contour>
      <point x="296" y="577" type="line"/>
      <point x="339" y="700" type="line"/>
      <point x="462" y="700" type="line"/>
      <point x="593" y="698"/>
      <point x="677" y="613"/>
      <point x="644" y="476" type="curve" smooth="yes"/>
      <point x="610" y="334"/>
      <point x="468" y="255"/>
      <point x="327" y="253" type="curve"/>
      <point x="184" y="253" type="line"/>
      <point x="228" y="376" type="line"/>
      <point x="352" y="376" type="line"/>
      <point x="416" y="378"/>
      <point x="483" y="413"/>
      <point x="507" y="477" type="curve" smooth="yes"/>
      <point x="529" y="537"/>
      <point x="494" y="576"/>
      <point x="436" y="577" type="curve" smooth="yes"/>
    </contour>
  </outline>
</glyph>
<glyph name="Q" format="1">
  <advance width="793"/>
  <unicode hex="0051"/>
  <outline>
    <contour>
      <point x="246" y="350" type="curve" smooth="yes"/>
      <point x="207" y="245"/>
      <point x="237" y="116"/>
      <point x="369" y="114" type="curve" smooth="yes"/>
      <point x="499" y="112"/>
      <point x="614" y="221"/>
      <point x="657" y="336" type="curve" smooth="yes"/>
      <point x="696" y="441"/>
      <point x="670" y="575"/>
      <point x="536" y="577" type="curve" smooth="yes"/>
      <point x="405" y="579"/>
      <point x="289" y="466"/>
    </contour>
    <contour>
      <point x="96" y="350" type="curve" smooth="yes"/>
      <point x="158" y="546"/>
      <point x="354" y="716"/>
      <point x="565" y="715" type="curve" smooth="yes"/>
      <point x="769" y="714"/>
      <point x="856" y="530"/>
      <point x="799" y="350" type="curve" smooth="yes"/>
      <point x="737" y="154"/>
      <point x="546" y="-20"/>
      <point x="333" y="-19" type="curve" smooth="yes"/>
      <point x="127" y="-18"/>
      <point x="39" y="169"/>
    </contour>
    <contour>
      <point x="394" y="300" type="line"/>
      <point x="533" y="300" type="line"/>
      <point x="736" y="-9" type="line"/>
      <point x="593" y="-9" type="line"/>
    </contour>
  </outline>
</glyph>
<glyph name="R" format="1">
  <advance width="586"/>
  <unicode hex="0052"/>
  <outline>
    <contour>
      <point x="281" y="325" type="line"/>
      <point x="422" y="325" type="line"/>
      <point x="524" y="0" type="line"/>
      <point x="368" y="0" type="line"/>
    </contour>
    <contour>
      <point x="253" y="700" type="line"/>
      <point x="397" y="700" type="line"/>
      <point x="156" y="0" type="line"/>
      <point x="16" y="0" type="line"/>
    </contour>
    <contour>
      <point x="296" y="574" type="line"/>
      <point x="339" y="700" type="line"/>
      <point x="471" y="700" type="line" smooth="yes"/>
      <point x="601" y="700"/>
      <point x="690" y="611"/>
      <point x="653" y="476" type="curve" smooth="yes"/>
      <point x="615" y="336"/>
      <point x="474" y="253"/>
      <point x="335" y="253" type="curve" smooth="yes"/>
      <point x="184" y="253" type="line"/>
      <point x="226" y="369" type="line"/>
      <point x="350" y="369" type="line" smooth="yes"/>
      <point x="415" y="369"/>
      <point x="482" y="408"/>
      <point x="506" y="472" type="curve" smooth="yes"/>
      <point x="528" y="531"/>
      <point x="494" y="574"/>
      <point x="435" y="574" type="curve" smooth="yes"/>
    </contour>
  </outline>
</glyph>
<glyph name="S" format="1">
  <advance width="568"/>
  <unicode hex="0053"/>
  <outline>
    <contour>
      <point x="157" y="244" type="line"/>
      <point x="171" y="181"/>
      <point x="194" y="111"/>
      <point x="272" y="111" type="curve" smooth="yes"/>
      <point x="323" y="110"/>
      <point x="377" y="142"/>
      <point x="396" y="191" type="curve" smooth="yes"/>
      <point x="421" y="257"/>
      <point x="352" y="289"/>
      <point x="304" y="312" type="curve" smooth="yes"/>
      <point x="218" y="353"/>
      <point x="161" y="423"/>
      <point x="191" y="522" type="curve" smooth="yes"/>
      <point x="227" y="641"/>
      <point x="356" y="714"/>
      <point x="476" y="714" type="curve" smooth="yes"/>
      <point x="577" y="714"/>
      <point x="636" y="651"/>
      <point x="661" y="559" type="curve"/>
      <point x="538" y="497" type="line"/>
      <point x="523" y="544"/>
      <point x="501" y="586"/>
      <point x="445" y="587" type="curve" smooth="yes"/>
      <point x="402" y="588"/>
      <point x="351" y="558"/>
      <point x="335" y="517" type="curve" smooth="yes"/>
      <point x="311" y="456"/>
      <point x="401" y="428"/>
      <point x="442" y="408" type="curve" smooth="yes"/>
      <point x="530" y="367"/>
      <point x="574" y="290"/>
      <point x="545" y="194" type="curve" smooth="yes"/>
      <point x="506" y="67"/>
      <point x="376" y="-19"/>
      <point x="245" y="-19" type="curve" smooth="yes"/>
      <point x="127" y="-19"/>
      <point x="57" y="65"/>
      <point x="36" y="174" type="curve"/>
    </contour>
  </outline>
</glyph>
<glyph name="T" format="1">
  <advance width="503"/>
  <unicode hex="0054"/>
  <outline>
    <contour>
      <point x="141" y="568" type="line"/>
      <point x="188" y="700" type="line"/>
      <point x="686" y="700" type="line"/>
      <point x="640" y="568" type="line"/>
      <point x="463" y="568" type="line"/>
      <point x="268" y="0" type="line"/>
      <point x="126" y="0" type="line"/>
      <point x="320" y="568" type="line"/>
    </contour>
  </outline>
</glyph>
<glyph name="U" format="1">
  <advance width="639"/>
  <unicode hex="0055"/>
  <outline>
    <contour>
      <point x="250" y="700" type="line"/>
      <point x="392" y="700" type="line"/>
      <point x="231" y="239" type="line" smooth="yes"/>
      <point x="213" y="179"/>
      <point x="219" y="111"/>
      <point x="295" y="110" type="curve" smooth="yes"/>
      <point x="384" y="109"/>
      <point x="436" y="173"/>
      <point x="461" y="240" type="curve"/>
      <point x="620" y="700" type="line"/>
      <point x="762" y="700" type="line"/>
      <point x="602" y="230" type="line" smooth="yes"/>
      <point x="552" y="87"/>
      <point x="441" y="-23"/>
      <point x="268" y="-23" type="curve" smooth="yes"/>
      <point x="119" y="-23"/>
      <point x="46" y="93"/>
      <point x="89" y="230" type="curve"/>
    </contour>
  </outline>
</glyph>
<glyph name="V" format="1">
  <advance width="671"/>
  <unicode hex="0056"/>
  <outline>
    <contour>
      <point x="375" y="253" type="line"/>
      <point x="689" y="699" type="line"/>
      <point x="859" y="699" type="line"/>
      <point x="291" y="-46" type="line"/>
      <point x="183" y="700" type="line"/>
      <point x="340" y="700" type="line"/>
    </contour>
  </outline>
</glyph>
<glyph name="W" format="1">
  <advance width="982"/>
  <unicode hex="0057"/>
  <outline>
    <contour>
      <point x="721" y="260" type="line"/>
      <point x="993" y="699" type="line"/>
      <point x="1165" y="699" type="line"/>
      <point x="655" y="-43" type="line"/>
      <point x="589" y="411" type="line"/>
      <point x="237" y="-44" type="line"/>
      <point x="187" y="700" type="line"/>
      <point x="349" y="700" type="line"/>
      <point x="347" y="263" type="line"/>
      <point x="683" y="740" type="line"/>
    </contour>
  </outline>
</glyph>
<glyph name="X" format="1">
  <advance width="611"/>
  <unicode hex="0058"/>
  <outline>
    <contour>
      <point x="600" y="699" type="line"/>
      <point x="781" y="699" type="line"/>
      <point x="466" y="355" type="line"/>
      <point x="570" y="0" type="line"/>
      <point x="406" y="0" type="line"/>
      <point x="354" y="244" type="line"/>
      <point x="145" y="0" type="line"/>
      <point x="-36" y="0" type="line"/>
      <point x="306" y="367" type="line"/>
      <point x="212" y="700" type="line"/>
      <point x="378" y="700" type="line"/>
      <point x="420" y="486" type="line"/>
    </contour>
  </outline>
</glyph>
<glyph name="Y" format="1">
  <advance width="630"/>
  <unicode hex="0059"/>
  <outline>
    <contour>
      <point x="305" y="360" type="line"/>
      <point x="451" y="360" type="line"/>
      <point x="388" y="0" type="line"/>
      <point x="242" y="0" type="line"/>
    </contour>
    <contour>
      <point x="587" y="700" type="line"/>
      <point x="753" y="700" type="line"/>
      <point x="344" y="166" type="line"/>
      <point x="123" y="700" type="line"/>
      <point x="289" y="700" type="line"/>
      <point x="389" y="418" type="line"/>
    </contour>
  </outline>
</glyph>
<glyph name="Z" format="1">
  <advance width="563"/>
  <unicode hex="005A"/>
  <outline>
    <contour>
      <point x="184" y="568" type="line"/>
      <point x="231" y="700" type="line"/>
      <point x="741" y="699" type="line"/>
      <point x="225" y="129" type="line"/>
      <point x="513" y="128" type="line"/>
      <point x="468" y="0" type="line"/>
      <point x="-51" y="0" type="line"/>
      <point x="461" y="567" type="line"/>
    </contour>
  </outline>
</glyph>
<glyph name="bracketleft" format="1">
  <advance width="324"/>
  <unicode hex="005B"/>
  <outline>
    <contour>
      <point x="385" y="664" type="line"/>
      <point x="147" y="-104" type="line"/>
      <point x="243" y="-104" type="line"/>
      <point x="206" y="-220" type="line"/>
      <point x="-17" y="-220" type="line"/>
      <point x="292" y="780" type="line"/>
      <point x="515" y="780" type="line"/>
      <point x="479" y="665" type="line"/>
    </contour>
  </outline>
</glyph>
<glyph name="backslash" format="1">
  <advance width="505"/>
  <unicode hex="005C"/>
  <outline>
    <contour>
      <point x="199" y="701" type="line"/>
      <point x="320" y="700" type="line"/>
      <point x="435" y="0" type="line"/>
      <point x="318" y="0" type="line"/>
    </contour>
  </outline>
</glyph>
<glyph name="bracketright" format="1">
  <advance width="324"/>
  <unicode hex="005D"/>
  <outline>
    <contour>
      <point x="45" y="-104" type="line"/>
      <point x="282" y="664" type="line"/>
      <point x="186" y="664" type="line"/>
      <point x="223" y="780" type="line"/>
      <point x="446" y="780" type="line"/>
      <point x="137" y="-220" type="line"/>
      <point x="-86" y="-220" type="line"/>
      <point x="-50" y="-105" type="line"/>
    </contour>
  </outline>
</glyph>
<glyph name="asciicircum" format="1">
  <advance width="510"/>
  <unicode hex="005E"/>
  <outline>
    <contour>
      <point x="359" y="592" type="line"/>
      <point x="247" y="452" type="line"/>
      <point x="128" y="452" type="line"/>
      <point x="343" y="710" type="line"/>
      <point x="417" y="710" type="line"/>
      <point x="542" y="452" type="line"/>
      <point x="423" y="452" type="line"/>
    </contour>
  </outline>
</glyph>
<glyph name="underscore" format="1">
  <advance width="491"/>
  <unicode hex="005F"/>
  <outline>
    <contour>
      <point x="-107" y="-147" type="line"/>
      <point x="-78" y="-64" type="line"/>
      <point x="418" y="-64" type="line"/>
      <point x="389" y="-147" type="line"/>
    </contour>
  </outline>
</glyph>
<glyph name="grave" format="1">
  <advance width="352"/>
  <unicode hex="0060"/>
  <outline>
    <contour>
      <point x="223" y="659" type="line"/>
      <point x="332" y="705" type="line"/>
      <point x="429" y="541" type="line"/>
      <point x="352" y="506" type="line"/>
    </contour>
  </outline>
</glyph>
<glyph name="a" format="1">
  <advance width="496"/>
  <unicode hex="0061"/>
  <outline>
    <contour>
      <point x="142" y="136" type="curve" smooth="yes"/>
      <point x="133" y="103"/>
      <point x="157" y="84"/>
      <point x="187" y="82" type="curve" smooth="yes"/>
      <point x="255" y="78"/>
      <point x="301" y="132"/>
      <point x="333" y="184" type="curve"/>
      <point x="331" y="128" type="line"/>
      <point x="292" y="48"/>
      <point x="223" y="-9"/>
      <point x="130" y="-9" type="curve" smooth="yes"/>
      <point x="48" y="-9"/>
      <point x="-12" y="48"/>
      <point x="12" y="132" type="curve" smooth="yes"/>
      <point x="41" y="230"/>
      <point x="148" y="280"/>
      <point x="244" y="280" type="curve" smooth="yes"/>
      <point x="298" y="280"/>
      <point x="342" y="263"/>
      <point x="381" y="227" type="curve"/>
      <point x="361" y="165" type="line"/>
      <point x="330" y="190"/>
      <point x="299" y="205"/>
      <point x="258" y="204" type="curve" smooth="yes"/>
      <point x="212" y="203"/>
      <point x="154" y="182"/>
    </contour>
    <contour>
      <point x="170" y="327" type="curve"/>
      <point x="150" y="421" type="line"/>
      <point x="214" y="449"/>
      <point x="281" y="473"/>
      <point x="351" y="472" type="curve" smooth="yes"/>
      <point x="439" y="471"/>
      <point x="532" y="425"/>
      <point x="503" y="325" type="curve"/>
      <point x="392" y="0" type="line"/>
      <point x="267" y="0" type="line"/>
      <point x="375" y="304" type="line"/>
      <point x="387" y="342"/>
      <point x="364" y="365"/>
      <point x="322" y="368" type="curve" smooth="yes"/>
      <point x="270" y="372"/>
      <point x="216" y="347"/>
    </contour>
  </outline>
</glyph>
<glyph name="b" format="1">
  <advance width="567"/>
  <unicode hex="0062"/>
  <outline>
    <contour>
      <point x="397" y="780" type="line"/>
      <point x="129" y="0" type="line"/>
      <point x="-0" y="0" type="line"/>
      <point x="267" y="780" type="line"/>
    </contour>
    <contour>
      <point x="564" y="230" type="curve" smooth="yes"/>
      <point x="527" y="110"/>
      <point x="414" y="-11"/>
      <point x="281" y="-10" type="curve" smooth="yes"/>
      <point x="149" y="-9"/>
      <point x="135" y="130"/>
      <point x="167" y="230" type="curve" smooth="yes"/>
      <point x="203" y="344"/>
      <point x="297" y="468"/>
      <point x="427" y="469" type="curve" smooth="yes"/>
      <point x="560" y="470"/>
      <point x="598" y="339"/>
    </contour>
    <contour>
      <point x="432" y="230" type="curve" smooth="yes"/>
      <point x="453" y="285"/>
      <point x="439" y="359"/>
      <point x="368" y="360" type="curve" smooth="yes"/>
      <point x="297" y="361"/>
      <point x="231" y="292"/>
      <point x="208" y="230" type="curve" smooth="yes"/>
      <point x="189" y="177"/>
      <point x="197" y="104"/>
      <point x="265" y="100" type="curve" smooth="yes"/>
      <point x="338" y="96"/>
      <point x="408" y="167"/>
    </contour>
  </outline>
</glyph>
<glyph name="c" format="1">
  <advance width="459"/>
  <unicode hex="0063"/>
  <outline>
    <contour>
      <point x="193" y="230" type="curve" smooth="yes"/>
      <point x="172" y="167"/>
      <point x="197" y="103"/>
      <point x="269" y="100" type="curve" smooth="yes"/>
      <point x="330" y="98"/>
      <point x="385" y="133"/>
      <point x="430" y="169" type="curve"/>
      <point x="395" y="36" type="line"/>
      <point x="348" y="9"/>
      <point x="298" y="-9"/>
      <point x="242" y="-9" type="curve" smooth="yes"/>
      <point x="107" y="-8"/>
      <point x="27" y="101"/>
      <point x="63" y="230" type="curve" smooth="yes"/>
      <point x="100" y="366"/>
      <point x="233" y="468"/>
      <point x="374" y="469" type="curve" smooth="yes"/>
      <point x="425" y="469"/>
      <point x="470" y="454"/>
      <point x="510" y="424" type="curve"/>
      <point x="473" y="290" type="line"/>
      <point x="451" y="334"/>
      <point x="417" y="362"/>
      <point x="365" y="361" type="curve" smooth="yes"/>
      <point x="286" y="360"/>
      <point x="216" y="300"/>
    </contour>
  </outline>
</glyph>
<glyph name="e" format="1">
  <advance width="524"/>
  <unicode hex="0065"/>
  <outline>
    <contour>
      <point x="131" y="201" type="line"/>
      <point x="154" y="280" type="line"/>
      <point x="413" y="280" type="line"/>
      <point x="423" y="326"/>
      <point x="409" y="375"/>
      <point x="352" y="376" type="curve" smooth="yes"/>
      <point x="281" y="377"/>
      <point x="230" y="313"/>
      <point x="204" y="255" type="curve" smooth="yes"/>
      <point x="193" y="230" type="line"/>
      <point x="174" y="172"/>
      <point x="177" y="95"/>
      <point x="253" y="91" type="curve" smooth="yes"/>
      <point x="306" y="88"/>
      <point x="350" y="124"/>
      <point x="388" y="156" type="curve"/>
      <point x="496" y="118" type="line"/>
      <point x="428" y="44"/>
      <point x="340" y="-10"/>
      <point x="236" y="-9" type="curve" smooth="yes"/>
      <point x="100" y="-7"/>
      <point x="31" y="102"/>
      <point x="65" y="230" type="curve" smooth="yes"/>
      <point x="70" y="247"/>
      <point x="76" y="263"/>
      <point x="83" y="279" type="curve" smooth="yes"/>
      <point x="133" y="390"/>
      <point x="246" y="470"/>
      <point x="369" y="469" type="curve" smooth="yes"/>
      <point x="507" y="468"/>
      <point x="564" y="362"/>
      <point x="533" y="236" type="curve" smooth="yes"/>
      <point x="530" y="224"/>
      <point x="526" y="213"/>
      <point x="523" y="201" type="curve"/>
    </contour>
  </outline>
</glyph>
<glyph name="f" format="1">
  <advance width="308"/>
  <unicode hex="0066"/>
  <outline>
    <contour>
      <point x="124" y="460" type="line"/>
      <point x="403" y="460" type="line"/>
      <point x="363" y="349" type="line"/>
      <point x="84" y="349" type="line"/>
    </contour>
    <contour>
      <point x="457" y="649" type="line"/>
      <point x="448" y="661"/>
      <point x="439" y="675"/>
      <point x="422" y="675" type="curve" smooth="yes"/>
      <point x="385" y="675"/>
      <point x="359" y="628"/>
      <point x="348" y="599" type="curve" smooth="yes"/>
      <point x="141" y="0" type="line"/>
      <point x="16" y="0" type="line"/>
      <point x="230" y="631" type="line" smooth="yes"/>
      <point x="263" y="718"/>
      <point x="336" y="797"/>
      <point x="436" y="794" type="curve" smooth="yes"/>
      <point x="480" y="793"/>
      <point x="508" y="773"/>
      <point x="538" y="744" type="curve"/>
    </contour>
  </outline>
</glyph>
<glyph name="g" format="1">
  <advance width="563"/>
  <unicode hex="0067"/>
  <outline>
    <contour>
      <point x="-29" y="-32" type="curve"/>
      <point x="92" y="-33" type="line"/>
      <point x="88" y="-87"/>
      <point x="103" y="-126"/>
      <point x="164" y="-127" type="curve" smooth="yes"/>
      <point x="243" y="-129"/>
      <point x="308" y="-58"/>
      <point x="332" y="10" type="curve" smooth="yes"/>
      <point x="487" y="460" type="line"/>
      <point x="613" y="460" type="line"/>
      <point x="459" y="10" type="line" smooth="yes"/>
      <point x="412" y="-125"/>
      <point x="311" y="-235"/>
      <point x="156" y="-236" type="curve" smooth="yes"/>
      <point x="27" y="-237"/>
      <point x="-46" y="-157"/>
    </contour>
    <contour>
      <point x="54" y="235" type="curve" smooth="yes"/>
      <point x="91" y="355"/>
      <point x="205" y="471"/>
      <point x="337" y="470" type="curve" smooth="yes"/>
      <point x="468" y="469"/>
      <point x="484" y="335"/>
      <point x="452" y="234" type="curve" smooth="yes"/>
      <point x="417" y="121"/>
      <point x="322" y="1"/>
      <point x="193" y="-0" type="curve" smooth="yes"/>
      <point x="61" y="-1"/>
      <point x="20" y="125"/>
    </contour>
    <contour>
      <point x="187" y="234" type="curve" smooth="yes"/>
      <point x="166" y="177"/>
      <point x="183" y="111"/>
      <point x="252" y="109" type="curve" smooth="yes"/>
      <point x="322" y="107"/>
      <point x="389" y="174"/>
      <point x="411" y="235" type="curve" smooth="yes"/>
      <point x="430" y="289"/>
      <point x="419" y="358"/>
      <point x="352" y="360" type="curve" smooth="yes"/>
      <point x="276" y="362"/>
      <point x="210" y="297"/>
    </contour>
  </outline>
</glyph>
<glyph name="h" format="1">
  <advance width="523"/>
  <unicode hex="0068"/>
  <outline>
    <contour>
      <point x="400" y="780" type="line"/>
      <point x="132" y="0" type="line"/>
      <point x="3" y="0" type="line"/>
      <point x="270" y="780" type="line"/>
    </contour>
    <contour>
      <point x="382" y="280" type="line" smooth="yes"/>
      <point x="394" y="316"/>
      <point x="400" y="366"/>
      <point x="349" y="371" type="curve" smooth="yes"/>
      <point x="294" y="376"/>
      <point x="253" y="321"/>
      <point x="228" y="281" type="curve"/>
      <point x="200" y="282" type="line"/>
      <point x="237" y="375"/>
      <point x="304" y="473"/>
      <point x="415" y="474" type="curve" smooth="yes"/>
      <point x="522" y="475"/>
      <point x="540" y="385"/>
      <point x="513" y="299" type="curve"/>
      <point x="411" y="0" type="line"/>
      <point x="284" y="0" type="line"/>
    </contour>
  </outline>
</glyph>
<glyph name="i" format="1">
  <advance width="255"/>
  <unicode hex="0069"/>
  <outline>
    <contour>
      <point x="213" y="637" type="curve" smooth="yes"/>
      <point x="213" y="680"/>
      <point x="247" y="711"/>
      <point x="291" y="711" type="curve" smooth="yes"/>
      <point x="335" y="711"/>
      <point x="370" y="680"/>
      <point x="370" y="637" type="curve" smooth="yes"/>
      <point x="370" y="594"/>
      <point x="335" y="563"/>
      <point x="291" y="563" type="curve" smooth="yes"/>
      <point x="247" y="563"/>
      <point x="213" y="594"/>
    </contour>
    <contour>
      <point x="167" y="459" type="line"/>
      <point x="295" y="459" type="line"/>
      <point x="137" y="0" type="line"/>
      <point x="11" y="0" type="line"/>
    </contour>
  </outline>
</glyph>
<glyph name="j" format="1">
  <advance width="250"/>
  <unicode hex="006A"/>
  <outline>
    <contour>
      <point x="207" y="637" type="curve" smooth="yes"/>
      <point x="207" y="680"/>
      <point x="242" y="711"/>
      <point x="286" y="711" type="curve" smooth="yes"/>
      <point x="330" y="711"/>
      <point x="364" y="680"/>
      <point x="364" y="637" type="curve" smooth="yes"/>
      <point x="364" y="594"/>
      <point x="330" y="563"/>
      <point x="286" y="563" type="curve" smooth="yes"/>
      <point x="242" y="563"/>
      <point x="207" y="594"/>
    </contour>
    <contour>
      <point x="-118" y="-88" type="line"/>
      <point x="-110" y="-100"/>
      <point x="-94" y="-113"/>
      <point x="-78" y="-114" type="curve" smooth="yes"/>
      <point x="-42" y="-116"/>
      <point x="-18" y="-65"/>
      <point x="-8" y="-38" type="curve" smooth="yes"/>
      <point x="163" y="460" type="line"/>
      <point x="289" y="460" type="line"/>
      <point x="109" y="-70" type="line" smooth="yes"/>
      <point x="76" y="-157"/>
      <point x="10" y="-236"/>
      <point x="-90" y="-233" type="curve" smooth="yes"/>
      <point x="-134" y="-232"/>
      <point x="-169" y="-212"/>
      <point x="-199" y="-183" type="curve"/>
    </contour>
  </outline>
</glyph>
<glyph name="k" format="1">
  <advance width="507"/>
  <unicode hex="006B"/>
  <outline>
    <contour>
      <point x="266" y="779" type="line"/>
      <point x="393" y="780" type="line"/>
      <point x="125" y="0" type="line"/>
      <point x="2" y="0" type="line"/>
    </contour>
    <contour>
      <point x="431" y="459" type="line"/>
      <point x="596" y="459" type="line"/>
      <point x="333" y="260" type="line"/>
      <point x="446" y="0" type="line"/>
      <point x="306" y="0" type="line"/>
      <point x="188" y="277" type="line"/>
    </contour>
  </outline>
</glyph>
<glyph name="l" format="1">
  <advance width="243"/>
  <unicode hex="006C"/>
  <outline>
    <contour>
      <point x="269" y="779" type="line"/>
      <point x="400" y="780" type="line"/>
      <point x="131" y="0" type="line"/>
      <point x="4" y="0" type="line"/>
    </contour>
  </outline>
</glyph>
<glyph name="m" format="1">
  <advance width="761"/>
  <unicode hex="006D"/>
  <outline>
    <contour>
      <point x="359" y="280" type="line" smooth="yes"/>
      <point x="369" y="312"/>
      <point x="381" y="366"/>
      <point x="333" y="371" type="curve" smooth="yes"/>
      <point x="282" y="377"/>
      <point x="244" y="320"/>
      <point x="223" y="282" type="curve"/>
      <point x="194" y="277" type="line"/>
      <point x="230" y="367"/>
      <point x="293" y="469"/>
      <point x="402" y="470" type="curve" smooth="yes"/>
      <point x="507" y="471"/>
      <point x="513" y="380"/>
      <point x="490" y="299" type="curve" smooth="yes"/>
      <point x="388" y="0" type="line"/>
      <point x="260" y="0" type="line"/>
    </contour>
    <contour>
      <point x="286" y="460" type="line"/>
      <point x="127" y="0" type="line"/>
      <point x="2" y="0" type="line"/>
      <point x="161" y="460" type="line"/>
    </contour>
    <contour>
      <point x="749" y="295" type="curve" smooth="yes"/>
      <point x="650" y="0" type="line"/>
      <point x="520" y="0" type="line"/>
      <point x="620" y="280" type="line" smooth="yes"/>
      <point x="630" y="312"/>
      <point x="642" y="366"/>
      <point x="594" y="371" type="curve" smooth="yes"/>
      <point x="543" y="377"/>
      <point x="505" y="320"/>
      <point x="484" y="282" type="curve"/>
      <point x="435" y="277" type="line"/>
      <point x="474" y="370"/>
      <point x="551" y="470"/>
      <point x="663" y="470" type="curve" smooth="yes"/>
      <point x="769" y="470"/>
      <point x="773" y="376"/>
    </contour>
  </outline>
</glyph>
<glyph name="n" format="1">
  <advance width="527"/>
  <unicode hex="006E"/>
  <outline>
    <contour>
      <point x="290" y="460" type="line"/>
      <point x="132" y="0" type="line"/>
      <point x="2" y="0" type="line"/>
      <point x="161" y="460" type="line"/>
    </contour>
    <contour>
      <point x="382" y="280" type="line" smooth="yes"/>
      <point x="394" y="316"/>
      <point x="399" y="366"/>
      <point x="348" y="371" type="curve" smooth="yes"/>
      <point x="293" y="376"/>
      <point x="253" y="322"/>
      <point x="228" y="282" type="curve"/>
      <point x="199" y="277" type="line"/>
      <point x="236" y="370"/>
      <point x="302" y="469"/>
      <point x="413" y="470" type="curve" smooth="yes"/>
      <point x="519" y="471"/>
      <point x="543" y="382"/>
      <point x="516" y="295" type="curve"/>
      <point x="415" y="0" type="line"/>
      <point x="284" y="0" type="line"/>
    </contour>
  </outline>
</glyph>
<glyph name="o" format="1">
  <advance width="543"/>
  <unicode hex="006F"/>
  <outline>
    <contour>
      <point x="65" y="230" type="curve" smooth="yes"/>
      <point x="102" y="364"/>
      <point x="234" y="470"/>
      <point x="374" y="470" type="curve" smooth="yes"/>
      <point x="509" y="470"/>
      <point x="587" y="357"/>
      <point x="552" y="230" type="curve" smooth="yes"/>
      <point x="515" y="96"/>
      <point x="383" y="-9"/>
      <point x="243" y="-9" type="curve" smooth="yes"/>
      <point x="109" y="-9"/>
      <point x="30" y="103"/>
    </contour>
    <contour>
      <point x="196" y="230" type="curve" smooth="yes"/>
      <point x="177" y="174"/>
      <point x="193" y="104"/>
      <point x="262" y="102" type="curve" smooth="yes"/>
      <point x="333" y="100"/>
      <point x="399" y="167"/>
      <point x="421" y="230" type="curve" smooth="yes"/>
      <point x="440" y="286"/>
      <point x="423" y="356"/>
      <point x="354" y="358" type="curve" smooth="yes"/>
      <point x="283" y="360"/>
      <point x="218" y="293"/>
    </contour>
  </outline>
</glyph>
<glyph name="p" format="1">
  <advance width="567"/>
  <unicode hex="0070"/>
  <outline>
    <contour>
      <point x="55" y="-219" type="line"/>
      <point x="-76" y="-220" type="line"/>
      <point x="159" y="460" type="line"/>
      <point x="286" y="459" type="line"/>
    </contour>
    <contour>
      <point x="564" y="230" type="curve" smooth="yes"/>
      <point x="526" y="109"/>
      <point x="414" y="-17"/>
      <point x="279" y="-15" type="curve" smooth="yes"/>
      <point x="144" y="-13"/>
      <point x="139" y="131"/>
      <point x="171" y="230" type="curve" smooth="yes"/>
      <point x="207" y="344"/>
      <point x="297" y="473"/>
      <point x="429" y="474" type="curve" smooth="yes"/>
      <point x="564" y="475"/>
      <point x="598" y="339"/>
    </contour>
    <contour>
      <point x="432" y="231" type="curve" smooth="yes"/>
      <point x="453" y="288"/>
      <point x="436" y="353"/>
      <point x="367" y="355" type="curve" smooth="yes"/>
      <point x="297" y="357"/>
      <point x="230" y="290"/>
      <point x="208" y="229" type="curve" smooth="yes"/>
      <point x="189" y="175"/>
      <point x="200" y="109"/>
      <point x="267" y="105" type="curve" smooth="yes"/>
      <point x="339" y="101"/>
      <point x="409" y="168"/>
    </contour>
  </outline>
</glyph>
<glyph name="q" format="1">
  <advance width="567"/>
  <unicode hex="0071"/>
  <outline>
    <contour>
      <point x="254" y="-220" type="line"/>
      <point x="487" y="460" type="line"/>
      <point x="617" y="460" type="line"/>
      <point x="383" y="-220" type="line"/>
    </contour>
    <contour>
      <point x="52" y="230" type="curve" smooth="yes"/>
      <point x="90" y="351"/>
      <point x="203" y="477"/>
      <point x="338" y="475" type="curve" smooth="yes"/>
      <point x="473" y="473"/>
      <point x="478" y="329"/>
      <point x="446" y="230" type="curve" smooth="yes"/>
      <point x="410" y="116"/>
      <point x="321" y="-13"/>
      <point x="189" y="-14" type="curve" smooth="yes"/>
      <point x="54" y="-15"/>
      <point x="18" y="121"/>
    </contour>
    <contour>
      <point x="185" y="229" type="curve" smooth="yes"/>
      <point x="164" y="172"/>
      <point x="181" y="107"/>
      <point x="250" y="105" type="curve" smooth="yes"/>
      <point x="320" y="103"/>
      <point x="387" y="170"/>
      <point x="409" y="231" type="curve" smooth="yes"/>
      <point x="428" y="285"/>
      <point x="417" y="351"/>
      <point x="350" y="355" type="curve" smooth="yes"/>
      <point x="278" y="359"/>
      <point x="208" y="292"/>
    </contour>
  </outline>
</glyph>
<glyph name="r" format="1">
  <advance width="373"/>
  <unicode hex="0072"/>
  <outline>
    <contour>
      <point x="288" y="460" type="line"/>
      <point x="129" y="0" type="line"/>
      <point x="2" y="0" type="line"/>
      <point x="161" y="460" type="line"/>
    </contour>
    <contour>
      <point x="376" y="323" type="line"/>
      <point x="362" y="335"/>
      <point x="349" y="346"/>
      <point x="329" y="347" type="curve" smooth="yes"/>
      <point x="272" y="349"/>
      <point x="230" y="285"/>
      <point x="212" y="242" type="curve"/>
      <point x="196" y="282" type="line"/>
      <point x="229" y="361"/>
      <point x="305" y="469"/>
      <point x="391" y="470" type="curve" smooth="yes"/>
      <point x="424" y="471"/>
      <point x="444" y="453"/>
      <point x="466" y="431" type="curve"/>
    </contour>
  </outline>
</glyph>
<glyph name="s" format="1">
  <advance width="440"/>
  <unicode hex="0073"/>
  <outline>
    <contour>
      <point x="133" y="170" type="line"/>
      <point x="159" y="116"/>
      <point x="203" y="87"/>
      <point x="243" y="87" type="curve" smooth="yes"/>
      <point x="277" y="87"/>
      <point x="300" y="98"/>
      <point x="305" y="126" type="curve" smooth="yes"/>
      <point x="312" y="165"/>
      <point x="252" y="179"/>
      <point x="202" y="202" type="curve" smooth="yes"/>
      <point x="146" y="229"/>
      <point x="96" y="261"/>
      <point x="110" y="340" type="curve" smooth="yes"/>
      <point x="125" y="424"/>
      <point x="209" y="470"/>
      <point x="301" y="470" type="curve" smooth="yes"/>
      <point x="389" y="470"/>
      <point x="451" y="426"/>
      <point x="476" y="374" type="curve"/>
      <point x="391" y="310" type="line"/>
      <point x="367" y="346"/>
      <point x="323" y="372"/>
      <point x="286" y="372" type="curve" smooth="yes"/>
      <point x="256" y="372"/>
      <point x="234" y="362"/>
      <point x="230" y="337" type="curve" smooth="yes"/>
      <point x="224" y="303"/>
      <point x="283" y="290"/>
      <point x="335" y="268" type="curve" smooth="yes"/>
      <point x="395" y="242"/>
      <point x="450" y="206"/>
      <point x="437" y="130" type="curve" smooth="yes"/>
      <point x="419" y="26"/>
      <point x="335" y="-17"/>
      <point x="227" y="-17" type="curve" smooth="yes"/>
      <point x="143" y="-17"/>
      <point x="76" y="22"/>
      <point x="41" y="104" type="curve"/>
    </contour>
  </outline>
</glyph>
<glyph name="t" format="1">
  <advance width="278"/>
  <unicode hex="0074"/>
  <outline>
    <contour>
      <point x="108" y="460" type="line"/>
      <point x="382" y="460" type="line"/>
      <point x="342" y="349" type="line"/>
      <point x="67" y="349" type="line"/>
    </contour>
    <contour>
      <point x="234" y="619" type="line"/>
      <point x="361" y="620" type="line"/>
      <point x="147" y="0" type="line"/>
      <point x="24" y="0" type="line"/>
    </contour>
  </outline>
</glyph>
<glyph name="u" format="1">
  <advance width="560"/>
  <unicode hex="0075"/>
  <outline>
    <contour>
      <point x="366" y="0" type="line"/>
      <point x="447" y="460" type="line"/>
      <point x="577" y="460" type="line"/>
      <point x="496" y="0" type="line"/>
    </contour>
    <contour>
      <point x="231" y="180" type="line" smooth="yes"/>
      <point x="220" y="120"/>
      <point x="236" y="86"/>
      <point x="290" y="86" type="curve" smooth="yes"/>
      <point x="344" y="86"/>
      <point x="388" y="122"/>
      <point x="398" y="180" type="curve"/>
      <point x="424" y="184" type="line"/>
      <point x="405" y="75"/>
      <point x="332" y="-10"/>
      <point x="224" y="-10" type="curve" smooth="yes"/>
      <point x="116" y="-10"/>
      <point x="73" y="52"/>
      <point x="93" y="166" type="curve" smooth="yes"/>
      <point x="145" y="460" type="line"/>
      <point x="280" y="460" type="line"/>
    </contour>
  </outline>
</glyph>
<glyph name="v" format="1">
  <advance width="473"/>
  <unicode hex="0076"/>
  <outline>
    <contour>
      <point x="107" y="460" type="line"/>
      <point x="241" y="460" type="line"/>
      <point x="260" y="193" type="line"/>
      <point x="447" y="459" type="line"/>
      <point x="590" y="459" type="line"/>
      <point x="189" y="-53" type="line"/>
    </contour>
  </outline>
</glyph>
<glyph name="w" format="1">
  <advance width="694"/>
  <unicode hex="0077"/>
  <outline>
    <contour>
      <point x="101" y="460" type="line"/>
      <point x="230" y="460" type="line"/>
      <point x="236" y="214" type="line"/>
      <point x="459" y="499" type="line"/>
      <point x="484" y="211" type="line"/>
      <point x="666" y="459" type="line"/>
      <point x="809" y="459" type="line"/>
      <point x="422" y="-34" type="line"/>
      <point x="384" y="255" type="line"/>
      <point x="146" y="-35" type="line"/>
    </contour>
  </outline>
</glyph>
<glyph name="x" format="1">
  <advance width="471"/>
  <unicode hex="0078"/>
  <outline>
    <contour>
      <point x="426" y="459" type="line"/>
      <point x="578" y="459" type="line"/>
      <point x="341" y="229" type="line"/>
      <point x="435" y="0" type="line"/>
      <point x="303" y="0" type="line"/>
      <point x="248" y="149" type="line"/>
      <point x="114" y="0" type="line"/>
      <point x="-42" y="0" type="line"/>
      <point x="207" y="250" type="line"/>
      <point x="119" y="460" type="line"/>
      <point x="256" y="460" type="line"/>
      <point x="302" y="330" type="line"/>
    </contour>
  </outline>
</glyph>
<glyph name="y" format="1">
  <advance width="468"/>
  <unicode hex="0079"/>
  <outline>
    <contour>
      <point x="586" y="459" type="line"/>
      <point x="69" y="-219" type="line"/>
      <point x="-69" y="-219" type="line"/>
      <point x="138" y="52" type="line"/>
      <point x="98" y="460" type="line"/>
      <point x="230" y="460" type="line"/>
      <point x="248" y="93" type="line"/>
      <point x="183" y="96" type="line"/>
      <point x="445" y="459" type="line"/>
    </contour>
  </outline>
</glyph>
<glyph name="z" format="1">
  <advance width="474"/>
  <unicode hex="007A"/>
  <outline>
    <contour>
      <point x="307" y="340" type="line"/>
      <point x="109" y="340" type="line"/>
      <point x="152" y="460" type="line"/>
      <point x="572" y="460" type="line"/>
      <point x="225" y="120" type="line"/>
      <point x="425" y="120" type="line"/>
      <point x="382" y="0" type="line"/>
      <point x="-47" y="0" type="line"/>
    </contour>
  </outline>
</glyph>
<glyph name="braceleft" format="1">
  <advance width="352"/>
  <unicode hex="007B"/>
  <outline>
    <contour>
      <point x="389" y="623" type="curve" smooth="yes"/>
      <point x="347" y="490" type="line" smooth="yes"/>
      <point x="313" y="383"/>
      <point x="268" y="302"/>
      <point x="151" y="281" type="curve"/>
      <point x="156" y="300" type="line"/>
      <point x="266" y="274"/>
      <point x="249" y="180"/>
      <point x="222" y="90" type="curve" smooth="yes"/>
      <point x="179" y="-44" type="line" smooth="yes"/>
      <point x="170" y="-72"/>
      <point x="178" y="-92"/>
      <point x="207" y="-93" type="curve" smooth="yes"/>
      <point x="244" y="-93" type="line"/>
      <point x="212" y="-200" type="line"/>
      <point x="139" y="-200" type="line" smooth="yes"/>
      <point x="61" y="-199"/>
      <point x="16" y="-134"/>
      <point x="39" y="-60" type="curve" smooth="yes"/>
      <point x="98" y="132" type="line" smooth="yes"/>
      <point x="112" y="180"/>
      <point x="117" y="210"/>
      <point x="77" y="242" type="curve"/>
      <point x="105" y="338" type="line"/>
      <point x="153" y="363"/>
      <point x="176" y="398"/>
      <point x="193" y="449" type="curve" smooth="yes"/>
      <point x="251" y="641" type="line" smooth="yes"/>
      <point x="277" y="719"/>
      <point x="345" y="777"/>
      <point x="427" y="779" type="curve"/>
      <point x="513" y="779" type="line"/>
      <point x="483" y="674" type="line"/>
      <point x="451" y="674" type="line" smooth="yes"/>
      <point x="419" y="674"/>
      <point x="399" y="654"/>
    </contour>
  </outline>
</glyph>
<glyph name="bar" format="1">
  <advance width="311"/>
  <unicode hex="007C"/>
  <outline>
    <contour>
      <point x="300" y="784" type="line"/>
      <point x="427" y="784" type="line"/>
      <point x="120" y="-214" type="line"/>
      <point x="-8" y="-214" type="line"/>
    </contour>
  </outline>
</glyph>
<glyph name="braceright" format="1">
  <advance width="372"/>
  <unicode hex="007D"/>
  <outline>
    <contour>
      <point x="130" y="-45" type="curve" smooth="yes"/>
      <point x="154" y="90" type="line" smooth="yes"/>
      <point x="170" y="179"/>
      <point x="194" y="300"/>
      <point x="325" y="300" type="curve"/>
      <point x="321" y="280" type="line"/>
      <point x="190" y="280"/>
      <point x="208" y="401"/>
      <point x="224" y="490" type="curve" smooth="yes"/>
      <point x="248" y="625" type="line" smooth="yes"/>
      <point x="253" y="651"/>
      <point x="239" y="675"/>
      <point x="209" y="675" type="curve" smooth="yes"/>
      <point x="175" y="675" type="line"/>
      <point x="194" y="780" type="line"/>
      <point x="274" y="780" type="line" smooth="yes"/>
      <point x="344" y="780"/>
      <point x="410" y="739"/>
      <point x="393" y="640" type="curve" smooth="yes"/>
      <point x="359" y="448" type="line" smooth="yes"/>
      <point x="346" y="372"/>
      <point x="360" y="348"/>
      <point x="396" y="338" type="curve"/>
      <point x="379" y="242" type="line"/>
      <point x="339" y="232"/>
      <point x="316" y="208"/>
      <point x="303" y="132" type="curve" smooth="yes"/>
      <point x="269" y="-60" type="line" smooth="yes"/>
      <point x="252" y="-159"/>
      <point x="171" y="-200"/>
      <point x="101" y="-200" type="curve" smooth="yes"/>
      <point x="21" y="-200" type="line"/>
      <point x="39" y="-95" type="line"/>
      <point x="73" y="-95" type="line" smooth="yes"/>
      <point x="103" y="-95"/>
      <point x="125" y="-71"/>
    </contour>
  </outline>
</glyph>
<glyph name="asciitilde" format="1">
  <advance width="541"/>
  <unicode hex="007E"/>
  <outline>
    <contour>
      <point x="164" y="166" type="curve"/>
      <point x="62" y="172" type="line"/>
      <point x="63" y="180"/>
      <point x="62" y="189"/>
      <point x="64" y="197" type="curve" smooth="yes"/>
      <point x="72" y="229"/>
      <point x="93" y="260"/>
      <point x="116" y="284" type="curve" smooth="yes"/>
      <point x="150" y="318"/>
      <point x="197" y="341"/>
      <point x="245" y="340" type="curve" smooth="yes"/>
      <point x="286" y="340"/>
      <point x="320" y="317"/>
      <point x="350" y="292" type="curve" smooth="yes"/>
      <point x="364" y="280"/>
      <point x="383" y="258"/>
      <point x="404" y="259" type="curve" smooth="yes"/>
      <point x="425" y="260"/>
      <point x="446" y="283"/>
      <point x="454" y="301" type="curve" smooth="yes"/>
      <point x="458" y="311"/>
      <point x="459" y="323"/>
      <point x="459" y="333" type="curve"/>
      <point x="563" y="327" type="line"/>
      <point x="562" y="318"/>
      <point x="563" y="307"/>
      <point x="560" y="298" type="curve" smooth="yes"/>
      <point x="553" y="266"/>
      <point x="534" y="233"/>
      <point x="511" y="209" type="curve" smooth="yes"/>
      <point x="482" y="179"/>
      <point x="439" y="158"/>
      <point x="397" y="159" type="curve" smooth="yes"/>
      <point x="357" y="160"/>
      <point x="326" y="184"/>
      <point x="296" y="208" type="curve" smooth="yes"/>
      <point x="277" y="223"/>
      <point x="256" y="242"/>
      <point x="230" y="241" type="curve" smooth="yes"/>
      <point x="203" y="240"/>
      <point x="178" y="217"/>
      <point x="168" y="193" type="curve" smooth="yes"/>
      <point x="164" y="185"/>
      <point x="165" y="175"/>
    </contour>
  </outline>
</glyph>
<glyph name="exclamdown" format="1">
  <advance width="312"/>
  <unicode hex="00A1"/>
  <outline>
    <contour>
      <point x="101" y="-234" type="line"/>
      <point x="-59" y="-234" type="line"/>
      <point x="133" y="243" type="line"/>
      <point x="237" y="243" type="line"/>
    </contour>
    <contour>
      <point x="322" y="408" type="curve" smooth="yes"/>
      <point x="311" y="368"/>
      <point x="262" y="332"/>
      <point x="221" y="334" type="curve" smooth="yes"/>
      <point x="179" y="336"/>
      <point x="151" y="370"/>
      <point x="162" y="412" type="curve" smooth="yes"/>
      <point x="173" y="452"/>
      <point x="222" y="489"/>
      <point x="263" y="487" type="curve" smooth="yes"/>
      <point x="305" y="485"/>
      <point x="333" y="450"/>
    </contour>
  </outline>
</glyph>
<glyph name="cent" format="1">
  <advance width="545"/>
  <unicode hex="00A2"/>
  <outline>
    <contour>
      <point x="190" y="37" type="line"/>
      <point x="287" y="37" type="line"/>
      <point x="241" y="-111" type="line"/>
      <point x="131" y="-111" type="line"/>
    </contour>
    <contour>
      <point x="207" y="230" type="curve" smooth="yes"/>
      <point x="184" y="168"/>
      <point x="207" y="103"/>
      <point x="279" y="100" type="curve" smooth="yes"/>
      <point x="340" y="98"/>
      <point x="397" y="134"/>
      <point x="443" y="170" type="curve"/>
      <point x="402" y="35" type="line"/>
      <point x="355" y="8"/>
      <point x="304" y="-9"/>
      <point x="248" y="-9" type="curve" smooth="yes"/>
      <point x="113" y="-8"/>
      <point x="38" y="102"/>
      <point x="77" y="230" type="curve" smooth="yes"/>
      <point x="118" y="366"/>
      <point x="254" y="468"/>
      <point x="396" y="469" type="curve" smooth="yes"/>
      <point x="447" y="469"/>
      <point x="490" y="454"/>
      <point x="530" y="424" type="curve"/>
      <point x="489" y="288" type="line"/>
      <point x="469" y="333"/>
      <point x="436" y="362"/>
      <point x="384" y="361" type="curve" smooth="yes"/>
      <point x="309" y="360"/>
      <point x="233" y="299"/>
    </contour>
    <contour>
      <point x="369" y="577" type="line"/>
      <point x="478" y="577" type="line"/>
      <point x="420" y="429" type="line"/>
      <point x="323" y="429" type="line"/>
    </contour>
  </outline>
</glyph>
<glyph name="sterling" format="1">
  <advance width="566"/>
  <unicode hex="00A3"/>
  <outline>
    <contour>
      <point x="134" y="370" type="line"/>
      <point x="490" y="370" type="line"/>
      <point x="456" y="277" type="line"/>
      <point x="100" y="277" type="line"/>
    </contour>
    <contour>
      <point x="522" y="471" type="line"/>
      <point x="531" y="522"/>
      <point x="534" y="586"/>
      <point x="466" y="589" type="curve" smooth="yes"/>
      <point x="411" y="592"/>
      <point x="358" y="550"/>
      <point x="338" y="501" type="curve" smooth="yes"/>
      <point x="306" y="424"/>
      <point x="369" y="347"/>
      <point x="346" y="268" type="curve" smooth="yes"/>
      <point x="314" y="158"/>
      <point x="200" y="86"/>
      <point x="97" y="53" type="curve"/>
      <point x="154" y="123" type="line"/>
      <point x="492" y="123" type="line"/>
      <point x="449" y="0" type="line"/>
      <point x="-3" y="0" type="line"/>
      <point x="81" y="82"/>
      <point x="188" y="159"/>
      <point x="224" y="276" type="curve" smooth="yes"/>
      <point x="250" y="360"/>
      <point x="185" y="436"/>
      <point x="209" y="521" type="curve" smooth="yes"/>
      <point x="242" y="636"/>
      <point x="370" y="710"/>
      <point x="485" y="709" type="curve" smooth="yes"/>
      <point x="600" y="708"/>
      <point x="661" y="622"/>
      <point x="649" y="514" type="curve"/>
    </contour>
  </outline>
</glyph>
<glyph name="currency" format="1">
  <advance width="543"/>
  <unicode hex="00A4"/>
  <outline>
    <contour>
      <point x="141" y="506" type="line"/>
      <point x="214" y="562" type="line"/>
      <point x="277" y="457" type="line"/>
      <point x="208" y="406" type="line"/>
    </contour>
    <contour>
      <point x="45" y="38" type="line"/>
      <point x="4" y="104" type="line"/>
      <point x="126" y="194" type="line"/>
      <point x="167" y="132" type="line"/>
    </contour>
    <contour>
      <point x="516" y="406" type="line"/>
      <point x="473" y="471" type="line"/>
      <point x="597" y="562" type="line"/>
      <point x="637" y="499" type="line"/>
    </contour>
    <contour>
      <point x="361" y="140" type="line"/>
      <point x="434" y="194" type="line"/>
      <point x="497" y="90" type="line"/>
      <point x="428" y="39" type="line"/>
    </contour>
    <contour>
      <point x="94" y="300" type="curve" smooth="yes"/>
      <point x="133" y="425"/>
      <point x="257" y="539"/>
      <point x="393" y="539" type="curve" smooth="yes"/>
      <point x="526" y="539"/>
      <point x="583" y="417"/>
      <point x="547" y="300" type="curve" smooth="yes"/>
      <point x="508" y="175"/>
      <point x="383" y="61"/>
      <point x="247" y="61" type="curve" smooth="yes"/>
      <point x="114" y="61"/>
      <point x="58" y="183"/>
    </contour>
    <contour>
      <point x="211" y="299" type="curve" smooth="yes"/>
      <point x="191" y="246"/>
      <point x="208" y="183"/>
      <point x="273" y="182" type="curve" smooth="yes"/>
      <point x="341" y="180"/>
      <point x="407" y="241"/>
      <point x="429" y="301" type="curve" smooth="yes"/>
      <point x="449" y="354"/>
      <point x="433" y="417"/>
      <point x="368" y="418" type="curve" smooth="yes"/>
      <point x="300" y="420"/>
      <point x="233" y="359"/>
    </contour>
  </outline>
</glyph>
<glyph name="yen" format="1">
  <advance width="606"/>
  <unicode hex="00A5"/>
  <outline>
    <contour>
      <point x="79" y="272" type="line"/>
      <point x="112" y="365" type="line"/>
      <point x="635" y="365" type="line"/>
      <point x="603" y="272" type="line"/>
    </contour>
    <contour>
      <point x="28" y="122" type="line"/>
      <point x="60" y="215" type="line"/>
      <point x="584" y="215" type="line"/>
      <point x="552" y="122" type="line"/>
    </contour>
    <contour>
      <point x="623" y="699" type="line"/>
      <point x="792" y="699" type="line"/>
      <point x="420" y="285" type="line"/>
      <point x="322" y="0" type="line"/>
      <point x="176" y="0" type="line"/>
      <point x="279" y="298" type="line"/>
      <point x="193" y="700" type="line"/>
      <point x="347" y="700" type="line"/>
      <point x="389" y="425" type="line"/>
    </contour>
  </outline>
</glyph>
<glyph name="brokenbar" format="1">
  <advance width="311"/>
  <unicode hex="00A6"/>
  <outline>
    <contour>
      <point x="276" y="694" type="line"/>
      <point x="404" y="694" type="line"/>
      <point x="314" y="437" type="line"/>
      <point x="186" y="437" type="line"/>
    </contour>
    <contour>
      <point x="256" y="263" type="line"/>
      <point x="167" y="6" type="line"/>
      <point x="39" y="6" type="line"/>
      <point x="128" y="263" type="line"/>
    </contour>
  </outline>
</glyph>
<glyph name="section" format="1">
  <advance width="499"/>
  <unicode hex="00A7"/>
  <outline>
    <contour>
      <point x="496" y="559" type="line"/>
      <point x="475" y="586"/>
      <point x="452" y="608"/>
      <point x="415" y="608" type="curve" smooth="yes"/>
      <point x="394" y="608"/>
      <point x="351" y="596"/>
      <point x="344" y="572" type="curve" smooth="yes"/>
      <point x="335" y="539"/>
      <point x="395" y="526"/>
      <point x="416" y="516" type="curve" smooth="yes"/>
      <point x="475" y="492"/>
      <point x="521" y="441"/>
      <point x="502" y="374" type="curve" smooth="yes"/>
      <point x="472" y="269"/>
      <point x="358" y="240"/>
      <point x="262" y="234" type="curve"/>
      <point x="275" y="272" type="line"/>
      <point x="314" y="286"/>
      <point x="363" y="306"/>
      <point x="377" y="350" type="curve" smooth="yes"/>
      <point x="394" y="402"/>
      <point x="339" y="421"/>
      <point x="302" y="440" type="curve" smooth="yes"/>
      <point x="246" y="469"/>
      <point x="205" y="515"/>
      <point x="225" y="582" type="curve" smooth="yes"/>
      <point x="250" y="668"/>
      <point x="347" y="718"/>
      <point x="431" y="719" type="curve" smooth="yes"/>
      <point x="498" y="720"/>
      <point x="552" y="693"/>
      <point x="585" y="638" type="curve"/>
    </contour>
    <contour>
      <point x="110" y="169" type="line"/>
      <point x="131" y="129"/>
      <point x="161" y="92"/>
      <point x="216" y="93" type="curve" smooth="yes"/>
      <point x="243" y="93"/>
      <point x="286" y="107"/>
      <point x="295" y="135" type="curve" smooth="yes"/>
      <point x="308" y="173"/>
      <point x="254" y="187"/>
      <point x="229" y="200" type="curve" smooth="yes"/>
      <point x="169" y="225"/>
      <point x="112" y="270"/>
      <point x="133" y="342" type="curve" smooth="yes"/>
      <point x="162" y="446"/>
      <point x="283" y="472"/>
      <point x="376" y="478" type="curve"/>
      <point x="365" y="444" type="line"/>
      <point x="326" y="429"/>
      <point x="277" y="412"/>
      <point x="262" y="369" type="curve" smooth="yes"/>
      <point x="242" y="313"/>
      <point x="305" y="296"/>
      <point x="343" y="276" type="curve" smooth="yes"/>
      <point x="400" y="247"/>
      <point x="439" y="194"/>
      <point x="421" y="129" type="curve" smooth="yes"/>
      <point x="395" y="34"/>
      <point x="289" y="-19"/>
      <point x="197" y="-19" type="curve" smooth="yes"/>
      <point x="113" y="-19"/>
      <point x="53" y="24"/>
      <point x="20" y="91" type="curve"/>
    </contour>
  </outline>
</glyph>
<glyph name="dieresis" format="1">
  <advance width="498"/>
  <unicode hex="00A8"/>
  <outline>
    <contour>
      <point x="395" y="640" type="curve" smooth="yes"/>
      <point x="403" y="684"/>
      <point x="444" y="722"/>
      <point x="492" y="722" type="curve" smooth="yes"/>
      <point x="540" y="722"/>
      <point x="569" y="684"/>
      <point x="561" y="640" type="curve" smooth="yes"/>
      <point x="553" y="596"/>
      <point x="512" y="560"/>
      <point x="464" y="560" type="curve" smooth="yes"/>
      <point x="416" y="560"/>
      <point x="387" y="596"/>
    </contour>
    <contour>
      <point x="165" y="640" type="curve" smooth="yes"/>
      <point x="173" y="684"/>
      <point x="213" y="722"/>
      <point x="261" y="722" type="curve" smooth="yes"/>
      <point x="309" y="722"/>
      <point x="337" y="684"/>
      <point x="329" y="640" type="curve" smooth="yes"/>
      <point x="321" y="596"/>
      <point x="281" y="560"/>
      <point x="233" y="560" type="curve" smooth="yes"/>
      <point x="185" y="560"/>
      <point x="157" y="596"/>
    </contour>
  </outline>
</glyph>
<glyph name="copyright" format="1">
  <advance width="752"/>
  <unicode hex="00A9"/>
  <outline>
    <contour>
      <point x="334" y="350" type="curve" smooth="yes"/>
      <point x="312" y="286"/>
      <point x="337" y="219"/>
      <point x="411" y="217" type="curve" smooth="yes"/>
      <point x="464" y="215"/>
      <point x="512" y="243"/>
      <point x="554" y="271" type="curve"/>
      <point x="528" y="174" type="line"/>
      <point x="486" y="150"/>
      <point x="444" y="132"/>
      <point x="395" y="132" type="curve" smooth="yes"/>
      <point x="273" y="132"/>
      <point x="210" y="238"/>
      <point x="241" y="350" type="curve" smooth="yes"/>
      <point x="274" y="469"/>
      <point x="390" y="567"/>
      <point x="515" y="568" type="curve" smooth="yes"/>
      <point x="561" y="569"/>
      <point x="598" y="552"/>
      <point x="634" y="524" type="curve"/>
      <point x="607" y="427" type="line"/>
      <point x="581" y="461"/>
      <point x="552" y="484"/>
      <point x="507" y="484" type="curve" smooth="yes"/>
      <point x="430" y="484"/>
      <point x="358" y="421"/>
    </contour>
    <contour>
      <point x="165" y="350" type="curve" smooth="yes"/>
      <point x="118" y="206"/>
      <point x="177" y="42"/>
      <point x="347" y="41" type="curve" smooth="yes"/>
      <point x="523" y="40"/>
      <point x="682" y="189"/>
      <point x="735" y="350" type="curve" smooth="yes"/>
      <point x="782" y="494"/>
      <point x="723" y="658"/>
      <point x="553" y="659" type="curve" smooth="yes"/>
      <point x="377" y="660"/>
      <point x="218" y="511"/>
    </contour>
    <contour>
      <point x="109" y="350" type="curve" smooth="yes"/>
      <point x="164" y="541"/>
      <point x="347" y="711"/>
      <point x="552" y="710" type="curve" smooth="yes"/>
      <point x="750" y="709"/>
      <point x="841" y="527"/>
      <point x="791" y="350" type="curve" smooth="yes"/>
      <point x="736" y="159"/>
      <point x="552" y="-11"/>
      <point x="347" y="-10" type="curve" smooth="yes"/>
      <point x="149" y="-9"/>
      <point x="59" y="173"/>
    </contour>
  </outline>
</glyph>
<glyph name="ordfeminine" format="1">
  <advance width="245"/>
  <unicode hex="00AA"/>
  <outline>
    <contour>
      <point x="207" y="529" type="curve" smooth="yes"/>
      <point x="203" y="514"/>
      <point x="214" y="503"/>
      <point x="228" y="502" type="curve" smooth="yes"/>
      <point x="261" y="500"/>
      <point x="282" y="529"/>
      <point x="301" y="551" type="curve"/>
      <point x="301" y="523" type="line"/>
      <point x="277" y="487"/>
      <point x="248" y="455"/>
      <point x="201" y="456" type="curve" smooth="yes"/>
      <point x="159" y="457"/>
      <point x="129" y="489"/>
      <point x="142" y="531" type="curve" smooth="yes"/>
      <point x="156" y="577"/>
      <point x="212" y="605"/>
      <point x="257" y="605" type="curve" smooth="yes"/>
      <point x="285" y="605"/>
      <point x="307" y="595"/>
      <point x="329" y="579" type="curve"/>
      <point x="318" y="548" type="line"/>
      <point x="302" y="558"/>
      <point x="287" y="569"/>
      <point x="267" y="568" type="curve" smooth="yes"/>
      <point x="247" y="567"/>
      <point x="213" y="551"/>
    </contour>
    <contour>
      <point x="223" y="630" type="curve"/>
      <point x="214" y="680" type="line"/>
      <point x="245" y="692"/>
      <point x="278" y="706"/>
      <point x="312" y="705" type="curve" smooth="yes"/>
      <point x="357" y="704"/>
      <point x="397" y="681"/>
      <point x="389" y="631" type="curve"/>
      <point x="332" y="461" type="line"/>
      <point x="268" y="461" type="line"/>
      <point x="325" y="617" type="line"/>
      <point x="321" y="635"/>
      <point x="321" y="646"/>
      <point x="300" y="650" type="curve" smooth="yes"/>
      <point x="275" y="654"/>
      <point x="245" y="639"/>
    </contour>
  </outline>
</glyph>
<glyph name="guillemotleft" format="1">
  <advance width="500"/>
  <unicode hex="00AB"/>
  <outline>
    <contour>
      <point x="349" y="254" type="line"/>
      <point x="424" y="60" type="line"/>
      <point x="332" y="5" type="line"/>
      <point x="242" y="263" type="line"/>
      <point x="492" y="503" type="line"/>
      <point x="556" y="439" type="line"/>
    </contour>
    <contour>
      <point x="168" y="254" type="line"/>
      <point x="244" y="60" type="line"/>
      <point x="151" y="5" type="line"/>
      <point x="62" y="263" type="line"/>
      <point x="311" y="503" type="line"/>
      <point x="376" y="439" type="line"/>
    </contour>
  </outline>
</glyph>
<glyph name="logicalnot" format="1">
  <advance width="641"/>
  <unicode hex="00AC"/>
  <outline>
    <contour>
      <point x="114" y="280" type="line"/>
      <point x="134" y="394" type="line"/>
      <point x="645" y="394" type="line"/>
      <point x="625" y="280" type="line"/>
    </contour>
    <contour>
      <point x="546" y="375" type="line"/>
      <point x="642" y="375" type="line"/>
      <point x="607" y="175" type="line"/>
      <point x="511" y="175" type="line"/>
    </contour>
  </outline>
</glyph>
<glyph name="registered" format="1">
  <advance width="752"/>
  <unicode hex="00AE"/>
  <outline>
    <contour>
      <point x="416" y="336" type="line"/>
      <point x="492" y="336" type="line"/>
      <point x="557" y="149" type="line"/>
      <point x="462" y="149" type="line"/>
    </contour>
    <contour>
      <point x="383" y="569" type="line"/>
      <point x="470" y="569" type="line"/>
      <point x="340" y="151" type="line"/>
      <point x="254" y="151" type="line"/>
    </contour>
    <contour>
      <point x="412" y="495" type="line"/>
      <point x="434" y="569" type="line"/>
      <point x="513" y="570" type="line"/>
      <point x="587" y="566"/>
      <point x="651" y="521"/>
      <point x="630" y="439" type="curve" smooth="yes"/>
      <point x="609" y="356"/>
      <point x="525" y="311"/>
      <point x="444" y="307" type="curve"/>
      <point x="352" y="307" type="line"/>
      <point x="374" y="375" type="line"/>
      <point x="449" y="376" type="line"/>
      <point x="485" y="379"/>
      <point x="530" y="399"/>
      <point x="541" y="437" type="curve" smooth="yes"/>
      <point x="551" y="472"/>
      <point x="526" y="491"/>
      <point x="495" y="495" type="curve"/>
    </contour>
    <contour>
      <point x="165" y="350" type="curve" smooth="yes"/>
      <point x="118" y="206"/>
      <point x="177" y="42"/>
      <point x="347" y="41" type="curve" smooth="yes"/>
      <point x="523" y="40"/>
      <point x="682" y="189"/>
      <point x="735" y="350" type="curve" smooth="yes"/>
      <point x="782" y="494"/>
      <point x="723" y="658"/>
      <point x="553" y="659" type="curve" smooth="yes"/>
      <point x="377" y="660"/>
      <point x="218" y="511"/>
    </contour>
    <contour>
      <point x="109" y="350" type="curve" smooth="yes"/>
      <point x="164" y="540"/>
      <point x="347" y="711"/>
      <point x="552" y="710" type="curve" smooth="yes"/>
      <point x="750" y="709"/>
      <point x="841" y="527"/>
      <point x="791" y="350" type="curve" smooth="yes"/>
      <point x="736" y="160"/>
      <point x="552" y="-11"/>
      <point x="347" y="-10" type="curve" smooth="yes"/>
      <point x="149" y="-9"/>
      <point x="59" y="173"/>
    </contour>
  </outline>
</glyph>
<glyph name="macron" format="1">
  <advance width="494"/>
  <unicode hex="00AF"/>
  <outline>
    <contour>
      <point x="218" y="580" type="line"/>
      <point x="254" y="695" type="line"/>
      <point x="603" y="695" type="line"/>
      <point x="567" y="580" type="line"/>
    </contour>
  </outline>
</glyph>
<glyph name="degree" format="1">
  <advance width="273"/>
  <unicode hex="00B0"/>
  <outline>
    <contour>
      <point x="164" y="599" type="curve" smooth="yes"/>
      <point x="183" y="664"/>
      <point x="253" y="720"/>
      <point x="321" y="719" type="curve" smooth="yes"/>
      <point x="389" y="718"/>
      <point x="429" y="660"/>
      <point x="410" y="596" type="curve" smooth="yes"/>
      <point x="391" y="531"/>
      <point x="321" y="475"/>
      <point x="252" y="476" type="curve" smooth="yes"/>
      <point x="184" y="477"/>
      <point x="145" y="535"/>
    </contour>
    <contour>
      <point x="227" y="597" type="curve" smooth="yes"/>
      <point x="218" y="571"/>
      <point x="227" y="535"/>
      <point x="259" y="534" type="curve" smooth="yes"/>
      <point x="294" y="533"/>
      <point x="335" y="569"/>
      <point x="346" y="599" type="curve" smooth="yes"/>
      <point x="355" y="625"/>
      <point x="346" y="661"/>
      <point x="314" y="662" type="curve" smooth="yes"/>
      <point x="279" y="663"/>
      <point x="238" y="627"/>
    </contour>
  </outline>
</glyph>
<glyph name="plusminus" format="1">
  <advance width="590"/>
  <unicode hex="00B1"/>
  <outline>
    <contour>
      <point x="27" y="5" type="line"/>
      <point x="63" y="121" type="line"/>
      <point x="537" y="121" type="line"/>
      <point x="500" y="5" type="line"/>
    </contour>
    <contour>
      <point x="129" y="336" type="line"/>
      <point x="167" y="457" type="line"/>
      <point x="640" y="457" type="line"/>
      <point x="602" y="336" type="line"/>
    </contour>
    <contour>
      <point x="386" y="620" type="line"/>
      <point x="519" y="620" type="line"/>
      <point x="379" y="173" type="line"/>
      <point x="250" y="173" type="line"/>
    </contour>
  </outline>
</glyph>
<glyph name="uni00B2" format="1">
  <advance width="367"/>
  <unicode hex="00B2"/>
  <outline>
    <contour>
      <point x="60" y="284" type="line"/>
      <point x="306" y="481" type="line" smooth="yes"/>
      <point x="336" y="505"/>
      <point x="381" y="535"/>
      <point x="393" y="575" type="curve" smooth="yes"/>
      <point x="401" y="601"/>
      <point x="392" y="630"/>
      <point x="362" y="633" type="curve" smooth="yes"/>
      <point x="314" y="638"/>
      <point x="282" y="585"/>
      <point x="262" y="551" type="curve"/>
      <point x="176" y="552" type="line"/>
      <point x="211" y="634"/>
      <point x="279" y="710"/>
      <point x="376" y="709" type="curve" smooth="yes"/>
      <point x="451" y="708"/>
      <point x="503" y="650"/>
      <point x="481" y="576" type="curve" smooth="yes"/>
      <point x="467" y="529"/>
      <point x="428" y="493"/>
      <point x="391" y="464" type="curve" smooth="yes"/>
      <point x="257" y="364" type="line"/>
      <point x="415" y="362" type="line"/>
      <point x="387" y="283" type="line"/>
    </contour>
  </outline>
</glyph>
<glyph name="uni00B3" format="1">
  <advance width="329"/>
  <unicode hex="00B3"/>
  <outline>
    <contour>
      <point x="253" y="486" type="curve"/>
      <point x="266" y="526" type="line"/>
      <point x="303" y="534"/>
      <point x="352" y="547"/>
      <point x="365" y="588" type="curve" smooth="yes"/>
      <point x="372" y="610"/>
      <point x="362" y="633"/>
      <point x="337" y="635" type="curve" smooth="yes"/>
      <point x="303" y="637"/>
      <point x="280" y="607"/>
      <point x="262" y="584" type="curve"/>
      <point x="179" y="585" type="line"/>
      <point x="212" y="651"/>
      <point x="269" y="706"/>
      <point x="348" y="706" type="curve" smooth="yes"/>
      <point x="413" y="705"/>
      <point x="469" y="660"/>
      <point x="448" y="591" type="curve" smooth="yes"/>
      <point x="423" y="509"/>
      <point x="326" y="492"/>
    </contour>
    <contour>
      <point x="210" y="272" type="curve" smooth="yes"/>
      <point x="126" y="273"/>
      <point x="92" y="330"/>
      <point x="100" y="407" type="curve"/>
      <point x="182" y="407" type="line"/>
      <point x="182" y="376"/>
      <point x="183" y="348"/>
      <point x="222" y="345" type="curve" smooth="yes"/>
      <point x="255" y="343"/>
      <point x="299" y="373"/>
      <point x="309" y="404" type="curve" smooth="yes"/>
      <point x="325" y="451"/>
      <point x="279" y="460"/>
      <point x="244" y="467" type="curve"/>
      <point x="259" y="512" type="line"/>
      <point x="330" y="506"/>
      <point x="419" y="482"/>
      <point x="393" y="392" type="curve" smooth="yes"/>
      <point x="372" y="316"/>
      <point x="284" y="271"/>
    </contour>
  </outline>
</glyph>
<glyph name="acute" format="1">
  <advance width="352"/>
  <unicode hex="00B4"/>
  <outline>
    <contour>
      <point x="465" y="651" type="line"/>
      <point x="253" y="507" type="line"/>
      <point x="186" y="549" type="line"/>
      <point x="373" y="704" type="line"/>
    </contour>
  </outline>
</glyph>
<glyph name="paragraph" format="1">
  <advance width="607"/>
  <unicode hex="00B6"/>
  <outline>
    <contour>
      <point x="424" y="615" type="line"/>
      <point x="454" y="699" type="line"/>
      <point x="667" y="699" type="line"/>
      <point x="638" y="615" type="line"/>
    </contour>
    <contour>
      <point x="626" y="699" type="line"/>
      <point x="739" y="699" type="line"/>
      <point x="425" y="-219" type="line"/>
      <point x="312" y="-219" type="line"/>
    </contour>
    <contour>
      <point x="454" y="699" type="line"/>
      <point x="567" y="699" type="line"/>
      <point x="252" y="-219" type="line"/>
      <point x="140" y="-219" type="line"/>
    </contour>
    <contour>
      <point x="314" y="271" type="line"/>
      <point x="194" y="284"/>
      <point x="128" y="366"/>
      <point x="166" y="486" type="curve" smooth="yes"/>
      <point x="207" y="617"/>
      <point x="323" y="699"/>
      <point x="454" y="699" type="curve"/>
    </contour>
  </outline>
</glyph>
<glyph name="periodcentered" format="1">
  <advance width="297"/>
  <unicode hex="00B7"/>
  <outline>
    <contour>
      <point x="103" y="262" type="curve" smooth="yes"/>
      <point x="114" y="302"/>
      <point x="164" y="344"/>
      <point x="206" y="342" type="curve" smooth="yes"/>
      <point x="250" y="340"/>
      <point x="275" y="299"/>
      <point x="264" y="258" type="curve" smooth="yes"/>
      <point x="253" y="218"/>
      <point x="203" y="177"/>
      <point x="161" y="179" type="curve" smooth="yes"/>
      <point x="117" y="181"/>
      <point x="92" y="221"/>
    </contour>
  </outline>
</glyph>
<glyph name="cedilla" format="1">
  <advance width="359"/>
  <unicode hex="00B8"/>
  <outline>
    <contour>
      <point x="139" y="67" type="line"/>
      <point x="240" y="64" type="line"/>
      <point x="118" y="-54" type="line"/>
      <point x="125" y="-53"/>
      <point x="133" y="-52"/>
      <point x="140" y="-52" type="curve" smooth="yes"/>
      <point x="188" y="-58"/>
      <point x="211" y="-98"/>
      <point x="199" y="-144" type="curve" smooth="yes"/>
      <point x="182" y="-206"/>
      <point x="112" y="-245"/>
      <point x="52" y="-246" type="curve" smooth="yes"/>
      <point x="7" y="-247"/>
      <point x="-29" y="-230"/>
      <point x="-65" y="-205" type="curve"/>
      <point x="-10" y="-149" type="line"/>
      <point x="8" y="-161"/>
      <point x="26" y="-173"/>
      <point x="50" y="-173" type="curve" smooth="yes"/>
      <point x="70" y="-173"/>
      <point x="113" y="-156"/>
      <point x="118" y="-134" type="curve" smooth="yes"/>
      <point x="123" y="-113"/>
      <point x="96" y="-104"/>
      <point x="81" y="-103" type="curve" smooth="yes"/>
      <point x="54" y="-101"/>
      <point x="25" y="-110"/>
      <point x="-1" y="-117" type="curve"/>
    </contour>
  </outline>
</glyph>
<glyph name="uni00B9" format="1">
  <advance width="478"/>
  <unicode hex="00B9"/>
  <outline>
    <contour>
      <point x="241" y="584" type="line"/>
      <point x="255" y="662" type="line"/>
      <point x="448" y="702" type="line"/>
      <point x="372" y="274" type="line"/>
      <point x="288" y="274" type="line"/>
      <point x="348" y="610" type="line"/>
    </contour>
  </outline>
</glyph>
<glyph name="ordmasculine" format="1">
  <advance width="261"/>
  <unicode hex="00BA"/>
  <outline>
    <contour>
      <point x="160" y="581" type="curve" smooth="yes"/>
      <point x="179" y="646"/>
      <point x="248" y="700"/>
      <point x="316" y="699" type="curve" smooth="yes"/>
      <point x="383" y="698"/>
      <point x="424" y="643"/>
      <point x="405" y="579" type="curve" smooth="yes"/>
      <point x="386" y="514"/>
      <point x="316" y="460"/>
      <point x="248" y="461" type="curve" smooth="yes"/>
      <point x="181" y="462"/>
      <point x="141" y="517"/>
    </contour>
    <contour>
      <point x="225" y="579" type="curve" smooth="yes"/>
      <point x="216" y="554"/>
      <point x="223" y="518"/>
      <point x="255" y="517" type="curve" smooth="yes"/>
      <point x="289" y="516"/>
      <point x="328" y="551"/>
      <point x="339" y="581" type="curve" smooth="yes"/>
      <point x="348" y="606"/>
      <point x="341" y="642"/>
      <point x="309" y="643" type="curve" smooth="yes"/>
      <point x="275" y="644"/>
      <point x="236" y="609"/>
    </contour>
  </outline>
</glyph>
<glyph name="guillemotright" format="1">
  <advance width="500"/>
  <unicode hex="00BB"/>
  <outline>
    <contour>
      <point x="218" y="256" type="line"/>
      <point x="142" y="450" type="line"/>
      <point x="235" y="505" type="line"/>
      <point x="325" y="247" type="line"/>
      <point x="75" y="7" type="line"/>
      <point x="11" y="71" type="line"/>
    </contour>
    <contour>
      <point x="399" y="256" type="line"/>
      <point x="323" y="450" type="line"/>
      <point x="416" y="505" type="line"/>
      <point x="505" y="247" type="line"/>
      <point x="255" y="7" type="line"/>
      <point x="191" y="71" type="line"/>
    </contour>
  </outline>
</glyph>
<glyph name="onequarter" format="1">
  <advance width="755"/>
  <unicode hex="00BC"/>
  <outline>
    <contour>
      <point x="768" y="698" type="line"/>
      <point x="863" y="698" type="line"/>
      <point x="135" y="0" type="line"/>
      <point x="41" y="0" type="line"/>
    </contour>
    <contour>
      <point x="167" y="583" type="line"/>
      <point x="194" y="663" type="line"/>
      <point x="389" y="703" type="line"/>
      <point x="241" y="275" type="line"/>
      <point x="156" y="275" type="line"/>
      <point x="269" y="606" type="line"/>
    </contour>
    <contour>
      <point x="347" y="79" type="line"/>
      <point x="435" y="141" type="line"/>
      <point x="608" y="143" type="line"/>
      <point x="622" y="152" type="line"/>
      <point x="727" y="152" type="line"/>
      <point x="700" y="78" type="line"/>
    </contour>
    <contour>
      <point x="449" y="100" type="line"/>
      <point x="342" y="75" type="line"/>
      <point x="691" y="418" type="line"/>
      <point x="756" y="419" type="line"/>
      <point x="612" y="0" type="line"/>
      <point x="522" y="0" type="line"/>
      <point x="556" y="99" type="line"/>
      <point x="565" y="105" type="line"/>
      <point x="623" y="268" type="line"/>
    </contour>
  </outline>
</glyph>
<glyph name="onehalf" format="1">
  <advance width="821"/>
  <unicode hex="00BD"/>
  <outline>
    <contour>
      <point x="768" y="698" type="line"/>
      <point x="863" y="698" type="line"/>
      <point x="135" y="0" type="line"/>
      <point x="41" y="0" type="line"/>
    </contour>
    <contour>
      <point x="167" y="583" type="line"/>
      <point x="194" y="663" type="line"/>
      <point x="389" y="703" type="line"/>
      <point x="241" y="275" type="line"/>
      <point x="156" y="275" type="line"/>
      <point x="269" y="606" type="line"/>
    </contour>
    <contour>
      <point x="414" y="4" type="line"/>
      <point x="660" y="201" type="line" smooth="yes"/>
      <point x="690" y="225"/>
      <point x="735" y="255"/>
      <point x="747" y="295" type="curve" smooth="yes"/>
      <point x="755" y="321"/>
      <point x="745" y="349"/>
      <point x="715" y="352" type="curve" smooth="yes"/>
      <point x="667" y="357"/>
      <point x="636" y="305"/>
      <point x="616" y="271" type="curve"/>
      <point x="530" y="272" type="line"/>
      <point x="565" y="354"/>
      <point x="632" y="430"/>
      <point x="729" y="429" type="curve" smooth="yes"/>
      <point x="804" y="428"/>
      <point x="856" y="370"/>
      <point x="834" y="296" type="curve" smooth="yes"/>
      <point x="820" y="249"/>
      <point x="781" y="213"/>
      <point x="744" y="184" type="curve" smooth="yes"/>
      <point x="610" y="84" type="line"/>
      <point x="768" y="82" type="line"/>
      <point x="741" y="3" type="line"/>
    </contour>
  </outline>
</glyph>
<glyph name="threequarters" format="1">
  <advance width="811"/>
  <unicode hex="00BE"/>
  <outline>
    <contour>
      <point x="829" y="698" type="line"/>
      <point x="923" y="698" type="line"/>
      <point x="196" y="0" type="line"/>
      <point x="102" y="0" type="line"/>
    </contour>
    <contour>
      <point x="260" y="486" type="curve"/>
      <point x="273" y="526" type="line"/>
      <point x="310" y="534"/>
      <point x="358" y="547"/>
      <point x="371" y="588" type="curve" smooth="yes"/>
      <point x="378" y="610"/>
      <point x="369" y="633"/>
      <point x="344" y="635" type="curve" smooth="yes"/>
      <point x="310" y="637"/>
      <point x="286" y="607"/>
      <point x="268" y="584" type="curve"/>
      <point x="186" y="585" type="line"/>
      <point x="219" y="651"/>
      <point x="275" y="706"/>
      <point x="354" y="706" type="curve" smooth="yes"/>
      <point x="419" y="705"/>
      <point x="476" y="660"/>
      <point x="455" y="591" type="curve" smooth="yes"/>
      <point x="430" y="509"/>
      <point x="333" y="492"/>
    </contour>
    <contour>
      <point x="217" y="272" type="curve" smooth="yes"/>
      <point x="133" y="273"/>
      <point x="99" y="330"/>
      <point x="107" y="407" type="curve"/>
      <point x="189" y="407" type="line"/>
      <point x="189" y="376"/>
      <point x="190" y="348"/>
      <point x="229" y="345" type="curve" smooth="yes"/>
      <point x="262" y="343"/>
      <point x="306" y="373"/>
      <point x="316" y="404" type="curve" smooth="yes"/>
      <point x="332" y="451"/>
      <point x="286" y="460"/>
      <point x="251" y="467" type="curve"/>
      <point x="266" y="512" type="line"/>
      <point x="337" y="506"/>
      <point x="425" y="482"/>
      <point x="399" y="392" type="curve" smooth="yes"/>
      <point x="378" y="316"/>
      <point x="291" y="271"/>
    </contour>
    <contour>
      <point x="404" y="79" type="line"/>
      <point x="492" y="141" type="line"/>
      <point x="665" y="143" type="line"/>
      <point x="678" y="152" type="line"/>
      <point x="783" y="152" type="line"/>
      <point x="757" y="78" type="line"/>
    </contour>
    <contour>
      <point x="506" y="100" type="line"/>
      <point x="399" y="75" type="line"/>
      <point x="748" y="418" type="line"/>
      <point x="812" y="419" type="line"/>
      <point x="669" y="0" type="line"/>
      <point x="578" y="0" type="line"/>
      <point x="612" y="99" type="line"/>
      <point x="622" y="105" type="line"/>
      <point x="680" y="268" type="line"/>
    </contour>
  </outline>
</glyph>
<glyph name="questiondown" format="1">
  <advance width="571"/>
  <unicode hex="00BF"/>
  <outline>
    <contour>
      <point x="192" y="200" type="curve" smooth="yes"/>
      <point x="171" y="142"/>
      <point x="203" y="99"/>
      <point x="263" y="98" type="curve" smooth="yes"/>
      <point x="330" y="96"/>
      <point x="391" y="141"/>
      <point x="439" y="182" type="curve"/>
      <point x="510" y="106" type="line"/>
      <point x="432" y="39"/>
      <point x="339" y="-18"/>
      <point x="232" y="-16" type="curve" smooth="yes"/>
      <point x="111" y="-14"/>
      <point x="27" y="81"/>
      <point x="64" y="201" type="curve" smooth="yes"/>
      <point x="101" y="321"/>
      <point x="217" y="388"/>
      <point x="333" y="414" type="curve"/>
      <point x="372" y="507" type="line"/>
      <point x="478" y="507" type="line"/>
      <point x="439" y="330" type="line"/>
      <point x="413" y="330" type="line"/>
      <point x="331" y="326"/>
      <point x="222" y="284"/>
    </contour>
    <contour>
      <point x="554" y="644" type="curve" smooth="yes"/>
      <point x="544" y="605"/>
      <point x="492" y="570"/>
      <point x="453" y="572" type="curve" smooth="yes"/>
      <point x="413" y="574"/>
      <point x="383" y="607"/>
      <point x="393" y="648" type="curve" smooth="yes"/>
      <point x="403" y="687"/>
      <point x="454" y="723"/>
      <point x="493" y="721" type="curve" smooth="yes"/>
      <point x="533" y="719"/>
      <point x="564" y="685"/>
    </contour>
  </outline>
</glyph>
<glyph name="Aacute" format="1">
  <advance width="671"/>
  <unicode hex="00C1"/>
  <outline>
    <contour>
      <point x="161" y="156" type="line"/>
      <point x="215" y="270" type="line"/>
      <point x="538" y="271" type="line"/>
      <point x="513" y="155" type="line"/>
    </contour>
    <contour>
      <point x="448" y="469" type="line"/>
      <point x="267" y="229" type="line"/>
      <point x="260" y="196" type="line"/>
      <point x="107" y="0" type="line"/>
      <point x="-61" y="0" type="line"/>
      <point x="534" y="746" type="line"/>
      <point x="616" y="0" type="line"/>
      <point x="463" y="0" type="line"/>
      <point x="443" y="191" type="line"/>
      <point x="459" y="228" type="line"/>
    </contour>
    <contour>
      <point x="751" y="946" type="line"/>
      <point x="535" y="803" type="line"/>
      <point x="469" y="846" type="line"/>
      <point x="660" y="999" type="line"/>
    </contour>
  </outline>
</glyph>
<glyph name="Acircumflex" format="1">
  <advance width="671"/>
  <unicode hex="00C2"/>
  <outline>
    <contour>
      <point x="161" y="156" type="line"/>
      <point x="215" y="270" type="line"/>
      <point x="538" y="271" type="line"/>
      <point x="513" y="155" type="line"/>
    </contour>
    <contour>
      <point x="448" y="469" type="line"/>
      <point x="267" y="229" type="line"/>
      <point x="260" y="196" type="line"/>
      <point x="107" y="0" type="line"/>
      <point x="-61" y="0" type="line"/>
      <point x="534" y="746" type="line"/>
      <point x="616" y="0" type="line"/>
      <point x="463" y="0" type="line"/>
      <point x="443" y="191" type="line"/>
      <point x="459" y="228" type="line"/>
    </contour>
    <contour>
      <point x="585" y="866" type="line"/>
      <point x="464" y="781" type="line"/>
      <point x="392" y="848" type="line"/>
      <point x="611" y="983" type="line"/>
      <point x="747" y="838" type="line"/>
      <point x="645" y="780" type="line"/>
    </contour>
  </outline>
</glyph>
<glyph name="Atilde" format="1">
  <advance width="671"/>
  <unicode hex="00C3"/>
  <outline>
    <contour>
      <point x="161" y="156" type="line"/>
      <point x="215" y="270" type="line"/>
      <point x="538" y="271" type="line"/>
      <point x="513" y="155" type="line"/>
    </contour>
    <contour>
      <point x="448" y="469" type="line"/>
      <point x="267" y="229" type="line"/>
      <point x="260" y="196" type="line"/>
      <point x="107" y="0" type="line"/>
      <point x="-61" y="0" type="line"/>
      <point x="534" y="746" type="line"/>
      <point x="616" y="0" type="line"/>
      <point x="463" y="0" type="line"/>
      <point x="443" y="191" type="line"/>
      <point x="459" y="228" type="line"/>
    </contour>
    <contour>
      <point x="393" y="852" type="line"/>
      <point x="424" y="894"/>
      <point x="470" y="942"/>
      <point x="527" y="939" type="curve" smooth="yes"/>
      <point x="569" y="937"/>
      <point x="592" y="888"/>
      <point x="634" y="891" type="curve" smooth="yes"/>
      <point x="665" y="893"/>
      <point x="692" y="921"/>
      <point x="714" y="940" type="curve"/>
      <point x="760" y="872" type="line"/>
      <point x="726" y="836"/>
      <point x="673" y="790"/>
      <point x="618" y="794" type="curve" smooth="yes"/>
      <point x="577" y="797"/>
      <point x="552" y="848"/>
      <point x="510" y="843" type="curve" smooth="yes"/>
      <point x="480" y="840"/>
      <point x="461" y="815"/>
      <point x="444" y="794" type="curve"/>
    </contour>
  </outline>
</glyph>
<glyph name="Adieresis" format="1">
  <advance width="712"/>
  <unicode hex="00C4"/>
  <outline>
    <contour>
      <point x="201" y="158" type="line"/>
      <point x="238" y="272" type="line"/>
      <point x="575" y="272" type="line"/>
      <point x="571" y="158" type="line"/>
    </contour>
    <contour>
      <point x="439" y="472" type="line"/>
      <point x="293" y="231" type="line"/>
      <point x="290" y="199" type="line"/>
      <point x="163" y="0" type="line"/>
      <point x="0" y="0" type="line"/>
      <point x="487" y="742" type="line"/>
      <point x="712" y="0" type="line"/>
      <point x="549" y="0" type="line"/>
      <point x="494" y="192" type="line"/>
      <point x="501" y="229" type="line"/>
    </contour>
    <contour>
      <point x="558" y="834" type="curve" smooth="yes"/>
      <point x="566" y="878"/>
      <point x="607" y="916"/>
      <point x="655" y="916" type="curve" smooth="yes"/>
      <point x="703" y="916"/>
      <point x="731" y="878"/>
      <point x="723" y="834" type="curve" smooth="yes"/>
      <point x="715" y="790"/>
      <point x="674" y="754"/>
      <point x="626" y="754" type="curve" smooth="yes"/>
      <point x="578" y="754"/>
      <point x="550" y="790"/>
    </contour>
    <contour>
      <point x="283" y="834" type="curve" smooth="yes"/>
      <point x="291" y="878"/>
      <point x="333" y="916"/>
      <point x="381" y="916" type="curve" smooth="yes"/>
      <point x="429" y="916"/>
      <point x="456" y="878"/>
      <point x="448" y="834" type="curve" smooth="yes"/>
      <point x="440" y="790"/>
      <point x="400" y="754"/>
      <point x="352" y="754" type="curve" smooth="yes"/>
      <point x="304" y="754"/>
      <point x="275" y="790"/>
    </contour>
  </outline>
</glyph>
<glyph name="Aring" format="1">
  <advance width="671"/>
  <unicode hex="00C5"/>
  <outline>
    <contour>
      <point x="161" y="156" type="line"/>
      <point x="215" y="270" type="line"/>
      <point x="538" y="271" type="line"/>
      <point x="513" y="155" type="line"/>
    </contour>
    <contour>
      <point x="448" y="469" type="line"/>
      <point x="267" y="229" type="line"/>
      <point x="260" y="196" type="line"/>
      <point x="107" y="0" type="line"/>
      <point x="-61" y="0" type="line"/>
      <point x="534" y="746" type="line"/>
      <point x="616" y="0" type="line"/>
      <point x="463" y="0" type="line"/>
      <point x="443" y="191" type="line"/>
      <point x="459" y="228" type="line"/>
    </contour>
    <contour>
      <point x="441" y="802" type="curve" smooth="yes"/>
      <point x="458" y="861"/>
      <point x="524" y="911"/>
      <point x="586" y="910" type="curve" smooth="yes"/>
      <point x="648" y="909"/>
      <point x="686" y="857"/>
      <point x="669" y="798" type="curve" smooth="yes"/>
      <point x="652" y="739"/>
      <point x="585" y="688"/>
      <point x="523" y="689" type="curve" smooth="yes"/>
      <point x="461" y="690"/>
      <point x="424" y="743"/>
    </contour>
    <contour>
      <point x="510" y="798" type="curve" smooth="yes"/>
      <point x="504" y="780"/>
      <point x="512" y="755"/>
      <point x="533" y="752" type="curve" smooth="yes"/>
      <point x="556" y="749"/>
      <point x="594" y="780"/>
      <point x="600" y="801" type="curve" smooth="yes"/>
      <point x="606" y="819"/>
      <point x="597" y="845"/>
      <point x="576" y="848" type="curve" smooth="yes"/>
      <point x="553" y="851"/>
      <point x="516" y="819"/>
    </contour>
  </outline>
</glyph>
<glyph name="AE" format="1">
  <advance width="988"/>
  <unicode hex="00C6"/>
  <outline>
    <contour>
      <point x="241" y="167" type="line"/>
      <point x="292" y="301" type="line"/>
      <point x="579" y="301" type="line"/>
      <point x="532" y="167" type="line"/>
    </contour>
    <contour>
      <point x="602" y="700" type="line"/>
      <point x="715" y="655" type="line"/>
      <point x="133" y="0" type="line"/>
      <point x="-48" y="0" type="line"/>
    </contour>
    <contour>
      <point x="514" y="0" type="line"/>
      <point x="556" y="123" type="line"/>
      <point x="915" y="123" type="line"/>
      <point x="872" y="0" type="line"/>
    </contour>
    <contour>
      <point x="727" y="577" type="line"/>
      <point x="602" y="700" type="line"/>
      <point x="1111" y="700" type="line"/>
      <point x="1069" y="577" type="line"/>
    </contour>
    <contour>
      <point x="620" y="311" type="line"/>
      <point x="661" y="431" type="line"/>
      <point x="1001" y="431" type="line"/>
      <point x="959" y="310" type="line"/>
    </contour>
    <contour>
      <point x="683" y="699" type="line"/>
      <point x="836" y="700" type="line"/>
      <point x="595" y="0" type="line"/>
      <point x="446" y="0" type="line"/>
    </contour>
  </outline>
</glyph>
<glyph name="Ccedilla" format="1">
  <advance width="654"/>
  <unicode hex="00C7"/>
  <outline>
    <contour>
      <point x="250" y="350" type="curve" smooth="yes"/>
      <point x="212" y="245"/>
      <point x="248" y="130"/>
      <point x="373" y="127" type="curve" smooth="yes"/>
      <point x="462" y="125"/>
      <point x="543" y="172"/>
      <point x="613" y="220" type="curve"/>
      <point x="564" y="57" type="line"/>
      <point x="494" y="14"/>
      <point x="419" y="-16"/>
      <point x="336" y="-15" type="curve" smooth="yes"/>
      <point x="132" y="-14"/>
      <point x="37" y="167"/>
      <point x="96" y="350" type="curve" smooth="yes"/>
      <point x="159" y="549"/>
      <point x="354" y="714"/>
      <point x="567" y="715" type="curve" smooth="yes"/>
      <point x="642" y="716"/>
      <point x="703" y="690"/>
      <point x="758" y="641" type="curve"/>
      <point x="708" y="478" type="line"/>
      <point x="671" y="539"/>
      <point x="616" y="573"/>
      <point x="543" y="573" type="curve" smooth="yes"/>
      <point x="414" y="572"/>
      <point x="294" y="468"/>
    </contour>
    <contour>
      <point x="300" y="49" type="line"/>
      <point x="401" y="47" type="line"/>
      <point x="278" y="-71" type="line"/>
      <point x="285" y="-70"/>
      <point x="295" y="-69"/>
      <point x="302" y="-69" type="curve" smooth="yes"/>
      <point x="350" y="-75"/>
      <point x="373" y="-116"/>
      <point x="360" y="-161" type="curve" smooth="yes"/>
      <point x="343" y="-222"/>
      <point x="273" y="-261"/>
      <point x="213" y="-263" type="curve" smooth="yes"/>
      <point x="168" y="-264"/>
      <point x="131" y="-246"/>
      <point x="95" y="-222" type="curve"/>
      <point x="151" y="-166" type="line"/>
      <point x="169" y="-178"/>
      <point x="187" y="-190"/>
      <point x="211" y="-190" type="curve" smooth="yes"/>
      <point x="231" y="-190"/>
      <point x="274" y="-173"/>
      <point x="279" y="-151" type="curve" smooth="yes"/>
      <point x="284" y="-130"/>
      <point x="257" y="-121"/>
      <point x="242" y="-120" type="curve" smooth="yes"/>
      <point x="215" y="-118"/>
      <point x="186" y="-127"/>
      <point x="160" y="-134" type="curve"/>
    </contour>
  </outline>
</glyph>
<glyph name="Egrave" format="1">
  <advance width="553"/>
  <unicode hex="00C8"/>
  <outline>
    <contour>
      <point x="104" y="0" type="line"/>
      <point x="147" y="123" type="line"/>
      <point x="484" y="123" type="line"/>
      <point x="441" y="0" type="line"/>
    </contour>
    <contour>
      <point x="302" y="577" type="line"/>
      <point x="344" y="700" type="line"/>
      <point x="680" y="700" type="line"/>
      <point x="638" y="577" type="line"/>
    </contour>
    <contour>
      <point x="210" y="311" type="line"/>
      <point x="252" y="431" type="line"/>
      <point x="570" y="431" type="line"/>
      <point x="528" y="310" type="line"/>
    </contour>
    <contour>
      <point x="253" y="699" type="line"/>
      <point x="393" y="700" type="line"/>
      <point x="152" y="0" type="line"/>
      <point x="16" y="0" type="line"/>
    </contour>
    <contour>
      <point x="400" y="933" type="line"/>
      <point x="511" y="979" type="line"/>
      <point x="602" y="814" type="line"/>
      <point x="525" y="779" type="line"/>
    </contour>
  </outline>
</glyph>
<glyph name="Eacute" format="1">
  <advance width="553"/>
  <unicode hex="00C9"/>
  <outline>
    <contour>
      <point x="104" y="0" type="line"/>
      <point x="147" y="123" type="line"/>
      <point x="484" y="123" type="line"/>
      <point x="441" y="0" type="line"/>
    </contour>
    <contour>
      <point x="302" y="577" type="line"/>
      <point x="344" y="700" type="line"/>
      <point x="680" y="700" type="line"/>
      <point x="638" y="577" type="line"/>
    </contour>
    <contour>
      <point x="210" y="311" type="line"/>
      <point x="252" y="431" type="line"/>
      <point x="570" y="431" type="line"/>
      <point x="528" y="310" type="line"/>
    </contour>
    <contour>
      <point x="253" y="699" type="line"/>
      <point x="393" y="700" type="line"/>
      <point x="152" y="0" type="line"/>
      <point x="16" y="0" type="line"/>
    </contour>
    <contour>
      <point x="688" y="923" type="line"/>
      <point x="473" y="781" type="line"/>
      <point x="406" y="823" type="line"/>
      <point x="598" y="977" type="line"/>
    </contour>
  </outline>
</glyph>
<glyph name="Edieresis" format="1">
  <advance width="553"/>
  <unicode hex="00CB"/>
  <outline>
    <contour>
      <point x="104" y="0" type="line"/>
      <point x="147" y="123" type="line"/>
      <point x="484" y="123" type="line"/>
      <point x="441" y="0" type="line"/>
    </contour>
    <contour>
      <point x="302" y="577" type="line"/>
      <point x="344" y="700" type="line"/>
      <point x="680" y="700" type="line"/>
      <point x="638" y="577" type="line"/>
    </contour>
    <contour>
      <point x="210" y="311" type="line"/>
      <point x="252" y="431" type="line"/>
      <point x="570" y="431" type="line"/>
      <point x="528" y="310" type="line"/>
    </contour>
    <contour>
      <point x="253" y="699" type="line"/>
      <point x="393" y="700" type="line"/>
      <point x="152" y="0" type="line"/>
      <point x="16" y="0" type="line"/>
    </contour>
    <contour>
      <point x="559" y="862" type="curve" smooth="yes"/>
      <point x="569" y="899"/>
      <point x="618" y="936"/>
      <point x="656" y="934" type="curve" smooth="yes"/>
      <point x="696" y="932"/>
      <point x="721" y="897"/>
      <point x="711" y="858" type="curve" smooth="yes"/>
      <point x="701" y="821"/>
      <point x="653" y="784"/>
      <point x="615" y="786" type="curve" smooth="yes"/>
      <point x="575" y="788"/>
      <point x="549" y="823"/>
    </contour>
    <contour>
      <point x="341" y="862" type="curve" smooth="yes"/>
      <point x="351" y="899"/>
      <point x="399" y="936"/>
      <point x="437" y="934" type="curve" smooth="yes"/>
      <point x="477" y="932"/>
      <point x="503" y="897"/>
      <point x="493" y="858" type="curve" smooth="yes"/>
      <point x="483" y="821"/>
      <point x="435" y="784"/>
      <point x="397" y="786" type="curve" smooth="yes"/>
      <point x="357" y="788"/>
      <point x="331" y="823"/>
    </contour>
  </outline>
</glyph>
<glyph name="Igrave" format="1">
  <advance width="281"/>
  <unicode hex="00CC"/>
  <outline>
    <contour>
      <point x="253" y="699" type="line"/>
      <point x="399" y="700" type="line"/>
      <point x="158" y="0" type="line"/>
      <point x="16" y="0" type="line"/>
    </contour>
    <contour>
      <point x="256" y="933" type="line"/>
      <point x="366" y="979" type="line"/>
      <point x="457" y="814" type="line"/>
      <point x="380" y="779" type="line"/>
    </contour>
  </outline>
</glyph>
<glyph name="Iacute" format="1">
  <advance width="281"/>
  <unicode hex="00CD"/>
  <outline>
    <contour>
      <point x="253" y="699" type="line"/>
      <point x="399" y="700" type="line"/>
      <point x="158" y="0" type="line"/>
      <point x="16" y="0" type="line"/>
    </contour>
    <contour>
      <point x="543" y="923" type="line"/>
      <point x="327" y="780" type="line"/>
      <point x="262" y="823" type="line"/>
      <point x="453" y="977" type="line"/>
    </contour>
  </outline>
</glyph>
<glyph name="Icircumflex" format="1">
  <advance width="281"/>
  <unicode hex="00CE"/>
  <outline>
    <contour>
      <point x="253" y="699" type="line"/>
      <point x="399" y="700" type="line"/>
      <point x="158" y="0" type="line"/>
      <point x="16" y="0" type="line"/>
    </contour>
    <contour>
      <point x="389" y="877" type="line"/>
      <point x="251" y="784" type="line"/>
      <point x="211" y="828" type="line"/>
      <point x="405" y="964" type="line"/>
      <point x="515" y="820" type="line"/>
      <point x="460" y="784" type="line"/>
    </contour>
  </outline>
</glyph>
<glyph name="Idieresis" format="1">
  <advance width="281"/>
  <unicode hex="00CF"/>
  <outline>
    <contour>
      <point x="253" y="699" type="line"/>
      <point x="399" y="700" type="line"/>
      <point x="158" y="0" type="line"/>
      <point x="16" y="0" type="line"/>
    </contour>
    <contour>
      <point x="410" y="852" type="curve" smooth="yes"/>
      <point x="420" y="889"/>
      <point x="468" y="925"/>
      <point x="506" y="923" type="curve" smooth="yes"/>
      <point x="546" y="921"/>
      <point x="572" y="886"/>
      <point x="562" y="847" type="curve" smooth="yes"/>
      <point x="552" y="810"/>
      <point x="504" y="774"/>
      <point x="466" y="776" type="curve" smooth="yes"/>
      <point x="426" y="778"/>
      <point x="400" y="813"/>
    </contour>
    <contour>
      <point x="192" y="852" type="curve" smooth="yes"/>
      <point x="202" y="889"/>
      <point x="249" y="925"/>
      <point x="287" y="923" type="curve" smooth="yes"/>
      <point x="327" y="921"/>
      <point x="354" y="886"/>
      <point x="344" y="847" type="curve" smooth="yes"/>
      <point x="334" y="810"/>
      <point x="285" y="774"/>
      <point x="247" y="776" type="curve" smooth="yes"/>
      <point x="207" y="778"/>
      <point x="182" y="813"/>
    </contour>
  </outline>
</glyph>
<glyph name="Ntilde" format="1">
  <advance width="741"/>
  <unicode hex="00D1"/>
  <outline>
    <contour>
      <point x="721" y="700" type="line"/>
      <point x="859" y="700" type="line"/>
      <point x="608" y="-32" type="line"/>
      <point x="300" y="430" type="line"/>
      <point x="152" y="0" type="line"/>
      <point x="13" y="0" type="line"/>
      <point x="265" y="732" type="line"/>
      <point x="572" y="270" type="line"/>
    </contour>
    <contour>
      <point x="397" y="825" type="line"/>
      <point x="428" y="867"/>
      <point x="473" y="915"/>
      <point x="530" y="912" type="curve" smooth="yes"/>
      <point x="572" y="910"/>
      <point x="596" y="861"/>
      <point x="638" y="864" type="curve" smooth="yes"/>
      <point x="669" y="866"/>
      <point x="695" y="895"/>
      <point x="717" y="914" type="curve"/>
      <point x="763" y="845" type="line"/>
      <point x="729" y="809"/>
      <point x="677" y="763"/>
      <point x="622" y="767" type="curve" smooth="yes"/>
      <point x="581" y="770"/>
      <point x="555" y="821"/>
      <point x="513" y="816" type="curve" smooth="yes"/>
      <point x="483" y="813"/>
      <point x="465" y="788"/>
      <point x="448" y="767" type="curve"/>
    </contour>
  </outline>
</glyph>
<glyph name="Ograve" format="1">
  <advance width="764"/>
  <unicode hex="00D2"/>
  <outline>
    <contour>
      <point x="246" y="350" type="curve" smooth="yes"/>
      <point x="209" y="249"/>
      <point x="233" y="125"/>
      <point x="361" y="123" type="curve" smooth="yes"/>
      <point x="492" y="121"/>
      <point x="606" y="235"/>
      <point x="649" y="350" type="curve" smooth="yes"/>
      <point x="686" y="451"/>
      <point x="662" y="575"/>
      <point x="534" y="577" type="curve" smooth="yes"/>
      <point x="403" y="579"/>
      <point x="288" y="465"/>
    </contour>
    <contour>
      <point x="96" y="350" type="curve" smooth="yes"/>
      <point x="158" y="546"/>
      <point x="352" y="716"/>
      <point x="563" y="715" type="curve" smooth="yes"/>
      <point x="767" y="714"/>
      <point x="856" y="531"/>
      <point x="799" y="350" type="curve" smooth="yes"/>
      <point x="737" y="153"/>
      <point x="543" y="-20"/>
      <point x="330" y="-19" type="curve" smooth="yes"/>
      <point x="124" y="-18"/>
      <point x="39" y="169"/>
    </contour>
    <contour>
      <point x="513" y="933" type="line"/>
      <point x="623" y="979" type="line"/>
      <point x="715" y="814" type="line"/>
      <point x="638" y="779" type="line"/>
    </contour>
  </outline>
</glyph>
<glyph name="Ocircumflex" format="1">
  <advance width="764"/>
  <unicode hex="00D4"/>
  <outline>
    <contour>
      <point x="246" y="350" type="curve" smooth="yes"/>
      <point x="209" y="249"/>
      <point x="233" y="125"/>
      <point x="361" y="123" type="curve" smooth="yes"/>
      <point x="492" y="121"/>
      <point x="606" y="235"/>
      <point x="649" y="350" type="curve" smooth="yes"/>
      <point x="686" y="451"/>
      <point x="662" y="575"/>
      <point x="534" y="577" type="curve" smooth="yes"/>
      <point x="403" y="579"/>
      <point x="288" y="465"/>
    </contour>
    <contour>
      <point x="96" y="350" type="curve" smooth="yes"/>
      <point x="158" y="546"/>
      <point x="352" y="716"/>
      <point x="563" y="715" type="curve" smooth="yes"/>
      <point x="767" y="714"/>
      <point x="856" y="531"/>
      <point x="799" y="350" type="curve" smooth="yes"/>
      <point x="737" y="153"/>
      <point x="543" y="-20"/>
      <point x="330" y="-19" type="curve" smooth="yes"/>
      <point x="124" y="-18"/>
      <point x="39" y="169"/>
    </contour>
    <contour>
      <point x="642" y="877" type="line"/>
      <point x="504" y="784" type="line"/>
      <point x="463" y="828" type="line"/>
      <point x="658" y="964" type="line"/>
      <point x="768" y="820" type="line"/>
      <point x="713" y="784" type="line"/>
    </contour>
  </outline>
</glyph>
<glyph name="Otilde" format="1">
  <advance width="764"/>
  <unicode hex="00D5"/>
  <outline>
    <contour>
      <point x="246" y="350" type="curve" smooth="yes"/>
      <point x="209" y="249"/>
      <point x="233" y="125"/>
      <point x="361" y="123" type="curve" smooth="yes"/>
      <point x="492" y="121"/>
      <point x="606" y="235"/>
      <point x="649" y="350" type="curve" smooth="yes"/>
      <point x="686" y="451"/>
      <point x="662" y="575"/>
      <point x="534" y="577" type="curve" smooth="yes"/>
      <point x="403" y="579"/>
      <point x="288" y="465"/>
    </contour>
    <contour>
      <point x="96" y="350" type="curve" smooth="yes"/>
      <point x="158" y="546"/>
      <point x="352" y="716"/>
      <point x="563" y="715" type="curve" smooth="yes"/>
      <point x="767" y="714"/>
      <point x="856" y="531"/>
      <point x="799" y="350" type="curve" smooth="yes"/>
      <point x="737" y="153"/>
      <point x="543" y="-20"/>
      <point x="330" y="-19" type="curve" smooth="yes"/>
      <point x="124" y="-18"/>
      <point x="39" y="169"/>
    </contour>
    <contour>
      <point x="457" y="836" type="line"/>
      <point x="448" y="876"/>
      <point x="549" y="914"/>
      <point x="577" y="913" type="curve" smooth="yes"/>
      <point x="616" y="911"/>
      <point x="638" y="866"/>
      <point x="678" y="869" type="curve" smooth="yes"/>
      <point x="706" y="871"/>
      <point x="731" y="898"/>
      <point x="750" y="915" type="curve"/>
      <point x="785" y="869" type="line"/>
      <point x="756" y="838"/>
      <point x="714" y="796"/>
      <point x="667" y="800" type="curve" smooth="yes"/>
      <point x="629" y="803"/>
      <point x="608" y="847"/>
      <point x="569" y="845" type="curve" smooth="yes"/>
      <point x="539" y="843"/>
      <point x="518" y="817"/>
      <point x="501" y="796" type="curve"/>
    </contour>
  </outline>
</glyph>
<glyph name="Odieresis" format="1">
  <advance width="811"/>
  <unicode hex="00D6"/>
  <outline>
    <contour>
      <point x="250" y="350" type="curve" smooth="yes"/>
      <point x="226" y="216"/>
      <point x="299" y="120"/>
      <point x="427" y="120" type="curve" smooth="yes"/>
      <point x="555" y="120"/>
      <point x="662" y="216"/>
      <point x="686" y="350" type="curve" smooth="yes"/>
      <point x="710" y="484"/>
      <point x="639" y="580"/>
      <point x="508" y="580" type="curve" smooth="yes"/>
      <point x="380" y="580"/>
      <point x="274" y="484"/>
    </contour>
    <contour>
      <point x="98" y="350" type="curve" smooth="yes"/>
      <point x="135" y="562"/>
      <point x="321" y="714"/>
      <point x="532" y="714" type="curve" smooth="yes"/>
      <point x="744" y="714"/>
      <point x="875" y="562"/>
      <point x="838" y="350" type="curve" smooth="yes"/>
      <point x="801" y="138"/>
      <point x="618" y="-18"/>
      <point x="403" y="-18" type="curve" smooth="yes"/>
      <point x="188" y="-18"/>
      <point x="61" y="138"/>
    </contour>
    <contour>
      <point x="591" y="820" type="curve" smooth="yes"/>
      <point x="599" y="864"/>
      <point x="639" y="902"/>
      <point x="687" y="902" type="curve" smooth="yes"/>
      <point x="735" y="902"/>
      <point x="763" y="864"/>
      <point x="755" y="820" type="curve" smooth="yes"/>
      <point x="747" y="776"/>
      <point x="706" y="739"/>
      <point x="658" y="739" type="curve" smooth="yes"/>
      <point x="610" y="739"/>
      <point x="583" y="776"/>
    </contour>
    <contour>
      <point x="360" y="820" type="curve" smooth="yes"/>
      <point x="368" y="864"/>
      <point x="408" y="902"/>
      <point x="456" y="902" type="curve" smooth="yes"/>
      <point x="504" y="902"/>
      <point x="533" y="864"/>
      <point x="525" y="820" type="curve" smooth="yes"/>
      <point x="517" y="776"/>
      <point x="475" y="739"/>
      <point x="427" y="739" type="curve" smooth="yes"/>
      <point x="379" y="739"/>
      <point x="352" y="776"/>
    </contour>
  </outline>
</glyph>
<glyph name="multiply" format="1">
  <advance width="560"/>
  <unicode hex="00D7"/>
  <outline>
    <contour>
      <point x="80" y="8" type="line"/>
      <point x="25" y="99" type="line"/>
      <point x="240" y="261" type="line"/>
      <point x="137" y="425" type="line"/>
      <point x="238" y="503" type="line"/>
      <point x="334" y="336" type="line"/>
      <point x="546" y="502" type="line"/>
      <point x="601" y="411" type="line"/>
      <point x="386" y="249" type="line"/>
      <point x="489" y="85" type="line"/>
      <point x="388" y="7" type="line"/>
      <point x="292" y="174" type="line"/>
    </contour>
  </outline>
</glyph>
<glyph name="Oslash" format="1">
  <advance width="743"/>
  <unicode hex="00D8"/>
  <outline>
    <contour>
      <point x="246" y="350" type="curve" smooth="yes"/>
      <point x="209" y="249"/>
      <point x="233" y="125"/>
      <point x="361" y="123" type="curve" smooth="yes"/>
      <point x="492" y="121"/>
      <point x="606" y="234"/>
      <point x="649" y="350" type="curve" smooth="yes"/>
      <point x="686" y="451"/>
      <point x="662" y="575"/>
      <point x="534" y="577" type="curve" smooth="yes"/>
      <point x="403" y="579"/>
      <point x="289" y="466"/>
    </contour>
    <contour>
      <point x="96" y="350" type="curve" smooth="yes"/>
      <point x="158" y="546"/>
      <point x="352" y="716"/>
      <point x="563" y="715" type="curve" smooth="yes"/>
      <point x="767" y="714"/>
      <point x="856" y="531"/>
      <point x="799" y="350" type="curve" smooth="yes"/>
      <point x="737" y="154"/>
      <point x="542" y="-20"/>
      <point x="330" y="-19" type="curve" smooth="yes"/>
      <point x="125" y="-18"/>
      <point x="39" y="169"/>
    </contour>
    <contour>
      <point x="850" y="754" type="line"/>
      <point x="906" y="699" type="line"/>
      <point x="40" y="-54" type="line"/>
      <point x="-14" y="-4" type="line"/>
    </contour>
  </outline>
</glyph>
<glyph name="Ugrave" format="1">
  <advance width="639"/>
  <unicode hex="00D9"/>
  <outline>
    <contour>
      <point x="250" y="700" type="line"/>
      <point x="392" y="700" type="line"/>
      <point x="231" y="239" type="line" smooth="yes"/>
      <point x="213" y="179"/>
      <point x="219" y="112"/>
      <point x="295" y="110" type="curve" smooth="yes"/>
      <point x="373" y="108"/>
      <point x="434" y="173"/>
      <point x="461" y="240" type="curve"/>
      <point x="620" y="700" type="line"/>
      <point x="762" y="700" type="line"/>
      <point x="602" y="230" type="line" smooth="yes"/>
      <point x="551" y="88"/>
      <point x="424" y="-23"/>
      <point x="267" y="-23" type="curve" smooth="yes"/>
      <point x="118" y="-23"/>
      <point x="49" y="92"/>
      <point x="89" y="230" type="curve" smooth="yes"/>
    </contour>
    <contour>
      <point x="438" y="928" type="line"/>
      <point x="548" y="974" type="line"/>
      <point x="639" y="809" type="line"/>
      <point x="563" y="775" type="line"/>
    </contour>
  </outline>
</glyph>
<glyph name="Uacute" format="1">
  <advance width="639"/>
  <unicode hex="00DA"/>
  <outline>
    <contour>
      <point x="250" y="700" type="line"/>
      <point x="392" y="700" type="line"/>
      <point x="231" y="239" type="line" smooth="yes"/>
      <point x="213" y="179"/>
      <point x="219" y="112"/>
      <point x="295" y="110" type="curve" smooth="yes"/>
      <point x="373" y="108"/>
      <point x="434" y="173"/>
      <point x="461" y="240" type="curve"/>
      <point x="620" y="700" type="line"/>
      <point x="762" y="700" type="line"/>
      <point x="602" y="230" type="line" smooth="yes"/>
      <point x="551" y="88"/>
      <point x="424" y="-23"/>
      <point x="267" y="-23" type="curve" smooth="yes"/>
      <point x="118" y="-23"/>
      <point x="49" y="92"/>
      <point x="89" y="230" type="curve" smooth="yes"/>
    </contour>
    <contour>
      <point x="727" y="919" type="line"/>
      <point x="511" y="776" type="line"/>
      <point x="445" y="818" type="line"/>
      <point x="637" y="972" type="line"/>
    </contour>
  </outline>
</glyph>
<glyph name="Ucircumflex" format="1">
  <advance width="639"/>
  <unicode hex="00DB"/>
  <outline>
    <contour>
      <point x="250" y="700" type="line"/>
      <point x="392" y="700" type="line"/>
      <point x="231" y="239" type="line" smooth="yes"/>
      <point x="213" y="179"/>
      <point x="219" y="112"/>
      <point x="295" y="110" type="curve" smooth="yes"/>
      <point x="373" y="108"/>
      <point x="434" y="173"/>
      <point x="461" y="240" type="curve"/>
      <point x="620" y="700" type="line"/>
      <point x="762" y="700" type="line"/>
      <point x="602" y="230" type="line" smooth="yes"/>
      <point x="551" y="88"/>
      <point x="424" y="-23"/>
      <point x="267" y="-23" type="curve" smooth="yes"/>
      <point x="118" y="-23"/>
      <point x="49" y="92"/>
      <point x="89" y="230" type="curve" smooth="yes"/>
    </contour>
    <contour>
      <point x="567" y="861" type="line"/>
      <point x="446" y="775" type="line"/>
      <point x="375" y="842" type="line"/>
      <point x="593" y="977" type="line"/>
      <point x="729" y="833" type="line"/>
      <point x="627" y="774" type="line"/>
    </contour>
  </outline>
</glyph>
<glyph name="Udieresis" format="1">
  <advance width="639"/>
  <unicode hex="00DC"/>
  <outline>
    <contour>
      <point x="250" y="700" type="line"/>
      <point x="392" y="700" type="line"/>
      <point x="231" y="239" type="line" smooth="yes"/>
      <point x="213" y="179"/>
      <point x="219" y="112"/>
      <point x="295" y="110" type="curve" smooth="yes"/>
      <point x="373" y="108"/>
      <point x="434" y="173"/>
      <point x="461" y="240" type="curve"/>
      <point x="620" y="700" type="line"/>
      <point x="762" y="700" type="line"/>
      <point x="602" y="230" type="line" smooth="yes"/>
      <point x="551" y="88"/>
      <point x="424" y="-23"/>
      <point x="267" y="-23" type="curve" smooth="yes"/>
      <point x="118" y="-23"/>
      <point x="49" y="92"/>
      <point x="89" y="230" type="curve" smooth="yes"/>
    </contour>
    <contour>
      <point x="602" y="852" type="curve" smooth="yes"/>
      <point x="612" y="889"/>
      <point x="660" y="925"/>
      <point x="698" y="923" type="curve" smooth="yes"/>
      <point x="738" y="921"/>
      <point x="764" y="886"/>
      <point x="754" y="847" type="curve" smooth="yes"/>
      <point x="744" y="810"/>
      <point x="696" y="774"/>
      <point x="658" y="776" type="curve" smooth="yes"/>
      <point x="618" y="778"/>
      <point x="592" y="813"/>
    </contour>
    <contour>
      <point x="358" y="852" type="curve" smooth="yes"/>
      <point x="368" y="889"/>
      <point x="416" y="925"/>
      <point x="454" y="923" type="curve" smooth="yes"/>
      <point x="494" y="921"/>
      <point x="520" y="886"/>
      <point x="510" y="847" type="curve" smooth="yes"/>
      <point x="500" y="810"/>
      <point x="451" y="774"/>
      <point x="413" y="776" type="curve" smooth="yes"/>
      <point x="373" y="778"/>
      <point x="348" y="813"/>
    </contour>
  </outline>
</glyph>
<glyph name="Yacute" format="1">
  <advance width="595"/>
  <unicode hex="00DD"/>
  <outline>
    <contour>
      <point x="705" y="919" type="line"/>
      <point x="489" y="776" type="line"/>
      <point x="423" y="818" type="line"/>
      <point x="615" y="972" type="line"/>
    </contour>
    <contour>
      <point x="617" y="699" type="line"/>
      <point x="787" y="699" type="line"/>
      <point x="413" y="282" type="line"/>
      <point x="316" y="0" type="line"/>
      <point x="171" y="0" type="line"/>
      <point x="274" y="297" type="line"/>
      <point x="187" y="700" type="line"/>
      <point x="342" y="700" type="line"/>
      <point x="384" y="425" type="line"/>
    </contour>
  </outline>
</glyph>
<glyph name="Thorn" format="1">
  <advance width="593"/>
  <unicode hex="00DE"/>
  <outline>
    <contour>
      <point x="321" y="132" type="curve"/>
      <point x="342" y="248" type="line"/>
      <point x="423" y="248"/>
      <point x="479" y="280"/>
      <point x="492" y="352" type="curve" smooth="yes"/>
      <point x="505" y="424"/>
      <point x="459" y="456"/>
      <point x="378" y="456" type="curve"/>
      <point x="399" y="574" type="line"/>
      <point x="564" y="574"/>
      <point x="646" y="490"/>
      <point x="622" y="352" type="curve" smooth="yes"/>
      <point x="598" y="214"/>
      <point x="486" y="132"/>
    </contour>
    <contour>
      <point x="183" y="132" type="line"/>
      <point x="204" y="248" type="line"/>
      <point x="342" y="248" type="line"/>
      <point x="321" y="132" type="line"/>
    </contour>
    <contour>
      <point x="240" y="456" type="line"/>
      <point x="261" y="574" type="line"/>
      <point x="399" y="574" type="line"/>
      <point x="378" y="456" type="line"/>
    </contour>
    <contour>
      <point x="203" y="700" type="line"/>
      <point x="332" y="700" type="line"/>
      <point x="209" y="0" type="line"/>
      <point x="80" y="0" type="line"/>
    </contour>
  </outline>
</glyph>
<glyph name="germandbls" format="1">
  <advance width="584"/>
  <unicode hex="00DF"/>
  <outline>
    <contour>
      <point x="169" y="606" type="line"/>
      <point x="292" y="592" type="line"/>
      <point x="188" y="0" type="line"/>
      <point x="62" y="0" type="line"/>
    </contour>
    <contour>
      <point x="336" y="416" type="curve"/>
      <point x="351" y="498" type="line"/>
      <point x="443" y="498"/>
      <point x="480" y="540"/>
      <point x="488" y="588" type="curve" smooth="yes"/>
      <point x="497" y="640"/>
      <point x="471" y="675"/>
      <point x="403" y="675" type="curve" smooth="yes"/>
      <point x="347" y="675"/>
      <point x="302" y="646"/>
      <point x="292" y="592" type="curve"/>
      <point x="169" y="606" type="line"/>
      <point x="190" y="724"/>
      <point x="306" y="794"/>
      <point x="424" y="794" type="curve" smooth="yes"/>
      <point x="572" y="794"/>
      <point x="637" y="715"/>
      <point x="618" y="606" type="curve" smooth="yes"/>
      <point x="597" y="487"/>
      <point x="500" y="416"/>
    </contour>
    <contour>
      <point x="298" y="109" type="line"/>
      <point x="378" y="109"/>
      <point x="453" y="164"/>
      <point x="468" y="248" type="curve" smooth="yes"/>
      <point x="480" y="316"/>
      <point x="440" y="379"/>
      <point x="330" y="379" type="curve"/>
      <point x="346" y="468" type="line"/>
      <point x="510" y="468"/>
      <point x="621" y="373"/>
      <point x="595" y="225" type="curve" smooth="yes"/>
      <point x="569" y="77"/>
      <point x="438" y="-10"/>
      <point x="277" y="-10" type="curve"/>
    </contour>
  </outline>
</glyph>
<glyph name="atilde" format="1">
  <advance width="496"/>
  <unicode hex="00E3"/>
  <outline>
    <contour>
      <point x="142" y="136" type="curve" smooth="yes"/>
      <point x="131" y="102"/>
      <point x="156" y="84"/>
      <point x="187" y="82" type="curve" smooth="yes"/>
      <point x="255" y="78"/>
      <point x="301" y="131"/>
      <point x="333" y="184" type="curve"/>
      <point x="331" y="128" type="line"/>
      <point x="292" y="48"/>
      <point x="223" y="-9"/>
      <point x="130" y="-9" type="curve" smooth="yes"/>
      <point x="49" y="-9"/>
      <point x="-13" y="44"/>
      <point x="11" y="128" type="curve" smooth="yes"/>
      <point x="40" y="226"/>
      <point x="147" y="280"/>
      <point x="244" y="280" type="curve" smooth="yes"/>
      <point x="298" y="280"/>
      <point x="342" y="263"/>
      <point x="381" y="227" type="curve"/>
      <point x="361" y="165" type="line"/>
      <point x="330" y="190"/>
      <point x="299" y="205"/>
      <point x="258" y="204" type="curve" smooth="yes"/>
      <point x="215" y="203"/>
      <point x="156" y="181"/>
    </contour>
    <contour>
      <point x="170" y="327" type="curve"/>
      <point x="150" y="421" type="line"/>
      <point x="214" y="449"/>
      <point x="281" y="473"/>
      <point x="351" y="472" type="curve" smooth="yes"/>
      <point x="439" y="471"/>
      <point x="528" y="426"/>
      <point x="503" y="325" type="curve"/>
      <point x="392" y="0" type="line"/>
      <point x="267" y="0" type="line"/>
      <point x="375" y="304" type="line"/>
      <point x="379" y="343"/>
      <point x="364" y="365"/>
      <point x="322" y="368" type="curve" smooth="yes"/>
      <point x="270" y="372"/>
      <point x="216" y="347"/>
    </contour>
    <contour>
      <point x="221" y="594" type="line"/>
      <point x="252" y="636"/>
      <point x="298" y="683"/>
      <point x="355" y="680" type="curve" smooth="yes"/>
      <point x="397" y="678"/>
      <point x="421" y="629"/>
      <point x="463" y="632" type="curve" smooth="yes"/>
      <point x="494" y="634"/>
      <point x="520" y="663"/>
      <point x="542" y="682" type="curve"/>
      <point x="587" y="613" type="line"/>
      <point x="553" y="577"/>
      <point x="502" y="531"/>
      <point x="447" y="535" type="curve" smooth="yes"/>
      <point x="406" y="538"/>
      <point x="380" y="590"/>
      <point x="338" y="585" type="curve" smooth="yes"/>
      <point x="308" y="582"/>
      <point x="290" y="557"/>
      <point x="273" y="536" type="curve"/>
    </contour>
  </outline>
</glyph>
<glyph name="adieresis" format="1">
  <advance width="496"/>
  <unicode hex="00E4"/>
  <outline>
    <contour>
      <point x="142" y="136" type="curve" smooth="yes"/>
      <point x="131" y="102"/>
      <point x="156" y="84"/>
      <point x="187" y="82" type="curve" smooth="yes"/>
      <point x="255" y="78"/>
      <point x="301" y="131"/>
      <point x="333" y="184" type="curve"/>
      <point x="331" y="128" type="line"/>
      <point x="292" y="48"/>
      <point x="223" y="-9"/>
      <point x="130" y="-9" type="curve" smooth="yes"/>
      <point x="49" y="-9"/>
      <point x="-13" y="44"/>
      <point x="11" y="128" type="curve" smooth="yes"/>
      <point x="40" y="226"/>
      <point x="147" y="280"/>
      <point x="244" y="280" type="curve" smooth="yes"/>
      <point x="298" y="280"/>
      <point x="342" y="263"/>
      <point x="381" y="227" type="curve"/>
      <point x="361" y="165" type="line"/>
      <point x="330" y="190"/>
      <point x="299" y="205"/>
      <point x="258" y="204" type="curve" smooth="yes"/>
      <point x="215" y="203"/>
      <point x="156" y="181"/>
    </contour>
    <contour>
      <point x="170" y="327" type="curve"/>
      <point x="150" y="421" type="line"/>
      <point x="214" y="449"/>
      <point x="281" y="473"/>
      <point x="351" y="472" type="curve" smooth="yes"/>
      <point x="439" y="471"/>
      <point x="528" y="426"/>
      <point x="503" y="325" type="curve"/>
      <point x="392" y="0" type="line"/>
      <point x="267" y="0" type="line"/>
      <point x="375" y="304" type="line"/>
      <point x="379" y="343"/>
      <point x="364" y="365"/>
      <point x="322" y="368" type="curve" smooth="yes"/>
      <point x="270" y="372"/>
      <point x="216" y="347"/>
    </contour>
    <contour>
      <point x="439" y="609" type="curve" smooth="yes"/>
      <point x="449" y="646"/>
      <point x="496" y="682"/>
      <point x="534" y="680" type="curve" smooth="yes"/>
      <point x="574" y="678"/>
      <point x="601" y="643"/>
      <point x="591" y="604" type="curve" smooth="yes"/>
      <point x="581" y="567"/>
      <point x="532" y="531"/>
      <point x="494" y="533" type="curve" smooth="yes"/>
      <point x="454" y="535"/>
      <point x="429" y="570"/>
    </contour>
    <contour>
      <point x="221" y="609" type="curve" smooth="yes"/>
      <point x="231" y="646"/>
      <point x="278" y="682"/>
      <point x="316" y="680" type="curve" smooth="yes"/>
      <point x="356" y="678"/>
      <point x="382" y="643"/>
      <point x="372" y="604" type="curve" smooth="yes"/>
      <point x="362" y="567"/>
      <point x="314" y="531"/>
      <point x="276" y="533" type="curve" smooth="yes"/>
      <point x="236" y="535"/>
      <point x="211" y="570"/>
    </contour>
  </outline>
</glyph>
<glyph name="aring" format="1">
  <advance width="496"/>
  <unicode hex="00E5"/>
  <outline>
    <contour>
      <point x="142" y="136" type="curve" smooth="yes"/>
      <point x="131" y="102"/>
      <point x="156" y="84"/>
      <point x="187" y="82" type="curve" smooth="yes"/>
      <point x="255" y="78"/>
      <point x="301" y="131"/>
      <point x="333" y="184" type="curve"/>
      <point x="331" y="128" type="line"/>
      <point x="292" y="48"/>
      <point x="223" y="-9"/>
      <point x="130" y="-9" type="curve" smooth="yes"/>
      <point x="49" y="-9"/>
      <point x="-13" y="44"/>
      <point x="11" y="128" type="curve" smooth="yes"/>
      <point x="40" y="226"/>
      <point x="147" y="280"/>
      <point x="244" y="280" type="curve" smooth="yes"/>
      <point x="298" y="280"/>
      <point x="342" y="263"/>
      <point x="381" y="227" type="curve"/>
      <point x="361" y="165" type="line"/>
      <point x="330" y="190"/>
      <point x="299" y="205"/>
      <point x="258" y="204" type="curve" smooth="yes"/>
      <point x="215" y="203"/>
      <point x="156" y="181"/>
    </contour>
    <contour>
      <point x="170" y="327" type="curve"/>
      <point x="150" y="421" type="line"/>
      <point x="214" y="449"/>
      <point x="281" y="473"/>
      <point x="351" y="472" type="curve" smooth="yes"/>
      <point x="439" y="471"/>
      <point x="528" y="426"/>
      <point x="503" y="325" type="curve"/>
      <point x="392" y="0" type="line"/>
      <point x="267" y="0" type="line"/>
      <point x="375" y="304" type="line"/>
      <point x="379" y="343"/>
      <point x="364" y="365"/>
      <point x="322" y="368" type="curve" smooth="yes"/>
      <point x="270" y="372"/>
      <point x="216" y="347"/>
    </contour>
    <contour>
      <point x="304" y="646" type="curve" smooth="yes"/>
      <point x="321" y="705"/>
      <point x="387" y="755"/>
      <point x="449" y="754" type="curve" smooth="yes"/>
      <point x="511" y="753"/>
      <point x="549" y="701"/>
      <point x="532" y="642" type="curve" smooth="yes"/>
      <point x="515" y="583"/>
      <point x="448" y="532"/>
      <point x="386" y="533" type="curve" smooth="yes"/>
      <point x="324" y="534"/>
      <point x="287" y="587"/>
    </contour>
    <contour>
      <point x="373" y="642" type="curve" smooth="yes"/>
      <point x="367" y="624"/>
      <point x="375" y="599"/>
      <point x="396" y="596" type="curve" smooth="yes"/>
      <point x="419" y="593"/>
      <point x="457" y="624"/>
      <point x="463" y="645" type="curve" smooth="yes"/>
      <point x="469" y="663"/>
      <point x="460" y="689"/>
      <point x="439" y="692" type="curve" smooth="yes"/>
      <point x="416" y="695"/>
      <point x="379" y="663"/>
    </contour>
  </outline>
</glyph>
<glyph name="ae" format="1">
  <advance width="824"/>
  <unicode hex="00E6"/>
  <outline>
    <contour>
      <point x="141" y="136" type="curve" smooth="yes"/>
      <point x="130" y="102"/>
      <point x="155" y="84"/>
      <point x="186" y="82" type="curve" smooth="yes"/>
      <point x="254" y="78"/>
      <point x="298" y="131"/>
      <point x="329" y="184" type="curve"/>
      <point x="377" y="127" type="line"/>
      <point x="333" y="38"/>
      <point x="253" y="-9"/>
      <point x="153" y="-9" type="curve" smooth="yes"/>
      <point x="71" y="-9"/>
      <point x="-16" y="33"/>
      <point x="11" y="128" type="curve" smooth="yes"/>
      <point x="39" y="226"/>
      <point x="148" y="280"/>
      <point x="244" y="280" type="curve" smooth="yes"/>
      <point x="298" y="280"/>
      <point x="342" y="263"/>
      <point x="381" y="227" type="curve"/>
      <point x="361" y="165" type="line"/>
      <point x="330" y="190"/>
      <point x="298" y="205"/>
      <point x="257" y="204" type="curve" smooth="yes"/>
      <point x="214" y="203"/>
      <point x="155" y="181"/>
    </contour>
    <contour>
      <point x="170" y="327" type="curve"/>
      <point x="150" y="421" type="line"/>
      <point x="213" y="449"/>
      <point x="281" y="473"/>
      <point x="351" y="472" type="curve" smooth="yes"/>
      <point x="444" y="470"/>
      <point x="486" y="415"/>
      <point x="462" y="325" type="curve"/>
      <point x="397" y="131" type="line"/>
      <point x="312" y="131" type="line"/>
      <point x="374" y="299" type="line"/>
      <point x="383" y="338"/>
      <point x="363" y="364"/>
      <point x="323" y="368" type="curve" smooth="yes"/>
      <point x="272" y="373"/>
      <point x="216" y="347"/>
    </contour>
    <contour>
      <point x="406" y="202" type="line"/>
      <point x="431" y="280" type="line"/>
      <point x="818" y="281" type="line"/>
      <point x="809" y="201" type="line"/>
    </contour>
    <contour>
      <point x="692" y="245" type="line" smooth="yes"/>
      <point x="708" y="295"/>
      <point x="719" y="372"/>
      <point x="647" y="376" type="curve" smooth="yes"/>
      <point x="575" y="380"/>
      <point x="522" y="313"/>
      <point x="494" y="255" type="curve" smooth="yes"/>
      <point x="482" y="230" type="line"/>
      <point x="461" y="173"/>
      <point x="459" y="96"/>
      <point x="536" y="91" type="curve" smooth="yes"/>
      <point x="589" y="88"/>
      <point x="636" y="123"/>
      <point x="674" y="155" type="curve"/>
      <point x="780" y="117" type="line"/>
      <point x="711" y="44"/>
      <point x="621" y="-11"/>
      <point x="517" y="-9" type="curve" smooth="yes"/>
      <point x="381" y="-6"/>
      <point x="336" y="112"/>
      <point x="379" y="230" type="curve" smooth="yes"/>
      <point x="386" y="247"/>
      <point x="394" y="263"/>
      <point x="403" y="279" type="curve" smooth="yes"/>
      <point x="460" y="382"/>
      <point x="559" y="470"/>
      <point x="683" y="469" type="curve" smooth="yes"/>
      <point x="816" y="468"/>
      <point x="853" y="348"/>
      <point x="822" y="236" type="curve" smooth="yes"/>
      <point x="819" y="224"/>
      <point x="814" y="214"/>
      <point x="810" y="202" type="curve"/>
      <point x="683" y="222" type="line"/>
    </contour>
  </outline>
</glyph>
<glyph name="ccedilla" format="1">
  <advance width="459"/>
  <unicode hex="00E7"/>
  <outline>
    <contour>
      <point x="181" y="230" type="curve" smooth="yes"/>
      <point x="158" y="168"/>
      <point x="180" y="103"/>
      <point x="252" y="100" type="curve" smooth="yes"/>
      <point x="313" y="97"/>
      <point x="370" y="133"/>
      <point x="416" y="169" type="curve"/>
      <point x="376" y="36" type="line"/>
      <point x="329" y="9"/>
      <point x="278" y="-9"/>
      <point x="222" y="-9" type="curve" smooth="yes"/>
      <point x="87" y="-8"/>
      <point x="11" y="102"/>
      <point x="50" y="230" type="curve" smooth="yes"/>
      <point x="91" y="366"/>
      <point x="227" y="468"/>
      <point x="369" y="469" type="curve" smooth="yes"/>
      <point x="420" y="469"/>
      <point x="464" y="454"/>
      <point x="504" y="424" type="curve"/>
      <point x="462" y="290" type="line"/>
      <point x="442" y="335"/>
      <point x="410" y="362"/>
      <point x="358" y="361" type="curve" smooth="yes"/>
      <point x="283" y="360"/>
      <point x="207" y="299"/>
    </contour>
    <contour>
      <point x="190" y="58" type="line"/>
      <point x="290" y="56" type="line"/>
      <point x="168" y="-62" type="line"/>
      <point x="175" y="-61"/>
      <point x="184" y="-60"/>
      <point x="191" y="-60" type="curve" smooth="yes"/>
      <point x="239" y="-66"/>
      <point x="262" y="-107"/>
      <point x="249" y="-152" type="curve" smooth="yes"/>
      <point x="232" y="-213"/>
      <point x="161" y="-252"/>
      <point x="101" y="-254" type="curve" smooth="yes"/>
      <point x="56" y="-255"/>
      <point x="20" y="-237"/>
      <point x="-16" y="-213" type="curve"/>
      <point x="41" y="-157" type="line"/>
      <point x="59" y="-169"/>
      <point x="76" y="-181"/>
      <point x="100" y="-181" type="curve" smooth="yes"/>
      <point x="120" y="-181"/>
      <point x="164" y="-163"/>
      <point x="169" y="-141" type="curve" smooth="yes"/>
      <point x="174" y="-120"/>
      <point x="146" y="-112"/>
      <point x="131" y="-111" type="curve" smooth="yes"/>
      <point x="104" y="-109"/>
      <point x="75" y="-118"/>
      <point x="49" y="-125" type="curve"/>
    </contour>
  </outline>
</glyph>
<glyph name="egrave" format="1">
  <advance width="524"/>
  <unicode hex="00E8"/>
  <outline>
    <contour>
      <point x="118" y="202" type="line"/>
      <point x="143" y="280" type="line"/>
      <point x="398" y="281" type="line"/>
      <point x="405" y="327"/>
      <point x="402" y="373"/>
      <point x="345" y="376" type="curve" smooth="yes"/>
      <point x="273" y="380"/>
      <point x="221" y="312"/>
      <point x="193" y="255" type="curve" smooth="yes"/>
      <point x="181" y="230" type="line"/>
      <point x="160" y="173"/>
      <point x="159" y="96"/>
      <point x="235" y="91" type="curve" smooth="yes"/>
      <point x="288" y="88"/>
      <point x="336" y="123"/>
      <point x="374" y="155" type="curve"/>
      <point x="479" y="117" type="line"/>
      <point x="409" y="43"/>
      <point x="322" y="-10"/>
      <point x="217" y="-9" type="curve" smooth="yes"/>
      <point x="80" y="-7"/>
      <point x="16" y="104"/>
      <point x="53" y="230" type="curve" smooth="yes"/>
      <point x="58" y="247"/>
      <point x="64" y="263"/>
      <point x="72" y="279" type="curve" smooth="yes"/>
      <point x="125" y="390"/>
      <point x="240" y="470"/>
      <point x="364" y="469" type="curve" smooth="yes"/>
      <point x="503" y="468"/>
      <point x="555" y="361"/>
      <point x="521" y="236" type="curve" smooth="yes"/>
      <point x="518" y="224"/>
      <point x="515" y="214"/>
      <point x="511" y="202" type="curve"/>
    </contour>
    <contour>
      <point x="298" y="690" type="line"/>
      <point x="408" y="735" type="line"/>
      <point x="499" y="571" type="line"/>
      <point x="423" y="536" type="line"/>
    </contour>
  </outline>
</glyph>
<glyph name="eacute" format="1">
  <advance width="524"/>
  <unicode hex="00E9"/>
  <outline>
    <contour>
      <point x="118" y="202" type="line"/>
      <point x="143" y="280" type="line"/>
      <point x="398" y="281" type="line"/>
      <point x="405" y="327"/>
      <point x="402" y="373"/>
      <point x="345" y="376" type="curve" smooth="yes"/>
      <point x="273" y="380"/>
      <point x="221" y="312"/>
      <point x="193" y="255" type="curve" smooth="yes"/>
      <point x="181" y="230" type="line"/>
      <point x="160" y="173"/>
      <point x="159" y="96"/>
      <point x="235" y="91" type="curve" smooth="yes"/>
      <point x="288" y="88"/>
      <point x="336" y="123"/>
      <point x="374" y="155" type="curve"/>
      <point x="479" y="117" type="line"/>
      <point x="409" y="43"/>
      <point x="322" y="-10"/>
      <point x="217" y="-9" type="curve" smooth="yes"/>
      <point x="80" y="-7"/>
      <point x="16" y="104"/>
      <point x="53" y="230" type="curve" smooth="yes"/>
      <point x="58" y="247"/>
      <point x="64" y="263"/>
      <point x="72" y="279" type="curve" smooth="yes"/>
      <point x="125" y="390"/>
      <point x="240" y="470"/>
      <point x="364" y="469" type="curve" smooth="yes"/>
      <point x="503" y="468"/>
      <point x="555" y="361"/>
      <point x="521" y="236" type="curve" smooth="yes"/>
      <point x="518" y="224"/>
      <point x="515" y="214"/>
      <point x="511" y="202" type="curve"/>
    </contour>
    <contour>
      <point x="608" y="680" type="line"/>
      <point x="392" y="537" type="line"/>
      <point x="326" y="580" type="line"/>
      <point x="517" y="734" type="line"/>
    </contour>
  </outline>
</glyph>
<glyph name="edieresis" format="1">
  <advance width="524"/>
  <unicode hex="00EB"/>
  <outline>
    <contour>
      <point x="118" y="202" type="line"/>
      <point x="143" y="280" type="line"/>
      <point x="398" y="281" type="line"/>
      <point x="405" y="327"/>
      <point x="402" y="373"/>
      <point x="345" y="376" type="curve" smooth="yes"/>
      <point x="273" y="380"/>
      <point x="221" y="312"/>
      <point x="193" y="255" type="curve" smooth="yes"/>
      <point x="181" y="230" type="line"/>
      <point x="160" y="173"/>
      <point x="159" y="96"/>
      <point x="235" y="91" type="curve" smooth="yes"/>
      <point x="288" y="88"/>
      <point x="336" y="123"/>
      <point x="374" y="155" type="curve"/>
      <point x="479" y="117" type="line"/>
      <point x="409" y="43"/>
      <point x="322" y="-10"/>
      <point x="217" y="-9" type="curve" smooth="yes"/>
      <point x="80" y="-7"/>
      <point x="16" y="104"/>
      <point x="53" y="230" type="curve" smooth="yes"/>
      <point x="58" y="247"/>
      <point x="64" y="263"/>
      <point x="72" y="279" type="curve" smooth="yes"/>
      <point x="125" y="390"/>
      <point x="240" y="470"/>
      <point x="364" y="469" type="curve" smooth="yes"/>
      <point x="503" y="468"/>
      <point x="555" y="361"/>
      <point x="521" y="236" type="curve" smooth="yes"/>
      <point x="518" y="224"/>
      <point x="515" y="214"/>
      <point x="511" y="202" type="curve"/>
    </contour>
    <contour>
      <point x="452" y="607" type="curve" smooth="yes"/>
      <point x="462" y="644"/>
      <point x="510" y="681"/>
      <point x="548" y="679" type="curve" smooth="yes"/>
      <point x="588" y="677"/>
      <point x="614" y="642"/>
      <point x="604" y="603" type="curve" smooth="yes"/>
      <point x="594" y="566"/>
      <point x="546" y="529"/>
      <point x="508" y="531" type="curve" smooth="yes"/>
      <point x="468" y="533"/>
      <point x="442" y="568"/>
    </contour>
    <contour>
      <point x="234" y="607" type="curve" smooth="yes"/>
      <point x="244" y="644"/>
      <point x="292" y="681"/>
      <point x="330" y="679" type="curve" smooth="yes"/>
      <point x="370" y="677"/>
      <point x="396" y="642"/>
      <point x="386" y="603" type="curve" smooth="yes"/>
      <point x="376" y="566"/>
      <point x="327" y="529"/>
      <point x="289" y="531" type="curve" smooth="yes"/>
      <point x="249" y="533"/>
      <point x="224" y="568"/>
    </contour>
  </outline>
</glyph>
<glyph name="igrave" format="1">
  <advance width="271"/>
  <unicode hex="00EC"/>
  <outline>
    <contour>
      <point x="153" y="460" type="line"/>
      <point x="279" y="460" type="line"/>
      <point x="198" y="0" type="line"/>
      <point x="72" y="0" type="line"/>
    </contour>
    <contour>
      <point x="84" y="692" type="line"/>
      <point x="194" y="740" type="line"/>
      <point x="316" y="580" type="line"/>
      <point x="238" y="542" type="line"/>
    </contour>
  </outline>
</glyph>
<glyph name="iacute" format="1">
  <advance width="255"/>
  <unicode hex="00ED"/>
  <outline>
    <contour>
      <point x="167" y="459" type="line"/>
      <point x="295" y="460" type="line"/>
      <point x="135" y="0" type="line"/>
      <point x="11" y="0" type="line"/>
    </contour>
    <contour>
      <point x="470" y="685" type="line"/>
      <point x="255" y="543" type="line"/>
      <point x="188" y="585" type="line"/>
      <point x="380" y="739" type="line"/>
    </contour>
  </outline>
</glyph>
<glyph name="icircumflex" format="1">
  <advance width="255"/>
  <unicode hex="00EE"/>
  <outline>
    <contour>
      <point x="167" y="459" type="line"/>
      <point x="295" y="460" type="line"/>
      <point x="135" y="0" type="line"/>
      <point x="11" y="0" type="line"/>
    </contour>
    <contour>
      <point x="293" y="622" type="line"/>
      <point x="172" y="536" type="line"/>
      <point x="101" y="603" type="line"/>
      <point x="319" y="739" type="line"/>
      <point x="454" y="594" type="line"/>
      <point x="353" y="536" type="line"/>
    </contour>
  </outline>
</glyph>
<glyph name="idieresis" format="1">
  <advance width="255"/>
  <unicode hex="00EF"/>
  <outline>
    <contour>
      <point x="167" y="459" type="line"/>
      <point x="295" y="460" type="line"/>
      <point x="135" y="0" type="line"/>
      <point x="11" y="0" type="line"/>
    </contour>
    <contour>
      <point x="319" y="624" type="curve" smooth="yes"/>
      <point x="329" y="661"/>
      <point x="377" y="697"/>
      <point x="415" y="695" type="curve" smooth="yes"/>
      <point x="455" y="693"/>
      <point x="481" y="658"/>
      <point x="471" y="619" type="curve" smooth="yes"/>
      <point x="461" y="582"/>
      <point x="413" y="546"/>
      <point x="375" y="548" type="curve" smooth="yes"/>
      <point x="335" y="550"/>
      <point x="309" y="585"/>
    </contour>
    <contour>
      <point x="101" y="624" type="curve" smooth="yes"/>
      <point x="111" y="661"/>
      <point x="159" y="697"/>
      <point x="197" y="695" type="curve" smooth="yes"/>
      <point x="237" y="693"/>
      <point x="263" y="658"/>
      <point x="253" y="619" type="curve" smooth="yes"/>
      <point x="243" y="582"/>
      <point x="195" y="546"/>
      <point x="157" y="548" type="curve" smooth="yes"/>
      <point x="117" y="550"/>
      <point x="91" y="585"/>
    </contour>
  </outline>
</glyph>
<glyph name="eth" format="1">
  <advance width="605"/>
  <unicode hex="00F0"/>
  <outline>
    <contour>
      <point x="451" y="242" type="curve" smooth="yes"/>
      <point x="473" y="300"/>
      <point x="455" y="371"/>
      <point x="383" y="372" type="curve" smooth="yes"/>
      <point x="308" y="374"/>
      <point x="236" y="308"/>
      <point x="211" y="241" type="curve" smooth="yes"/>
      <point x="189" y="182"/>
      <point x="209" y="114"/>
      <point x="280" y="113" type="curve" smooth="yes"/>
      <point x="354" y="112"/>
      <point x="426" y="175"/>
    </contour>
    <contour>
      <point x="474" y="698" type="line"/>
      <point x="579" y="423" type="line" smooth="yes"/>
      <point x="601" y="364"/>
      <point x="609" y="302"/>
      <point x="590" y="241" type="curve" smooth="yes"/>
      <point x="546" y="98"/>
      <point x="405" y="-14"/>
      <point x="253" y="-14" type="curve" smooth="yes"/>
      <point x="107" y="-14"/>
      <point x="29" y="106"/>
      <point x="72" y="242" type="curve" smooth="yes"/>
      <point x="108" y="357"/>
      <point x="221" y="467"/>
      <point x="346" y="469" type="curve" smooth="yes"/>
      <point x="390" y="470"/>
      <point x="419" y="452"/>
      <point x="449" y="422" type="curve"/>
      <point x="429" y="434" type="line"/>
      <point x="308" y="698" type="line"/>
    </contour>
    <contour>
      <point x="257" y="521" type="line"/>
      <point x="280" y="594" type="line"/>
      <point x="660" y="594" type="line"/>
      <point x="637" y="521" type="line"/>
    </contour>
  </outline>
</glyph>
<glyph name="ntilde" format="1">
  <advance width="527"/>
  <unicode hex="00F1"/>
  <outline>
    <contour>
      <point x="290" y="460" type="line"/>
      <point x="132" y="0" type="line"/>
      <point x="2" y="0" type="line"/>
      <point x="161" y="460" type="line"/>
    </contour>
    <contour>
      <point x="382" y="280" type="line"/>
      <point x="393" y="317"/>
      <point x="399" y="366"/>
      <point x="348" y="371" type="curve" smooth="yes"/>
      <point x="293" y="376"/>
      <point x="253" y="322"/>
      <point x="228" y="282" type="curve"/>
      <point x="194" y="277" type="line"/>
      <point x="232" y="370"/>
      <point x="301" y="469"/>
      <point x="413" y="470" type="curve" smooth="yes"/>
      <point x="519" y="471"/>
      <point x="541" y="382"/>
      <point x="516" y="295" type="curve"/>
      <point x="415" y="0" type="line"/>
      <point x="284" y="0" type="line"/>
    </contour>
    <contour>
      <point x="233" y="592" type="line"/>
      <point x="264" y="634"/>
      <point x="309" y="681"/>
      <point x="366" y="678" type="curve" smooth="yes"/>
      <point x="408" y="676"/>
      <point x="432" y="627"/>
      <point x="474" y="630" type="curve" smooth="yes"/>
      <point x="505" y="632"/>
      <point x="531" y="661"/>
      <point x="553" y="680" type="curve"/>
      <point x="598" y="611" type="line"/>
      <point x="563" y="575"/>
      <point x="512" y="530"/>
      <point x="457" y="534" type="curve" smooth="yes"/>
      <point x="416" y="537"/>
      <point x="391" y="588"/>
      <point x="349" y="583" type="curve" smooth="yes"/>
      <point x="319" y="580"/>
      <point x="300" y="555"/>
      <point x="283" y="534" type="curve"/>
    </contour>
  </outline>
</glyph>
<glyph name="oacute" format="1">
  <advance width="543"/>
  <unicode hex="00F3"/>
  <outline>
    <contour>
      <point x="52" y="230" type="curve" smooth="yes"/>
      <point x="93" y="363"/>
      <point x="228" y="470"/>
      <point x="369" y="470" type="curve" smooth="yes"/>
      <point x="504" y="470"/>
      <point x="579" y="356"/>
      <point x="540" y="230" type="curve" smooth="yes"/>
      <point x="499" y="97"/>
      <point x="364" y="-9"/>
      <point x="223" y="-9" type="curve" smooth="yes"/>
      <point x="88" y="-9"/>
      <point x="13" y="104"/>
    </contour>
    <contour>
      <point x="183" y="230" type="curve" smooth="yes"/>
      <point x="162" y="175"/>
      <point x="175" y="104"/>
      <point x="245" y="102" type="curve" smooth="yes"/>
      <point x="317" y="100"/>
      <point x="385" y="167"/>
      <point x="409" y="230" type="curve" smooth="yes"/>
      <point x="430" y="285"/>
      <point x="417" y="356"/>
      <point x="347" y="358" type="curve" smooth="yes"/>
      <point x="275" y="360"/>
      <point x="207" y="293"/>
    </contour>
    <contour>
      <point x="606" y="685" type="line"/>
      <point x="391" y="543" type="line"/>
      <point x="324" y="585" type="line"/>
      <point x="516" y="739" type="line"/>
    </contour>
  </outline>
</glyph>
<glyph name="ocircumflex" format="1">
  <advance width="543"/>
  <unicode hex="00F4"/>
  <outline>
    <contour>
      <point x="52" y="230" type="curve" smooth="yes"/>
      <point x="93" y="363"/>
      <point x="228" y="470"/>
      <point x="369" y="470" type="curve" smooth="yes"/>
      <point x="504" y="470"/>
      <point x="579" y="356"/>
      <point x="540" y="230" type="curve" smooth="yes"/>
      <point x="499" y="97"/>
      <point x="364" y="-9"/>
      <point x="223" y="-9" type="curve" smooth="yes"/>
      <point x="88" y="-9"/>
      <point x="13" y="104"/>
    </contour>
    <contour>
      <point x="183" y="230" type="curve" smooth="yes"/>
      <point x="162" y="175"/>
      <point x="175" y="104"/>
      <point x="245" y="102" type="curve" smooth="yes"/>
      <point x="317" y="100"/>
      <point x="385" y="167"/>
      <point x="409" y="230" type="curve" smooth="yes"/>
      <point x="430" y="285"/>
      <point x="417" y="356"/>
      <point x="347" y="358" type="curve" smooth="yes"/>
      <point x="275" y="360"/>
      <point x="207" y="293"/>
    </contour>
    <contour>
      <point x="439" y="628" type="line"/>
      <point x="318" y="542" type="line"/>
      <point x="247" y="609" type="line"/>
      <point x="465" y="744" type="line"/>
      <point x="601" y="600" type="line"/>
      <point x="499" y="541" type="line"/>
    </contour>
  </outline>
</glyph>
<glyph name="otilde" format="1">
  <advance width="543"/>
  <unicode hex="00F5"/>
  <outline>
    <contour>
      <point x="52" y="230" type="curve" smooth="yes"/>
      <point x="93" y="363"/>
      <point x="228" y="470"/>
      <point x="369" y="470" type="curve" smooth="yes"/>
      <point x="504" y="470"/>
      <point x="579" y="356"/>
      <point x="540" y="230" type="curve" smooth="yes"/>
      <point x="499" y="97"/>
      <point x="364" y="-9"/>
      <point x="223" y="-9" type="curve" smooth="yes"/>
      <point x="88" y="-9"/>
      <point x="13" y="104"/>
    </contour>
    <contour>
      <point x="183" y="230" type="curve" smooth="yes"/>
      <point x="162" y="175"/>
      <point x="175" y="104"/>
      <point x="245" y="102" type="curve" smooth="yes"/>
      <point x="317" y="100"/>
      <point x="385" y="167"/>
      <point x="409" y="230" type="curve" smooth="yes"/>
      <point x="430" y="285"/>
      <point x="417" y="356"/>
      <point x="347" y="358" type="curve" smooth="yes"/>
      <point x="275" y="360"/>
      <point x="207" y="293"/>
    </contour>
    <contour>
      <point x="240" y="591" type="line"/>
      <point x="231" y="637"/>
      <point x="340" y="679"/>
      <point x="373" y="678" type="curve" smooth="yes"/>
      <point x="415" y="676"/>
      <point x="438" y="627"/>
      <point x="481" y="630" type="curve" smooth="yes"/>
      <point x="512" y="632"/>
      <point x="538" y="661"/>
      <point x="560" y="680" type="curve"/>
      <point x="606" y="611" type="line"/>
      <point x="572" y="575"/>
      <point x="521" y="530"/>
      <point x="466" y="534" type="curve" smooth="yes"/>
      <point x="425" y="537"/>
      <point x="398" y="588"/>
      <point x="356" y="583" type="curve" smooth="yes"/>
      <point x="326" y="580"/>
      <point x="308" y="555"/>
      <point x="291" y="534" type="curve"/>
    </contour>
  </outline>
</glyph>
<glyph name="odieresis" format="1">
  <advance width="543"/>
  <unicode hex="00F6"/>
  <outline>
    <contour>
      <point x="52" y="230" type="curve" smooth="yes"/>
      <point x="93" y="363"/>
      <point x="228" y="470"/>
      <point x="369" y="470" type="curve" smooth="yes"/>
      <point x="504" y="470"/>
      <point x="579" y="356"/>
      <point x="540" y="230" type="curve" smooth="yes"/>
      <point x="499" y="97"/>
      <point x="364" y="-9"/>
      <point x="223" y="-9" type="curve" smooth="yes"/>
      <point x="88" y="-9"/>
      <point x="13" y="104"/>
    </contour>
    <contour>
      <point x="183" y="230" type="curve" smooth="yes"/>
      <point x="162" y="175"/>
      <point x="175" y="104"/>
      <point x="245" y="102" type="curve" smooth="yes"/>
      <point x="317" y="100"/>
      <point x="385" y="167"/>
      <point x="409" y="230" type="curve" smooth="yes"/>
      <point x="430" y="285"/>
      <point x="417" y="356"/>
      <point x="347" y="358" type="curve" smooth="yes"/>
      <point x="275" y="360"/>
      <point x="207" y="293"/>
    </contour>
    <contour>
      <point x="463" y="624" type="curve" smooth="yes"/>
      <point x="473" y="661"/>
      <point x="521" y="697"/>
      <point x="559" y="695" type="curve" smooth="yes"/>
      <point x="599" y="693"/>
      <point x="625" y="658"/>
      <point x="615" y="619" type="curve" smooth="yes"/>
      <point x="605" y="582"/>
      <point x="556" y="546"/>
      <point x="518" y="548" type="curve" smooth="yes"/>
      <point x="478" y="550"/>
      <point x="453" y="585"/>
    </contour>
    <contour>
      <point x="245" y="624" type="curve" smooth="yes"/>
      <point x="255" y="661"/>
      <point x="303" y="697"/>
      <point x="341" y="695" type="curve" smooth="yes"/>
      <point x="381" y="693"/>
      <point x="406" y="658"/>
      <point x="396" y="619" type="curve" smooth="yes"/>
      <point x="386" y="582"/>
      <point x="338" y="546"/>
      <point x="300" y="548" type="curve" smooth="yes"/>
      <point x="260" y="550"/>
      <point x="235" y="585"/>
    </contour>
  </outline>
</glyph>
<glyph name="divide" format="1">
  <advance width="597"/>
  <unicode hex="00F7"/>
  <outline>
    <contour>
      <point x="343" y="527" type="curve" smooth="yes"/>
      <point x="354" y="567"/>
      <point x="403" y="608"/>
      <point x="445" y="606" type="curve" smooth="yes"/>
      <point x="489" y="604"/>
      <point x="515" y="564"/>
      <point x="504" y="523" type="curve" smooth="yes"/>
      <point x="493" y="483"/>
      <point x="443" y="442"/>
      <point x="401" y="444" type="curve" smooth="yes"/>
      <point x="357" y="446"/>
      <point x="332" y="486"/>
    </contour>
    <contour>
      <point x="194" y="92" type="curve" smooth="yes"/>
      <point x="205" y="132"/>
      <point x="256" y="174"/>
      <point x="298" y="172" type="curve" smooth="yes"/>
      <point x="342" y="170"/>
      <point x="366" y="129"/>
      <point x="355" y="88" type="curve" smooth="yes"/>
      <point x="344" y="48"/>
      <point x="294" y="7"/>
      <point x="252" y="9" type="curve" smooth="yes"/>
      <point x="208" y="11"/>
      <point x="183" y="51"/>
    </contour>
    <contour>
      <point x="63" y="251" type="line"/>
      <point x="104" y="371" type="line"/>
      <point x="640" y="371" type="line"/>
      <point x="598" y="250" type="line"/>
    </contour>
  </outline>
</glyph>
<glyph name="oslash" format="1">
  <advance width="513"/>
  <unicode hex="00F8"/>
  <outline>
    <contour>
      <point x="52" y="230" type="curve" smooth="yes"/>
      <point x="93" y="364"/>
      <point x="228" y="469"/>
      <point x="369" y="469" type="curve" smooth="yes"/>
      <point x="505" y="469"/>
      <point x="579" y="357"/>
      <point x="540" y="230" type="curve" smooth="yes"/>
      <point x="499" y="96"/>
      <point x="364" y="-9"/>
      <point x="223" y="-9" type="curve" smooth="yes"/>
      <point x="87" y="-9"/>
      <point x="13" y="103"/>
    </contour>
    <contour>
      <point x="175" y="230" type="curve" smooth="yes"/>
      <point x="153" y="170"/>
      <point x="170" y="99"/>
      <point x="243" y="98" type="curve" smooth="yes"/>
      <point x="319" y="96"/>
      <point x="393" y="162"/>
      <point x="418" y="230" type="curve" smooth="yes"/>
      <point x="440" y="288"/>
      <point x="421" y="360"/>
      <point x="349" y="362" type="curve" smooth="yes"/>
      <point x="274" y="364"/>
      <point x="200" y="297"/>
    </contour>
    <contour>
      <point x="536" y="503" type="line"/>
      <point x="586" y="470" type="line"/>
      <point x="44" y="-47" type="line"/>
      <point x="-5" y="-16" type="line"/>
    </contour>
  </outline>
</glyph>
<glyph name="ugrave" format="1">
  <advance width="527"/>
  <unicode hex="00F9"/>
  <outline>
    <contour>
      <point x="286" y="0" type="line"/>
      <point x="445" y="460" type="line"/>
      <point x="574" y="460" type="line"/>
      <point x="416" y="0" type="line"/>
    </contour>
    <contour>
      <point x="195" y="180" type="line"/>
      <point x="184" y="143"/>
      <point x="177" y="94"/>
      <point x="228" y="89" type="curve" smooth="yes"/>
      <point x="283" y="84"/>
      <point x="324" y="138"/>
      <point x="349" y="178" type="curve"/>
      <point x="383" y="183" type="line"/>
      <point x="345" y="90"/>
      <point x="275" y="-9"/>
      <point x="163" y="-10" type="curve" smooth="yes"/>
      <point x="57" y="-11"/>
      <point x="36" y="78"/>
      <point x="61" y="165" type="curve"/>
      <point x="162" y="460" type="line"/>
      <point x="293" y="459" type="line"/>
    </contour>
    <contour>
      <point x="316" y="695" type="line"/>
      <point x="426" y="741" type="line"/>
      <point x="517" y="576" type="line"/>
      <point x="440" y="541" type="line"/>
    </contour>
  </outline>
</glyph>
<glyph name="udieresis" format="1">
  <advance width="527"/>
  <unicode hex="00FC"/>
  <outline>
    <contour>
      <point x="286" y="0" type="line"/>
      <point x="445" y="460" type="line"/>
      <point x="574" y="460" type="line"/>
      <point x="416" y="0" type="line"/>
    </contour>
    <contour>
      <point x="195" y="180" type="line"/>
      <point x="184" y="143"/>
      <point x="177" y="94"/>
      <point x="228" y="89" type="curve" smooth="yes"/>
      <point x="283" y="84"/>
      <point x="324" y="138"/>
      <point x="349" y="178" type="curve"/>
      <point x="383" y="183" type="line"/>
      <point x="345" y="90"/>
      <point x="275" y="-9"/>
      <point x="163" y="-10" type="curve" smooth="yes"/>
      <point x="57" y="-11"/>
      <point x="36" y="78"/>
      <point x="61" y="165" type="curve"/>
      <point x="162" y="460" type="line"/>
      <point x="293" y="459" type="line"/>
    </contour>
    <contour>
      <point x="454" y="618" type="curve" smooth="yes"/>
      <point x="464" y="655"/>
      <point x="511" y="691"/>
      <point x="549" y="689" type="curve" smooth="yes"/>
      <point x="589" y="687"/>
      <point x="616" y="652"/>
      <point x="606" y="613" type="curve" smooth="yes"/>
      <point x="596" y="576"/>
      <point x="547" y="540"/>
      <point x="509" y="542" type="curve" smooth="yes"/>
      <point x="469" y="544"/>
      <point x="444" y="579"/>
    </contour>
    <contour>
      <point x="236" y="618" type="curve" smooth="yes"/>
      <point x="246" y="655"/>
      <point x="293" y="691"/>
      <point x="331" y="689" type="curve" smooth="yes"/>
      <point x="371" y="687"/>
      <point x="397" y="652"/>
      <point x="387" y="613" type="curve" smooth="yes"/>
      <point x="377" y="576"/>
      <point x="329" y="540"/>
      <point x="291" y="542" type="curve" smooth="yes"/>
      <point x="251" y="544"/>
      <point x="226" y="579"/>
    </contour>
  </outline>
</glyph>
<glyph name="yacute" format="1">
  <advance width="468"/>
  <unicode hex="00FD"/>
  <outline>
    <contour>
      <point x="586" y="459" type="line"/>
      <point x="69" y="-219" type="line"/>
      <point x="-69" y="-219" type="line"/>
      <point x="138" y="52" type="line"/>
      <point x="98" y="460" type="line"/>
      <point x="234" y="460" type="line"/>
      <point x="248" y="93" type="line"/>
      <point x="183" y="96" type="line"/>
      <point x="445" y="459" type="line"/>
    </contour>
    <contour>
      <point x="562" y="685" type="line"/>
      <point x="346" y="543" type="line"/>
      <point x="281" y="585" type="line"/>
      <point x="472" y="739" type="line"/>
    </contour>
  </outline>
</glyph>
<glyph name="thorn" format="1">
  <advance width="567"/>
  <unicode hex="00FE"/>
  <outline>
    <contour>
      <point x="55" y="-219" type="line"/>
      <point x="-76" y="-220" type="line"/>
      <point x="268" y="780" type="line"/>
      <point x="396" y="779" type="line"/>
    </contour>
    <contour>
      <point x="564" y="230" type="curve" smooth="yes"/>
      <point x="527" y="110"/>
      <point x="414" y="-11"/>
      <point x="281" y="-10" type="curve" smooth="yes"/>
      <point x="149" y="-9"/>
      <point x="133" y="130"/>
      <point x="165" y="230" type="curve" smooth="yes"/>
      <point x="201" y="344"/>
      <point x="297" y="468"/>
      <point x="427" y="469" type="curve" smooth="yes"/>
      <point x="560" y="470"/>
      <point x="598" y="339"/>
    </contour>
    <contour>
      <point x="432" y="230" type="curve" smooth="yes"/>
      <point x="453" y="285"/>
      <point x="439" y="359"/>
      <point x="368" y="360" type="curve" smooth="yes"/>
      <point x="297" y="361"/>
      <point x="229" y="292"/>
      <point x="206" y="230" type="curve" smooth="yes"/>
      <point x="187" y="177"/>
      <point x="197" y="104"/>
      <point x="265" y="100" type="curve" smooth="yes"/>
      <point x="338" y="96"/>
      <point x="408" y="167"/>
    </contour>
  </outline>
</glyph>
